<?xml version="1.0" encoding="utf-8" standalone="no"?>
<!DOCTYPE svg PUBLIC "-//W3C//DTD SVG 1.1//EN"
  "http://www.w3.org/Graphics/SVG/1.1/DTD/svg11.dtd">
<svg xmlns:xlink="http://www.w3.org/1999/xlink" width="504pt" height="504pt" viewBox="0 0 504 504" xmlns="http://www.w3.org/2000/svg" version="1.1">
 <metadata>
  <rdf:RDF xmlns:dc="http://purl.org/dc/elements/1.1/" xmlns:cc="http://creativecommons.org/ns#" xmlns:rdf="http://www.w3.org/1999/02/22-rdf-syntax-ns#">
   <cc:Work>
    <dc:type rdf:resource="http://purl.org/dc/dcmitype/StillImage"/>
    <dc:date>2024-10-06T20:40:13.591886</dc:date>
    <dc:format>image/svg+xml</dc:format>
    <dc:creator>
     <cc:Agent>
      <dc:title>Matplotlib v3.8.4, https://matplotlib.org/</dc:title>
     </cc:Agent>
    </dc:creator>
   </cc:Work>
  </rdf:RDF>
 </metadata>
 <defs>
  <style type="text/css">*{stroke-linejoin: round; stroke-linecap: butt}</style>
 </defs>
 <g id="figure_1">
  <g id="patch_1">
   <path d="M 0 504 
L 504 504 
L 504 0 
L 0 0 
z
" style="fill: #ffffff"/>
  </g>
  <g id="axes_1">
   <g id="patch_2">
    <path d="M 63 448.56 
L 453.6 448.56 
L 453.6 60.48 
L 63 60.48 
z
" style="fill: #ffffff"/>
   </g>
   <g id="matplotlib.axis_1">
    <g id="xtick_1">
     <g id="line2d_1">
      <path d="M 105.893725 448.56 
L 105.893725 60.48 
" clip-path="url(#pa4ea62df92)" style="fill: none; stroke: #b0b0b0; stroke-width: 0.8; stroke-linecap: square"/>
     </g>
     <g id="line2d_2">
      <defs>
       <path id="m39f0f16618" d="M 0 0 
L 0 3.5 
" style="stroke: #000000; stroke-width: 0.8"/>
      </defs>
      <g>
       <use xlink:href="#m39f0f16618" x="105.893725" y="448.56" style="stroke: #000000; stroke-width: 0.8"/>
      </g>
     </g>
     <g id="text_1">
      <!-- −4 -->
      <g transform="translate(98.522631 463.158437) scale(0.1 -0.1)">
       <defs>
        <path id="DejaVuSans-2212" d="M 678 2272 
L 4684 2272 
L 4684 1741 
L 678 1741 
L 678 2272 
z
" transform="scale(0.015625)"/>
        <path id="DejaVuSans-34" d="M 2419 4116 
L 825 1625 
L 2419 1625 
L 2419 4116 
z
M 2253 4666 
L 3047 4666 
L 3047 1625 
L 3713 1625 
L 3713 1100 
L 3047 1100 
L 3047 0 
L 2419 0 
L 2419 1100 
L 313 1100 
L 313 1709 
L 2253 4666 
z
" transform="scale(0.015625)"/>
       </defs>
       <use xlink:href="#DejaVuSans-2212"/>
       <use xlink:href="#DejaVuSans-34" x="83.789062"/>
      </g>
     </g>
    </g>
    <g id="xtick_2">
     <g id="line2d_3">
      <path d="M 168.741673 448.56 
L 168.741673 60.48 
" clip-path="url(#pa4ea62df92)" style="fill: none; stroke: #b0b0b0; stroke-width: 0.8; stroke-linecap: square"/>
     </g>
     <g id="line2d_4">
      <g>
       <use xlink:href="#m39f0f16618" x="168.741673" y="448.56" style="stroke: #000000; stroke-width: 0.8"/>
      </g>
     </g>
     <g id="text_2">
      <!-- −2 -->
      <g transform="translate(161.37058 463.158437) scale(0.1 -0.1)">
       <defs>
        <path id="DejaVuSans-32" d="M 1228 531 
L 3431 531 
L 3431 0 
L 469 0 
L 469 531 
Q 828 903 1448 1529 
Q 2069 2156 2228 2338 
Q 2531 2678 2651 2914 
Q 2772 3150 2772 3378 
Q 2772 3750 2511 3984 
Q 2250 4219 1831 4219 
Q 1534 4219 1204 4116 
Q 875 4013 500 3803 
L 500 4441 
Q 881 4594 1212 4672 
Q 1544 4750 1819 4750 
Q 2544 4750 2975 4387 
Q 3406 4025 3406 3419 
Q 3406 3131 3298 2873 
Q 3191 2616 2906 2266 
Q 2828 2175 2409 1742 
Q 1991 1309 1228 531 
z
" transform="scale(0.015625)"/>
       </defs>
       <use xlink:href="#DejaVuSans-2212"/>
       <use xlink:href="#DejaVuSans-32" x="83.789062"/>
      </g>
     </g>
    </g>
    <g id="xtick_3">
     <g id="line2d_5">
      <path d="M 231.589622 448.56 
L 231.589622 60.48 
" clip-path="url(#pa4ea62df92)" style="fill: none; stroke: #b0b0b0; stroke-width: 0.8; stroke-linecap: square"/>
     </g>
     <g id="line2d_6">
      <g>
       <use xlink:href="#m39f0f16618" x="231.589622" y="448.56" style="stroke: #000000; stroke-width: 0.8"/>
      </g>
     </g>
     <g id="text_3">
      <!-- 0 -->
      <g transform="translate(228.408372 463.158437) scale(0.1 -0.1)">
       <defs>
        <path id="DejaVuSans-30" d="M 2034 4250 
Q 1547 4250 1301 3770 
Q 1056 3291 1056 2328 
Q 1056 1369 1301 889 
Q 1547 409 2034 409 
Q 2525 409 2770 889 
Q 3016 1369 3016 2328 
Q 3016 3291 2770 3770 
Q 2525 4250 2034 4250 
z
M 2034 4750 
Q 2819 4750 3233 4129 
Q 3647 3509 3647 2328 
Q 3647 1150 3233 529 
Q 2819 -91 2034 -91 
Q 1250 -91 836 529 
Q 422 1150 422 2328 
Q 422 3509 836 4129 
Q 1250 4750 2034 4750 
z
" transform="scale(0.015625)"/>
       </defs>
       <use xlink:href="#DejaVuSans-30"/>
      </g>
     </g>
    </g>
    <g id="xtick_4">
     <g id="line2d_7">
      <path d="M 294.43757 448.56 
L 294.43757 60.48 
" clip-path="url(#pa4ea62df92)" style="fill: none; stroke: #b0b0b0; stroke-width: 0.8; stroke-linecap: square"/>
     </g>
     <g id="line2d_8">
      <g>
       <use xlink:href="#m39f0f16618" x="294.43757" y="448.56" style="stroke: #000000; stroke-width: 0.8"/>
      </g>
     </g>
     <g id="text_4">
      <!-- 2 -->
      <g transform="translate(291.25632 463.158437) scale(0.1 -0.1)">
       <use xlink:href="#DejaVuSans-32"/>
      </g>
     </g>
    </g>
    <g id="xtick_5">
     <g id="line2d_9">
      <path d="M 357.285519 448.56 
L 357.285519 60.48 
" clip-path="url(#pa4ea62df92)" style="fill: none; stroke: #b0b0b0; stroke-width: 0.8; stroke-linecap: square"/>
     </g>
     <g id="line2d_10">
      <g>
       <use xlink:href="#m39f0f16618" x="357.285519" y="448.56" style="stroke: #000000; stroke-width: 0.8"/>
      </g>
     </g>
     <g id="text_5">
      <!-- 4 -->
      <g transform="translate(354.104269 463.158437) scale(0.1 -0.1)">
       <use xlink:href="#DejaVuSans-34"/>
      </g>
     </g>
    </g>
    <g id="xtick_6">
     <g id="line2d_11">
      <path d="M 420.133467 448.56 
L 420.133467 60.48 
" clip-path="url(#pa4ea62df92)" style="fill: none; stroke: #b0b0b0; stroke-width: 0.8; stroke-linecap: square"/>
     </g>
     <g id="line2d_12">
      <g>
       <use xlink:href="#m39f0f16618" x="420.133467" y="448.56" style="stroke: #000000; stroke-width: 0.8"/>
      </g>
     </g>
     <g id="text_6">
      <!-- 6 -->
      <g transform="translate(416.952217 463.158437) scale(0.1 -0.1)">
       <defs>
        <path id="DejaVuSans-36" d="M 2113 2584 
Q 1688 2584 1439 2293 
Q 1191 2003 1191 1497 
Q 1191 994 1439 701 
Q 1688 409 2113 409 
Q 2538 409 2786 701 
Q 3034 994 3034 1497 
Q 3034 2003 2786 2293 
Q 2538 2584 2113 2584 
z
M 3366 4563 
L 3366 3988 
Q 3128 4100 2886 4159 
Q 2644 4219 2406 4219 
Q 1781 4219 1451 3797 
Q 1122 3375 1075 2522 
Q 1259 2794 1537 2939 
Q 1816 3084 2150 3084 
Q 2853 3084 3261 2657 
Q 3669 2231 3669 1497 
Q 3669 778 3244 343 
Q 2819 -91 2113 -91 
Q 1303 -91 875 529 
Q 447 1150 447 2328 
Q 447 3434 972 4092 
Q 1497 4750 2381 4750 
Q 2619 4750 2861 4703 
Q 3103 4656 3366 4563 
z
" transform="scale(0.015625)"/>
       </defs>
       <use xlink:href="#DejaVuSans-36"/>
      </g>
     </g>
    </g>
    <g id="text_7">
     <!-- Angles of Attack $\alpha \ [\deg]$ -->
     <g transform="translate(197.55 476.838125) scale(0.1 -0.1)">
      <defs>
       <path id="DejaVuSans-41" d="M 2188 4044 
L 1331 1722 
L 3047 1722 
L 2188 4044 
z
M 1831 4666 
L 2547 4666 
L 4325 0 
L 3669 0 
L 3244 1197 
L 1141 1197 
L 716 0 
L 50 0 
L 1831 4666 
z
" transform="scale(0.015625)"/>
       <path id="DejaVuSans-6e" d="M 3513 2113 
L 3513 0 
L 2938 0 
L 2938 2094 
Q 2938 2591 2744 2837 
Q 2550 3084 2163 3084 
Q 1697 3084 1428 2787 
Q 1159 2491 1159 1978 
L 1159 0 
L 581 0 
L 581 3500 
L 1159 3500 
L 1159 2956 
Q 1366 3272 1645 3428 
Q 1925 3584 2291 3584 
Q 2894 3584 3203 3211 
Q 3513 2838 3513 2113 
z
" transform="scale(0.015625)"/>
       <path id="DejaVuSans-67" d="M 2906 1791 
Q 2906 2416 2648 2759 
Q 2391 3103 1925 3103 
Q 1463 3103 1205 2759 
Q 947 2416 947 1791 
Q 947 1169 1205 825 
Q 1463 481 1925 481 
Q 2391 481 2648 825 
Q 2906 1169 2906 1791 
z
M 3481 434 
Q 3481 -459 3084 -895 
Q 2688 -1331 1869 -1331 
Q 1566 -1331 1297 -1286 
Q 1028 -1241 775 -1147 
L 775 -588 
Q 1028 -725 1275 -790 
Q 1522 -856 1778 -856 
Q 2344 -856 2625 -561 
Q 2906 -266 2906 331 
L 2906 616 
Q 2728 306 2450 153 
Q 2172 0 1784 0 
Q 1141 0 747 490 
Q 353 981 353 1791 
Q 353 2603 747 3093 
Q 1141 3584 1784 3584 
Q 2172 3584 2450 3431 
Q 2728 3278 2906 2969 
L 2906 3500 
L 3481 3500 
L 3481 434 
z
" transform="scale(0.015625)"/>
       <path id="DejaVuSans-6c" d="M 603 4863 
L 1178 4863 
L 1178 0 
L 603 0 
L 603 4863 
z
" transform="scale(0.015625)"/>
       <path id="DejaVuSans-65" d="M 3597 1894 
L 3597 1613 
L 953 1613 
Q 991 1019 1311 708 
Q 1631 397 2203 397 
Q 2534 397 2845 478 
Q 3156 559 3463 722 
L 3463 178 
Q 3153 47 2828 -22 
Q 2503 -91 2169 -91 
Q 1331 -91 842 396 
Q 353 884 353 1716 
Q 353 2575 817 3079 
Q 1281 3584 2069 3584 
Q 2775 3584 3186 3129 
Q 3597 2675 3597 1894 
z
M 3022 2063 
Q 3016 2534 2758 2815 
Q 2500 3097 2075 3097 
Q 1594 3097 1305 2825 
Q 1016 2553 972 2059 
L 3022 2063 
z
" transform="scale(0.015625)"/>
       <path id="DejaVuSans-73" d="M 2834 3397 
L 2834 2853 
Q 2591 2978 2328 3040 
Q 2066 3103 1784 3103 
Q 1356 3103 1142 2972 
Q 928 2841 928 2578 
Q 928 2378 1081 2264 
Q 1234 2150 1697 2047 
L 1894 2003 
Q 2506 1872 2764 1633 
Q 3022 1394 3022 966 
Q 3022 478 2636 193 
Q 2250 -91 1575 -91 
Q 1294 -91 989 -36 
Q 684 19 347 128 
L 347 722 
Q 666 556 975 473 
Q 1284 391 1588 391 
Q 1994 391 2212 530 
Q 2431 669 2431 922 
Q 2431 1156 2273 1281 
Q 2116 1406 1581 1522 
L 1381 1569 
Q 847 1681 609 1914 
Q 372 2147 372 2553 
Q 372 3047 722 3315 
Q 1072 3584 1716 3584 
Q 2034 3584 2315 3537 
Q 2597 3491 2834 3397 
z
" transform="scale(0.015625)"/>
       <path id="DejaVuSans-20" transform="scale(0.015625)"/>
       <path id="DejaVuSans-6f" d="M 1959 3097 
Q 1497 3097 1228 2736 
Q 959 2375 959 1747 
Q 959 1119 1226 758 
Q 1494 397 1959 397 
Q 2419 397 2687 759 
Q 2956 1122 2956 1747 
Q 2956 2369 2687 2733 
Q 2419 3097 1959 3097 
z
M 1959 3584 
Q 2709 3584 3137 3096 
Q 3566 2609 3566 1747 
Q 3566 888 3137 398 
Q 2709 -91 1959 -91 
Q 1206 -91 779 398 
Q 353 888 353 1747 
Q 353 2609 779 3096 
Q 1206 3584 1959 3584 
z
" transform="scale(0.015625)"/>
       <path id="DejaVuSans-66" d="M 2375 4863 
L 2375 4384 
L 1825 4384 
Q 1516 4384 1395 4259 
Q 1275 4134 1275 3809 
L 1275 3500 
L 2222 3500 
L 2222 3053 
L 1275 3053 
L 1275 0 
L 697 0 
L 697 3053 
L 147 3053 
L 147 3500 
L 697 3500 
L 697 3744 
Q 697 4328 969 4595 
Q 1241 4863 1831 4863 
L 2375 4863 
z
" transform="scale(0.015625)"/>
       <path id="DejaVuSans-74" d="M 1172 4494 
L 1172 3500 
L 2356 3500 
L 2356 3053 
L 1172 3053 
L 1172 1153 
Q 1172 725 1289 603 
Q 1406 481 1766 481 
L 2356 481 
L 2356 0 
L 1766 0 
Q 1100 0 847 248 
Q 594 497 594 1153 
L 594 3053 
L 172 3053 
L 172 3500 
L 594 3500 
L 594 4494 
L 1172 4494 
z
" transform="scale(0.015625)"/>
       <path id="DejaVuSans-61" d="M 2194 1759 
Q 1497 1759 1228 1600 
Q 959 1441 959 1056 
Q 959 750 1161 570 
Q 1363 391 1709 391 
Q 2188 391 2477 730 
Q 2766 1069 2766 1631 
L 2766 1759 
L 2194 1759 
z
M 3341 1997 
L 3341 0 
L 2766 0 
L 2766 531 
Q 2569 213 2275 61 
Q 1981 -91 1556 -91 
Q 1019 -91 701 211 
Q 384 513 384 1019 
Q 384 1609 779 1909 
Q 1175 2209 1959 2209 
L 2766 2209 
L 2766 2266 
Q 2766 2663 2505 2880 
Q 2244 3097 1772 3097 
Q 1472 3097 1187 3025 
Q 903 2953 641 2809 
L 641 3341 
Q 956 3463 1253 3523 
Q 1550 3584 1831 3584 
Q 2591 3584 2966 3190 
Q 3341 2797 3341 1997 
z
" transform="scale(0.015625)"/>
       <path id="DejaVuSans-63" d="M 3122 3366 
L 3122 2828 
Q 2878 2963 2633 3030 
Q 2388 3097 2138 3097 
Q 1578 3097 1268 2742 
Q 959 2388 959 1747 
Q 959 1106 1268 751 
Q 1578 397 2138 397 
Q 2388 397 2633 464 
Q 2878 531 3122 666 
L 3122 134 
Q 2881 22 2623 -34 
Q 2366 -91 2075 -91 
Q 1284 -91 818 406 
Q 353 903 353 1747 
Q 353 2603 823 3093 
Q 1294 3584 2113 3584 
Q 2378 3584 2631 3529 
Q 2884 3475 3122 3366 
z
" transform="scale(0.015625)"/>
       <path id="DejaVuSans-6b" d="M 581 4863 
L 1159 4863 
L 1159 1991 
L 2875 3500 
L 3609 3500 
L 1753 1863 
L 3688 0 
L 2938 0 
L 1159 1709 
L 1159 0 
L 581 0 
L 581 4863 
z
" transform="scale(0.015625)"/>
       <path id="DejaVuSans-Oblique-3b1" d="M 2619 1628 
L 2622 2350 
Q 2625 3088 2069 3091 
Q 1653 3094 1394 2747 
Q 1069 2319 959 1747 
Q 825 1059 994 731 
Q 1169 397 1547 397 
Q 1966 397 2319 1063 
L 2619 1628 
z
M 2166 3578 
Q 3141 3594 3128 2584 
Q 3128 2584 3616 3500 
L 4128 3500 
L 3119 1603 
L 3109 919 
Q 3109 766 3194 638 
Q 3291 488 3391 488 
L 3669 488 
L 3575 0 
L 3228 0 
Q 2934 0 2722 263 
Q 2622 394 2619 669 
Q 2416 334 2066 50 
Q 1900 -81 1453 -78 
Q 722 -72 456 397 
Q 184 884 353 1747 
Q 534 2675 1009 3097 
Q 1544 3569 2166 3578 
z
" transform="scale(0.015625)"/>
       <path id="DejaVuSans-5b" d="M 550 4863 
L 1875 4863 
L 1875 4416 
L 1125 4416 
L 1125 -397 
L 1875 -397 
L 1875 -844 
L 550 -844 
L 550 4863 
z
" transform="scale(0.015625)"/>
       <path id="DejaVuSans-64" d="M 2906 2969 
L 2906 4863 
L 3481 4863 
L 3481 0 
L 2906 0 
L 2906 525 
Q 2725 213 2448 61 
Q 2172 -91 1784 -91 
Q 1150 -91 751 415 
Q 353 922 353 1747 
Q 353 2572 751 3078 
Q 1150 3584 1784 3584 
Q 2172 3584 2448 3432 
Q 2725 3281 2906 2969 
z
M 947 1747 
Q 947 1113 1208 752 
Q 1469 391 1925 391 
Q 2381 391 2643 752 
Q 2906 1113 2906 1747 
Q 2906 2381 2643 2742 
Q 2381 3103 1925 3103 
Q 1469 3103 1208 2742 
Q 947 2381 947 1747 
z
" transform="scale(0.015625)"/>
       <path id="DejaVuSans-5d" d="M 1947 4863 
L 1947 -844 
L 622 -844 
L 622 -397 
L 1369 -397 
L 1369 4416 
L 622 4416 
L 622 4863 
L 1947 4863 
z
" transform="scale(0.015625)"/>
      </defs>
      <use xlink:href="#DejaVuSans-41" transform="translate(0 0.015625)"/>
      <use xlink:href="#DejaVuSans-6e" transform="translate(68.408203 0.015625)"/>
      <use xlink:href="#DejaVuSans-67" transform="translate(131.787109 0.015625)"/>
      <use xlink:href="#DejaVuSans-6c" transform="translate(195.263672 0.015625)"/>
      <use xlink:href="#DejaVuSans-65" transform="translate(223.046875 0.015625)"/>
      <use xlink:href="#DejaVuSans-73" transform="translate(284.570312 0.015625)"/>
      <use xlink:href="#DejaVuSans-20" transform="translate(336.669922 0.015625)"/>
      <use xlink:href="#DejaVuSans-6f" transform="translate(368.457031 0.015625)"/>
      <use xlink:href="#DejaVuSans-66" transform="translate(429.638672 0.015625)"/>
      <use xlink:href="#DejaVuSans-20" transform="translate(464.84375 0.015625)"/>
      <use xlink:href="#DejaVuSans-41" transform="translate(496.630859 0.015625)"/>
      <use xlink:href="#DejaVuSans-74" transform="translate(565.039062 0.015625)"/>
      <use xlink:href="#DejaVuSans-74" transform="translate(604.248047 0.015625)"/>
      <use xlink:href="#DejaVuSans-61" transform="translate(643.457031 0.015625)"/>
      <use xlink:href="#DejaVuSans-63" transform="translate(704.736328 0.015625)"/>
      <use xlink:href="#DejaVuSans-6b" transform="translate(759.716797 0.015625)"/>
      <use xlink:href="#DejaVuSans-20" transform="translate(817.626953 0.015625)"/>
      <use xlink:href="#DejaVuSans-Oblique-3b1" transform="translate(849.414062 0.015625)"/>
      <use xlink:href="#DejaVuSans-5b" transform="translate(947.80241 0.015625)"/>
      <use xlink:href="#DejaVuSans-64" transform="translate(986.816082 0.015625)"/>
      <use xlink:href="#DejaVuSans-65" transform="translate(1050.292644 0.015625)"/>
      <use xlink:href="#DejaVuSans-67" transform="translate(1111.816082 0.015625)"/>
      <use xlink:href="#DejaVuSans-5d" transform="translate(1175.292644 0.015625)"/>
     </g>
    </g>
   </g>
   <g id="matplotlib.axis_2">
    <g id="ytick_1">
     <g id="line2d_13">
      <path d="M 63 430.92 
L 453.6 430.92 
" clip-path="url(#pa4ea62df92)" style="fill: none; stroke: #b0b0b0; stroke-width: 0.8; stroke-linecap: square"/>
     </g>
     <g id="line2d_14">
      <defs>
       <path id="md4c57357b2" d="M 0 0 
L -3.5 0 
" style="stroke: #000000; stroke-width: 0.8"/>
      </defs>
      <g>
       <use xlink:href="#md4c57357b2" x="63" y="430.92" style="stroke: #000000; stroke-width: 0.8"/>
      </g>
     </g>
     <g id="text_8">
      <!-- 0.00 -->
      <g transform="translate(33.734375 434.719219) scale(0.1 -0.1)">
       <defs>
        <path id="DejaVuSans-2e" d="M 684 794 
L 1344 794 
L 1344 0 
L 684 0 
L 684 794 
z
" transform="scale(0.015625)"/>
       </defs>
       <use xlink:href="#DejaVuSans-30"/>
       <use xlink:href="#DejaVuSans-2e" x="63.623047"/>
       <use xlink:href="#DejaVuSans-30" x="95.410156"/>
       <use xlink:href="#DejaVuSans-30" x="159.033203"/>
      </g>
     </g>
    </g>
    <g id="ytick_2">
     <g id="line2d_15">
      <path d="M 63 345.578926 
L 453.6 345.578926 
" clip-path="url(#pa4ea62df92)" style="fill: none; stroke: #b0b0b0; stroke-width: 0.8; stroke-linecap: square"/>
     </g>
     <g id="line2d_16">
      <g>
       <use xlink:href="#md4c57357b2" x="63" y="345.578926" style="stroke: #000000; stroke-width: 0.8"/>
      </g>
     </g>
     <g id="text_9">
      <!-- 0.01 -->
      <g transform="translate(33.734375 349.378145) scale(0.1 -0.1)">
       <defs>
        <path id="DejaVuSans-31" d="M 794 531 
L 1825 531 
L 1825 4091 
L 703 3866 
L 703 4441 
L 1819 4666 
L 2450 4666 
L 2450 531 
L 3481 531 
L 3481 0 
L 794 0 
L 794 531 
z
" transform="scale(0.015625)"/>
       </defs>
       <use xlink:href="#DejaVuSans-30"/>
       <use xlink:href="#DejaVuSans-2e" x="63.623047"/>
       <use xlink:href="#DejaVuSans-30" x="95.410156"/>
       <use xlink:href="#DejaVuSans-31" x="159.033203"/>
      </g>
     </g>
    </g>
    <g id="ytick_3">
     <g id="line2d_17">
      <path d="M 63 260.237852 
L 453.6 260.237852 
" clip-path="url(#pa4ea62df92)" style="fill: none; stroke: #b0b0b0; stroke-width: 0.8; stroke-linecap: square"/>
     </g>
     <g id="line2d_18">
      <g>
       <use xlink:href="#md4c57357b2" x="63" y="260.237852" style="stroke: #000000; stroke-width: 0.8"/>
      </g>
     </g>
     <g id="text_10">
      <!-- 0.02 -->
      <g transform="translate(33.734375 264.037071) scale(0.1 -0.1)">
       <use xlink:href="#DejaVuSans-30"/>
       <use xlink:href="#DejaVuSans-2e" x="63.623047"/>
       <use xlink:href="#DejaVuSans-30" x="95.410156"/>
       <use xlink:href="#DejaVuSans-32" x="159.033203"/>
      </g>
     </g>
    </g>
    <g id="ytick_4">
     <g id="line2d_19">
      <path d="M 63 174.896778 
L 453.6 174.896778 
" clip-path="url(#pa4ea62df92)" style="fill: none; stroke: #b0b0b0; stroke-width: 0.8; stroke-linecap: square"/>
     </g>
     <g id="line2d_20">
      <g>
       <use xlink:href="#md4c57357b2" x="63" y="174.896778" style="stroke: #000000; stroke-width: 0.8"/>
      </g>
     </g>
     <g id="text_11">
      <!-- 0.03 -->
      <g transform="translate(33.734375 178.695997) scale(0.1 -0.1)">
       <defs>
        <path id="DejaVuSans-33" d="M 2597 2516 
Q 3050 2419 3304 2112 
Q 3559 1806 3559 1356 
Q 3559 666 3084 287 
Q 2609 -91 1734 -91 
Q 1441 -91 1130 -33 
Q 819 25 488 141 
L 488 750 
Q 750 597 1062 519 
Q 1375 441 1716 441 
Q 2309 441 2620 675 
Q 2931 909 2931 1356 
Q 2931 1769 2642 2001 
Q 2353 2234 1838 2234 
L 1294 2234 
L 1294 2753 
L 1863 2753 
Q 2328 2753 2575 2939 
Q 2822 3125 2822 3475 
Q 2822 3834 2567 4026 
Q 2313 4219 1838 4219 
Q 1578 4219 1281 4162 
Q 984 4106 628 3988 
L 628 4550 
Q 988 4650 1302 4700 
Q 1616 4750 1894 4750 
Q 2613 4750 3031 4423 
Q 3450 4097 3450 3541 
Q 3450 3153 3228 2886 
Q 3006 2619 2597 2516 
z
" transform="scale(0.015625)"/>
       </defs>
       <use xlink:href="#DejaVuSans-30"/>
       <use xlink:href="#DejaVuSans-2e" x="63.623047"/>
       <use xlink:href="#DejaVuSans-30" x="95.410156"/>
       <use xlink:href="#DejaVuSans-33" x="159.033203"/>
      </g>
     </g>
    </g>
    <g id="ytick_5">
     <g id="line2d_21">
      <path d="M 63 89.555704 
L 453.6 89.555704 
" clip-path="url(#pa4ea62df92)" style="fill: none; stroke: #b0b0b0; stroke-width: 0.8; stroke-linecap: square"/>
     </g>
     <g id="line2d_22">
      <g>
       <use xlink:href="#md4c57357b2" x="63" y="89.555704" style="stroke: #000000; stroke-width: 0.8"/>
      </g>
     </g>
     <g id="text_12">
      <!-- 0.04 -->
      <g transform="translate(33.734375 93.354923) scale(0.1 -0.1)">
       <use xlink:href="#DejaVuSans-30"/>
       <use xlink:href="#DejaVuSans-2e" x="63.623047"/>
       <use xlink:href="#DejaVuSans-30" x="95.410156"/>
       <use xlink:href="#DejaVuSans-34" x="159.033203"/>
      </g>
     </g>
    </g>
    <g id="text_13">
     <!-- Lift Coefficient  $C_l \ [-]$ -->
     <g transform="translate(27.654687 308.42) rotate(-90) scale(0.1 -0.1)">
      <defs>
       <path id="DejaVuSans-4c" d="M 628 4666 
L 1259 4666 
L 1259 531 
L 3531 531 
L 3531 0 
L 628 0 
L 628 4666 
z
" transform="scale(0.015625)"/>
       <path id="DejaVuSans-69" d="M 603 3500 
L 1178 3500 
L 1178 0 
L 603 0 
L 603 3500 
z
M 603 4863 
L 1178 4863 
L 1178 4134 
L 603 4134 
L 603 4863 
z
" transform="scale(0.015625)"/>
       <path id="DejaVuSans-43" d="M 4122 4306 
L 4122 3641 
Q 3803 3938 3442 4084 
Q 3081 4231 2675 4231 
Q 1875 4231 1450 3742 
Q 1025 3253 1025 2328 
Q 1025 1406 1450 917 
Q 1875 428 2675 428 
Q 3081 428 3442 575 
Q 3803 722 4122 1019 
L 4122 359 
Q 3791 134 3420 21 
Q 3050 -91 2638 -91 
Q 1578 -91 968 557 
Q 359 1206 359 2328 
Q 359 3453 968 4101 
Q 1578 4750 2638 4750 
Q 3056 4750 3426 4639 
Q 3797 4528 4122 4306 
z
" transform="scale(0.015625)"/>
       <path id="DejaVuSans-Oblique-43" d="M 4447 4306 
L 4319 3641 
Q 4019 3944 3683 4091 
Q 3347 4238 2956 4238 
Q 2422 4238 2017 3981 
Q 1613 3725 1319 3200 
Q 1131 2863 1032 2486 
Q 934 2109 934 1728 
Q 934 1091 1264 756 
Q 1594 422 2222 422 
Q 2656 422 3056 561 
Q 3456 700 3834 978 
L 3688 231 
Q 3316 72 2936 -9 
Q 2556 -91 2175 -91 
Q 1278 -91 773 396 
Q 269 884 269 1753 
Q 269 2309 461 2846 
Q 653 3384 1013 3828 
Q 1394 4300 1883 4525 
Q 2372 4750 3022 4750 
Q 3422 4750 3780 4639 
Q 4138 4528 4447 4306 
z
" transform="scale(0.015625)"/>
       <path id="DejaVuSans-Oblique-6c" d="M 1172 4863 
L 1747 4863 
L 800 0 
L 225 0 
L 1172 4863 
z
" transform="scale(0.015625)"/>
      </defs>
      <use xlink:href="#DejaVuSans-4c" transform="translate(0 0.015625)"/>
      <use xlink:href="#DejaVuSans-69" transform="translate(55.712891 0.015625)"/>
      <use xlink:href="#DejaVuSans-66" transform="translate(83.496094 0.015625)"/>
      <use xlink:href="#DejaVuSans-74" transform="translate(118.701172 0.015625)"/>
      <use xlink:href="#DejaVuSans-20" transform="translate(157.910156 0.015625)"/>
      <use xlink:href="#DejaVuSans-43" transform="translate(189.697266 0.015625)"/>
      <use xlink:href="#DejaVuSans-6f" transform="translate(259.521484 0.015625)"/>
      <use xlink:href="#DejaVuSans-65" transform="translate(320.703125 0.015625)"/>
      <use xlink:href="#DejaVuSans-66" transform="translate(382.226562 0.015625)"/>
      <use xlink:href="#DejaVuSans-66" transform="translate(417.431641 0.015625)"/>
      <use xlink:href="#DejaVuSans-69" transform="translate(452.636719 0.015625)"/>
      <use xlink:href="#DejaVuSans-63" transform="translate(480.419922 0.015625)"/>
      <use xlink:href="#DejaVuSans-69" transform="translate(535.400391 0.015625)"/>
      <use xlink:href="#DejaVuSans-65" transform="translate(563.183594 0.015625)"/>
      <use xlink:href="#DejaVuSans-6e" transform="translate(624.707031 0.015625)"/>
      <use xlink:href="#DejaVuSans-74" transform="translate(688.085938 0.015625)"/>
      <use xlink:href="#DejaVuSans-20" transform="translate(727.294922 0.015625)"/>
      <use xlink:href="#DejaVuSans-20" transform="translate(759.082031 0.015625)"/>
      <use xlink:href="#DejaVuSans-Oblique-43" transform="translate(790.869141 0.015625)"/>
      <use xlink:href="#DejaVuSans-Oblique-6c" transform="translate(860.693359 -16.390625) scale(0.7)"/>
      <use xlink:href="#DejaVuSans-5b" transform="translate(915.346355 0.015625)"/>
      <use xlink:href="#DejaVuSans-2212" transform="translate(954.360027 0.015625)"/>
      <use xlink:href="#DejaVuSans-5d" transform="translate(1038.149089 0.015625)"/>
     </g>
    </g>
   </g>
   <g id="line2d_23">
    <path d="M 63 430.92 
L 453.6 430.92 
" clip-path="url(#pa4ea62df92)" style="fill: none; stroke: #000000; stroke-linecap: square"/>
   </g>
   <g id="line2d_24">
    <path d="M 231.589622 448.56 
L 231.589622 60.48 
" clip-path="url(#pa4ea62df92)" style="fill: none; stroke: #000000; stroke-linecap: square"/>
   </g>
   <g id="line2d_25">
    <path d="M 184.45366 308.028853 
L 187.596058 310.418403 
L 190.738455 312.295907 
L 193.880853 314.344093 
L 197.02325 315.624209 
L 200.165648 316.562961 
L 203.308045 317.416372 
L 206.450442 318.696488 
L 209.59284 319.293875 
L 212.735237 319.635239 
L 215.877635 320.48865 
L 222.16243 321.171379 
L 225.304827 321.768766 
L 228.447224 322.02479 
L 231.589622 323.390247 
L 234.732019 331.58299 
L 237.874417 334.313904 
L 241.016814 335.508679 
L 244.159212 336.276749 
L 247.301609 336.36209 
L 250.444006 336.020726 
L 253.586404 334.996633 
L 256.728801 333.375152 
L 259.871199 331.326967 
L 263.013596 329.534804 
L 266.155994 327.571959 
L 269.298391 325.353091 
L 272.440788 323.134224 
L 275.583186 320.48865 
L 278.725583 317.501713 
L 281.867981 315.538868 
L 285.010378 314.173411 
L 288.152776 312.722612 
L 291.295173 311.101132 
L 294.43757 309.394311 
L 297.579968 307.602148 
L 300.722365 305.724644 
L 303.864763 303.676459 
L 307.00716 301.542932 
L 310.149558 299.238723 
L 313.291955 296.593149 
L 316.434352 293.862235 
L 319.57675 291.302003 
L 322.719147 288.400406 
L 325.861545 285.328128 
L 329.003942 281.999826 
L 332.14634 278.586183 
L 335.288737 275.087199 
L 338.431134 271.332192 
L 341.573532 267.577184 
L 344.715929 263.992859 
L 347.858327 260.237852 
L 351.000724 255.800116 
L 354.143121 250.252946 
L 357.285519 244.108389 
L 360.427916 237.537126 
L 363.570314 230.795181 
L 366.712711 224.053237 
L 369.855109 217.567315 
L 372.997506 211.337417 
L 376.139903 205.192859 
L 379.282301 198.365573 
L 382.424698 191.282264 
L 385.567096 182.150769 
L 388.709493 166.533353 
L 391.851891 149.891843 
L 394.994288 133.250334 
L 398.136685 118.315646 
L 401.279083 105.599826 
L 404.42148 94.420145 
" clip-path="url(#pa4ea62df92)" style="fill: none; stroke: #1f77b4; stroke-width: 1.5; stroke-linecap: square"/>
   </g>
   <g id="line2d_26">
    <path d="M 63 430.92 
L 453.6 430.92 
" clip-path="url(#pa4ea62df92)" style="fill: none; stroke: #000000; stroke-linecap: square"/>
   </g>
   <g id="line2d_27">
    <path d="M 231.589622 448.56 
L 231.589622 60.48 
" clip-path="url(#pa4ea62df92)" style="fill: none; stroke: #000000; stroke-linecap: square"/>
   </g>
   <g id="line2d_28">
    <path d="M 156.172084 345.493585 
L 159.314481 346.346996 
L 165.599276 348.053817 
L 168.741673 348.651205 
L 171.884071 349.163251 
L 178.168866 350.102003 
L 181.311263 350.443367 
L 184.45366 350.784731 
L 187.596058 351.296778 
L 190.738455 351.552801 
L 193.880853 351.552801 
L 197.02325 352.064848 
L 200.165648 352.320871 
L 203.308045 352.576894 
L 206.450442 352.747576 
L 209.59284 352.918258 
L 212.735237 353.003599 
L 215.877635 353.259623 
L 219.020032 353.600987 
L 222.16243 353.85701 
L 225.304827 354.027692 
L 228.447224 354.369057 
L 231.589622 354.539739 
L 234.732019 354.539739 
L 237.874417 354.795762 
L 241.016814 355.222467 
L 244.159212 356.843948 
L 247.301609 358.806792 
L 250.444006 359.745544 
L 253.586404 360.17225 
L 256.728801 360.428273 
L 259.871199 360.684296 
L 263.013596 360.769637 
L 266.155994 360.598955 
L 269.298391 360.342932 
L 272.440788 360.17225 
L 275.583186 360.001567 
L 281.867981 359.830885 
L 285.010378 359.745544 
L 288.152776 359.574862 
L 291.295173 359.40418 
L 294.43757 359.062816 
L 297.579968 358.721451 
L 300.722365 358.294746 
L 303.864763 357.612017 
L 307.00716 357.099971 
L 310.149558 356.673266 
L 313.291955 356.331901 
L 316.434352 355.819855 
L 319.57675 355.137126 
L 322.719147 354.454398 
L 325.861545 353.344964 
L 329.003942 351.979507 
L 332.14634 350.443367 
L 335.288737 349.248592 
L 338.431134 347.968476 
L 341.573532 346.603019 
L 344.715929 344.896197 
L 347.858327 343.189376 
L 351.000724 341.653237 
L 354.143121 340.799826 
L 357.285519 339.690392 
L 360.427916 338.239594 
L 363.570314 336.874136 
L 366.712711 335.252656 
L 369.855109 333.119129 
L 372.997506 331.156284 
L 376.139903 328.510711 
L 379.282301 325.609115 
L 382.424698 321.939448 
L 385.567096 317.928418 
L 388.709493 313.234659 
L 391.851891 307.77283 
L 394.994288 302.054978 
L 398.136685 295.654398 
L 401.279083 288.315065 
L 404.42148 280.122322 
L 407.563878 271.246851 
L 410.706275 261.432627 
L 413.848673 250.50897 
L 416.99107 238.64656 
L 420.133467 225.674717 
L 423.275865 211.764122 
L 426.418262 196.914775 
L 429.56066 181.3827 
L 432.703057 165.082554 
L 435.845455 148.185022 
" clip-path="url(#pa4ea62df92)" style="fill: none; stroke: #ff7f0e; stroke-width: 1.5; stroke-linecap: square"/>
   </g>
   <g id="line2d_29">
    <path d="M 63 430.92 
L 453.6 430.92 
" clip-path="url(#pa4ea62df92)" style="fill: none; stroke: #000000; stroke-linecap: square"/>
   </g>
   <g id="line2d_30">
    <path d="M 231.589622 448.56 
L 231.589622 60.48 
" clip-path="url(#pa4ea62df92)" style="fill: none; stroke: #000000; stroke-linecap: square"/>
   </g>
   <g id="line2d_31">
    <path d="M 178.168866 354.283716 
L 181.311263 355.137126 
L 184.45366 355.905196 
L 187.596058 356.502583 
L 190.738455 357.355994 
L 193.880853 358.380087 
L 197.02325 363.841916 
L 200.165648 375.704325 
L 203.308045 379.203309 
L 206.450442 379.28865 
L 209.59284 379.459332 
L 212.735237 379.630015 
L 215.877635 379.715356 
L 219.020032 379.715356 
L 222.16243 379.630015 
L 225.304827 379.544673 
L 228.447224 379.459332 
L 231.589622 379.373991 
L 234.732019 379.203309 
L 237.874417 378.691263 
L 241.016814 378.520581 
L 244.159212 379.203309 
L 247.301609 379.203309 
L 250.444006 379.032627 
L 253.586404 378.691263 
L 256.728801 378.435239 
L 259.871199 378.179216 
L 263.013596 377.923193 
L 266.155994 377.581829 
L 269.298391 377.155123 
L 272.440788 376.728418 
L 275.583186 376.472395 
L 278.725583 376.301713 
L 281.867981 376.13103 
L 285.010378 375.618984 
" clip-path="url(#pa4ea62df92)" style="fill: none; stroke: #2ca02c; stroke-width: 1.5; stroke-linecap: square"/>
   </g>
   <g id="line2d_32">
    <path d="M 63 430.92 
L 453.6 430.92 
" clip-path="url(#pa4ea62df92)" style="fill: none; stroke: #000000; stroke-linecap: square"/>
   </g>
   <g id="line2d_33">
    <path d="M 231.589622 448.56 
L 231.589622 60.48 
" clip-path="url(#pa4ea62df92)" style="fill: none; stroke: #000000; stroke-linecap: square"/>
   </g>
   <g id="line2d_34">
    <path d="M 80.754545 267.491843 
L 83.896943 271.417533 
L 87.03934 274.745835 
L 90.181738 277.050044 
L 93.324135 279.610276 
L 96.466533 282.255849 
L 99.60893 284.901422 
L 102.751327 287.717678 
L 105.893725 290.619274 
L 109.036122 293.520871 
L 112.17852 296.507808 
L 115.320917 299.580087 
L 118.463315 302.823048 
L 124.748109 309.052946 
L 127.890507 312.125225 
L 131.032904 315.026821 
L 134.175302 317.33103 
L 137.317699 319.720581 
L 140.460097 322.8782 
L 146.744891 327.571959 
L 149.887289 330.302874 
L 153.029686 334.313904 
L 156.172084 340.799826 
L 159.314481 373.826821 
L 162.456879 375.021597 
L 165.599276 375.021597 
L 168.741673 374.594891 
L 171.884071 373.656139 
L 175.026468 372.034659 
L 178.168866 369.559768 
L 181.311263 366.231466 
L 184.45366 362.817823 
L 190.738455 354.539739 
L 193.880853 350.443367 
L 197.02325 346.859042 
L 203.308045 339.690392 
L 206.450442 336.276749 
L 209.59284 332.948447 
L 212.735237 329.961509 
L 215.877635 327.059913 
L 219.020032 324.41434 
L 222.16243 322.02479 
L 225.304827 320.147286 
L 228.447224 318.440464 
L 231.589622 316.648302 
L 234.732019 314.514775 
L 237.874417 312.978636 
L 241.016814 311.271814 
L 244.159212 309.223628 
L 247.301609 307.004761 
L 250.444006 304.785893 
L 253.586404 302.652366 
L 256.728801 300.518839 
L 259.871199 298.385312 
L 263.013596 295.995762 
L 266.155994 293.520871 
L 269.298391 290.704615 
L 272.440788 287.717678 
L 275.583186 284.304035 
L 278.725583 280.634369 
L 281.867981 276.708679 
L 285.010378 272.356284 
L 288.152776 267.747866 
L 291.295173 262.883425 
L 294.43757 257.592279 
L 297.579968 251.789086 
L 300.722365 245.473846 
L 303.864763 238.390537 
L 307.00716 230.368476 
L 310.149558 221.493004 
L 313.291955 211.764122 
L 316.434352 201.352511 
L 319.57675 190.258171 
L 322.719147 178.566444 
L 325.861545 166.277329 
L 329.003942 153.390827 
L 332.14634 139.736255 
L 335.288737 125.398955 
L 338.431134 110.378926 
L 341.573532 94.590827 
L 344.715929 78.12 
" clip-path="url(#pa4ea62df92)" style="fill: none; stroke: #d62728; stroke-width: 1.5; stroke-linecap: square"/>
   </g>
   <g id="patch_3">
    <path d="M 63 448.56 
L 63 60.48 
" style="fill: none; stroke: #000000; stroke-width: 0.8; stroke-linejoin: miter; stroke-linecap: square"/>
   </g>
   <g id="patch_4">
    <path d="M 453.6 448.56 
L 453.6 60.48 
" style="fill: none; stroke: #000000; stroke-width: 0.8; stroke-linejoin: miter; stroke-linecap: square"/>
   </g>
   <g id="patch_5">
    <path d="M 63 448.56 
L 453.6 448.56 
" style="fill: none; stroke: #000000; stroke-width: 0.8; stroke-linejoin: miter; stroke-linecap: square"/>
   </g>
   <g id="patch_6">
    <path d="M 63 60.48 
L 453.6 60.48 
" style="fill: none; stroke: #000000; stroke-width: 0.8; stroke-linejoin: miter; stroke-linecap: square"/>
   </g>
   <g id="legend_1">
    <g id="patch_7">
     <path d="M 70 127.1925 
L 182.734375 127.1925 
Q 184.734375 127.1925 184.734375 125.1925 
L 184.734375 67.48 
Q 184.734375 65.48 182.734375 65.48 
L 70 65.48 
Q 68 65.48 68 67.48 
L 68 125.1925 
Q 68 127.1925 70 127.1925 
z
" style="fill: #ffffff; opacity: 0.8; stroke: #cccccc; stroke-linejoin: miter"/>
    </g>
    <g id="line2d_35">
     <path d="M 72 73.578438 
L 82 73.578438 
L 92 73.578438 
" style="fill: none; stroke: #1f77b4; stroke-width: 1.5; stroke-linecap: square"/>
    </g>
    <g id="text_14">
     <!-- NACA 2210 -->
     <g transform="translate(100 77.078438) scale(0.1 -0.1)">
      <defs>
       <path id="DejaVuSans-4e" d="M 628 4666 
L 1478 4666 
L 3547 763 
L 3547 4666 
L 4159 4666 
L 4159 0 
L 3309 0 
L 1241 3903 
L 1241 0 
L 628 0 
L 628 4666 
z
" transform="scale(0.015625)"/>
      </defs>
      <use xlink:href="#DejaVuSans-4e"/>
      <use xlink:href="#DejaVuSans-41" x="74.804688"/>
      <use xlink:href="#DejaVuSans-43" x="141.462891"/>
      <use xlink:href="#DejaVuSans-41" x="211.287109"/>
      <use xlink:href="#DejaVuSans-20" x="279.695312"/>
      <use xlink:href="#DejaVuSans-32" x="311.482422"/>
      <use xlink:href="#DejaVuSans-32" x="375.105469"/>
      <use xlink:href="#DejaVuSans-31" x="438.728516"/>
      <use xlink:href="#DejaVuSans-30" x="502.351562"/>
     </g>
    </g>
    <g id="line2d_36">
     <path d="M 72 88.256563 
L 82 88.256563 
L 92 88.256563 
" style="fill: none; stroke: #ff7f0e; stroke-width: 1.5; stroke-linecap: square"/>
    </g>
    <g id="text_15">
     <!-- NACA 2312 -->
     <g transform="translate(100 91.756563) scale(0.1 -0.1)">
      <use xlink:href="#DejaVuSans-4e"/>
      <use xlink:href="#DejaVuSans-41" x="74.804688"/>
      <use xlink:href="#DejaVuSans-43" x="141.462891"/>
      <use xlink:href="#DejaVuSans-41" x="211.287109"/>
      <use xlink:href="#DejaVuSans-20" x="279.695312"/>
      <use xlink:href="#DejaVuSans-32" x="311.482422"/>
      <use xlink:href="#DejaVuSans-33" x="375.105469"/>
      <use xlink:href="#DejaVuSans-31" x="438.728516"/>
      <use xlink:href="#DejaVuSans-32" x="502.351562"/>
     </g>
    </g>
    <g id="line2d_37">
     <path d="M 72 102.934688 
L 82 102.934688 
L 92 102.934688 
" style="fill: none; stroke: #2ca02c; stroke-width: 1.5; stroke-linecap: square"/>
    </g>
    <g id="text_16">
     <!-- NACA 65(1)-212 -->
     <g transform="translate(100 106.434688) scale(0.1 -0.1)">
      <defs>
       <path id="DejaVuSans-35" d="M 691 4666 
L 3169 4666 
L 3169 4134 
L 1269 4134 
L 1269 2991 
Q 1406 3038 1543 3061 
Q 1681 3084 1819 3084 
Q 2600 3084 3056 2656 
Q 3513 2228 3513 1497 
Q 3513 744 3044 326 
Q 2575 -91 1722 -91 
Q 1428 -91 1123 -41 
Q 819 9 494 109 
L 494 744 
Q 775 591 1075 516 
Q 1375 441 1709 441 
Q 2250 441 2565 725 
Q 2881 1009 2881 1497 
Q 2881 1984 2565 2268 
Q 2250 2553 1709 2553 
Q 1456 2553 1204 2497 
Q 953 2441 691 2322 
L 691 4666 
z
" transform="scale(0.015625)"/>
       <path id="DejaVuSans-28" d="M 1984 4856 
Q 1566 4138 1362 3434 
Q 1159 2731 1159 2009 
Q 1159 1288 1364 580 
Q 1569 -128 1984 -844 
L 1484 -844 
Q 1016 -109 783 600 
Q 550 1309 550 2009 
Q 550 2706 781 3412 
Q 1013 4119 1484 4856 
L 1984 4856 
z
" transform="scale(0.015625)"/>
       <path id="DejaVuSans-29" d="M 513 4856 
L 1013 4856 
Q 1481 4119 1714 3412 
Q 1947 2706 1947 2009 
Q 1947 1309 1714 600 
Q 1481 -109 1013 -844 
L 513 -844 
Q 928 -128 1133 580 
Q 1338 1288 1338 2009 
Q 1338 2731 1133 3434 
Q 928 4138 513 4856 
z
" transform="scale(0.015625)"/>
       <path id="DejaVuSans-2d" d="M 313 2009 
L 1997 2009 
L 1997 1497 
L 313 1497 
L 313 2009 
z
" transform="scale(0.015625)"/>
      </defs>
      <use xlink:href="#DejaVuSans-4e"/>
      <use xlink:href="#DejaVuSans-41" x="74.804688"/>
      <use xlink:href="#DejaVuSans-43" x="141.462891"/>
      <use xlink:href="#DejaVuSans-41" x="211.287109"/>
      <use xlink:href="#DejaVuSans-20" x="279.695312"/>
      <use xlink:href="#DejaVuSans-36" x="311.482422"/>
      <use xlink:href="#DejaVuSans-35" x="375.105469"/>
      <use xlink:href="#DejaVuSans-28" x="438.728516"/>
      <use xlink:href="#DejaVuSans-31" x="477.742188"/>
      <use xlink:href="#DejaVuSans-29" x="541.365234"/>
      <use xlink:href="#DejaVuSans-2d" x="580.378906"/>
      <use xlink:href="#DejaVuSans-32" x="616.462891"/>
      <use xlink:href="#DejaVuSans-31" x="680.085938"/>
      <use xlink:href="#DejaVuSans-32" x="743.708984"/>
     </g>
    </g>
    <g id="line2d_38">
     <path d="M 72 117.612813 
L 82 117.612813 
L 92 117.612813 
" style="fill: none; stroke: #d62728; stroke-width: 1.5; stroke-linecap: square"/>
    </g>
    <g id="text_17">
     <!-- SC(2)-0714 -->
     <g transform="translate(100 121.112813) scale(0.1 -0.1)">
      <defs>
       <path id="DejaVuSans-53" d="M 3425 4513 
L 3425 3897 
Q 3066 4069 2747 4153 
Q 2428 4238 2131 4238 
Q 1616 4238 1336 4038 
Q 1056 3838 1056 3469 
Q 1056 3159 1242 3001 
Q 1428 2844 1947 2747 
L 2328 2669 
Q 3034 2534 3370 2195 
Q 3706 1856 3706 1288 
Q 3706 609 3251 259 
Q 2797 -91 1919 -91 
Q 1588 -91 1214 -16 
Q 841 59 441 206 
L 441 856 
Q 825 641 1194 531 
Q 1563 422 1919 422 
Q 2459 422 2753 634 
Q 3047 847 3047 1241 
Q 3047 1584 2836 1778 
Q 2625 1972 2144 2069 
L 1759 2144 
Q 1053 2284 737 2584 
Q 422 2884 422 3419 
Q 422 4038 858 4394 
Q 1294 4750 2059 4750 
Q 2388 4750 2728 4690 
Q 3069 4631 3425 4513 
z
" transform="scale(0.015625)"/>
       <path id="DejaVuSans-37" d="M 525 4666 
L 3525 4666 
L 3525 4397 
L 1831 0 
L 1172 0 
L 2766 4134 
L 525 4134 
L 525 4666 
z
" transform="scale(0.015625)"/>
      </defs>
      <use xlink:href="#DejaVuSans-53"/>
      <use xlink:href="#DejaVuSans-43" x="63.476562"/>
      <use xlink:href="#DejaVuSans-28" x="133.300781"/>
      <use xlink:href="#DejaVuSans-32" x="172.314453"/>
      <use xlink:href="#DejaVuSans-29" x="235.9375"/>
      <use xlink:href="#DejaVuSans-2d" x="274.951172"/>
      <use xlink:href="#DejaVuSans-30" x="311.035156"/>
      <use xlink:href="#DejaVuSans-37" x="374.658203"/>
      <use xlink:href="#DejaVuSans-31" x="438.28125"/>
      <use xlink:href="#DejaVuSans-34" x="501.904297"/>
     </g>
    </g>
   </g>
  </g>
 </g>
 <defs>
  <clipPath id="pa4ea62df92">
   <rect x="63" y="60.48" width="390.6" height="388.08"/>
  </clipPath>
 </defs>
</svg>
