<?xml version="1.0" encoding="utf-8" standalone="no"?>
<!DOCTYPE svg PUBLIC "-//W3C//DTD SVG 1.1//EN"
  "http://www.w3.org/Graphics/SVG/1.1/DTD/svg11.dtd">
<svg xmlns:xlink="http://www.w3.org/1999/xlink" width="504pt" height="504pt" viewBox="0 0 504 504" xmlns="http://www.w3.org/2000/svg" version="1.1">
 <metadata>
  <rdf:RDF xmlns:dc="http://purl.org/dc/elements/1.1/" xmlns:cc="http://creativecommons.org/ns#" xmlns:rdf="http://www.w3.org/1999/02/22-rdf-syntax-ns#">
   <cc:Work>
    <dc:type rdf:resource="http://purl.org/dc/dcmitype/StillImage"/>
    <dc:date>2024-10-17T15:04:40.914933</dc:date>
    <dc:format>image/svg+xml</dc:format>
    <dc:creator>
     <cc:Agent>
      <dc:title>Matplotlib v3.8.4, https://matplotlib.org/</dc:title>
     </cc:Agent>
    </dc:creator>
   </cc:Work>
  </rdf:RDF>
 </metadata>
 <defs>
  <style type="text/css">*{stroke-linejoin: round; stroke-linecap: butt}</style>
 </defs>
 <g id="figure_1">
  <g id="patch_1">
   <path d="M 0 504 
L 504 504 
L 504 0 
L 0 0 
z
" style="fill: #ffffff"/>
  </g>
  <g id="axes_1">
   <g id="patch_2">
    <path d="M 63 448.56 
L 453.6 448.56 
L 453.6 60.48 
L 63 60.48 
z
" style="fill: #ffffff"/>
   </g>
   <g id="matplotlib.axis_1">
    <g id="xtick_1">
     <g id="line2d_1">
      <path d="M 105.893725 448.56 
L 105.893725 60.48 
" clip-path="url(#p152fc45cc1)" style="fill: none; stroke: #b0b0b0; stroke-width: 0.8; stroke-linecap: square"/>
     </g>
     <g id="line2d_2">
      <defs>
       <path id="m53c9d08c25" d="M 0 0 
L 0 3.5 
" style="stroke: #000000; stroke-width: 0.8"/>
      </defs>
      <g>
       <use xlink:href="#m53c9d08c25" x="105.893725" y="448.56" style="stroke: #000000; stroke-width: 0.8"/>
      </g>
     </g>
     <g id="text_1">
      <!-- −4 -->
      <g transform="translate(98.522631 463.158437) scale(0.1 -0.1)">
       <defs>
        <path id="DejaVuSans-2212" d="M 678 2272 
L 4684 2272 
L 4684 1741 
L 678 1741 
L 678 2272 
z
" transform="scale(0.015625)"/>
        <path id="DejaVuSans-34" d="M 2419 4116 
L 825 1625 
L 2419 1625 
L 2419 4116 
z
M 2253 4666 
L 3047 4666 
L 3047 1625 
L 3713 1625 
L 3713 1100 
L 3047 1100 
L 3047 0 
L 2419 0 
L 2419 1100 
L 313 1100 
L 313 1709 
L 2253 4666 
z
" transform="scale(0.015625)"/>
       </defs>
       <use xlink:href="#DejaVuSans-2212"/>
       <use xlink:href="#DejaVuSans-34" x="83.789062"/>
      </g>
     </g>
    </g>
    <g id="xtick_2">
     <g id="line2d_3">
      <path d="M 168.741673 448.56 
L 168.741673 60.48 
" clip-path="url(#p152fc45cc1)" style="fill: none; stroke: #b0b0b0; stroke-width: 0.8; stroke-linecap: square"/>
     </g>
     <g id="line2d_4">
      <g>
       <use xlink:href="#m53c9d08c25" x="168.741673" y="448.56" style="stroke: #000000; stroke-width: 0.8"/>
      </g>
     </g>
     <g id="text_2">
      <!-- −2 -->
      <g transform="translate(161.37058 463.158437) scale(0.1 -0.1)">
       <defs>
        <path id="DejaVuSans-32" d="M 1228 531 
L 3431 531 
L 3431 0 
L 469 0 
L 469 531 
Q 828 903 1448 1529 
Q 2069 2156 2228 2338 
Q 2531 2678 2651 2914 
Q 2772 3150 2772 3378 
Q 2772 3750 2511 3984 
Q 2250 4219 1831 4219 
Q 1534 4219 1204 4116 
Q 875 4013 500 3803 
L 500 4441 
Q 881 4594 1212 4672 
Q 1544 4750 1819 4750 
Q 2544 4750 2975 4387 
Q 3406 4025 3406 3419 
Q 3406 3131 3298 2873 
Q 3191 2616 2906 2266 
Q 2828 2175 2409 1742 
Q 1991 1309 1228 531 
z
" transform="scale(0.015625)"/>
       </defs>
       <use xlink:href="#DejaVuSans-2212"/>
       <use xlink:href="#DejaVuSans-32" x="83.789062"/>
      </g>
     </g>
    </g>
    <g id="xtick_3">
     <g id="line2d_5">
      <path d="M 231.589622 448.56 
L 231.589622 60.48 
" clip-path="url(#p152fc45cc1)" style="fill: none; stroke: #b0b0b0; stroke-width: 0.8; stroke-linecap: square"/>
     </g>
     <g id="line2d_6">
      <g>
       <use xlink:href="#m53c9d08c25" x="231.589622" y="448.56" style="stroke: #000000; stroke-width: 0.8"/>
      </g>
     </g>
     <g id="text_3">
      <!-- 0 -->
      <g transform="translate(228.408372 463.158437) scale(0.1 -0.1)">
       <defs>
        <path id="DejaVuSans-30" d="M 2034 4250 
Q 1547 4250 1301 3770 
Q 1056 3291 1056 2328 
Q 1056 1369 1301 889 
Q 1547 409 2034 409 
Q 2525 409 2770 889 
Q 3016 1369 3016 2328 
Q 3016 3291 2770 3770 
Q 2525 4250 2034 4250 
z
M 2034 4750 
Q 2819 4750 3233 4129 
Q 3647 3509 3647 2328 
Q 3647 1150 3233 529 
Q 2819 -91 2034 -91 
Q 1250 -91 836 529 
Q 422 1150 422 2328 
Q 422 3509 836 4129 
Q 1250 4750 2034 4750 
z
" transform="scale(0.015625)"/>
       </defs>
       <use xlink:href="#DejaVuSans-30"/>
      </g>
     </g>
    </g>
    <g id="xtick_4">
     <g id="line2d_7">
      <path d="M 294.43757 448.56 
L 294.43757 60.48 
" clip-path="url(#p152fc45cc1)" style="fill: none; stroke: #b0b0b0; stroke-width: 0.8; stroke-linecap: square"/>
     </g>
     <g id="line2d_8">
      <g>
       <use xlink:href="#m53c9d08c25" x="294.43757" y="448.56" style="stroke: #000000; stroke-width: 0.8"/>
      </g>
     </g>
     <g id="text_4">
      <!-- 2 -->
      <g transform="translate(291.25632 463.158437) scale(0.1 -0.1)">
       <use xlink:href="#DejaVuSans-32"/>
      </g>
     </g>
    </g>
    <g id="xtick_5">
     <g id="line2d_9">
      <path d="M 357.285519 448.56 
L 357.285519 60.48 
" clip-path="url(#p152fc45cc1)" style="fill: none; stroke: #b0b0b0; stroke-width: 0.8; stroke-linecap: square"/>
     </g>
     <g id="line2d_10">
      <g>
       <use xlink:href="#m53c9d08c25" x="357.285519" y="448.56" style="stroke: #000000; stroke-width: 0.8"/>
      </g>
     </g>
     <g id="text_5">
      <!-- 4 -->
      <g transform="translate(354.104269 463.158437) scale(0.1 -0.1)">
       <use xlink:href="#DejaVuSans-34"/>
      </g>
     </g>
    </g>
    <g id="xtick_6">
     <g id="line2d_11">
      <path d="M 420.133467 448.56 
L 420.133467 60.48 
" clip-path="url(#p152fc45cc1)" style="fill: none; stroke: #b0b0b0; stroke-width: 0.8; stroke-linecap: square"/>
     </g>
     <g id="line2d_12">
      <g>
       <use xlink:href="#m53c9d08c25" x="420.133467" y="448.56" style="stroke: #000000; stroke-width: 0.8"/>
      </g>
     </g>
     <g id="text_6">
      <!-- 6 -->
      <g transform="translate(416.952217 463.158437) scale(0.1 -0.1)">
       <defs>
        <path id="DejaVuSans-36" d="M 2113 2584 
Q 1688 2584 1439 2293 
Q 1191 2003 1191 1497 
Q 1191 994 1439 701 
Q 1688 409 2113 409 
Q 2538 409 2786 701 
Q 3034 994 3034 1497 
Q 3034 2003 2786 2293 
Q 2538 2584 2113 2584 
z
M 3366 4563 
L 3366 3988 
Q 3128 4100 2886 4159 
Q 2644 4219 2406 4219 
Q 1781 4219 1451 3797 
Q 1122 3375 1075 2522 
Q 1259 2794 1537 2939 
Q 1816 3084 2150 3084 
Q 2853 3084 3261 2657 
Q 3669 2231 3669 1497 
Q 3669 778 3244 343 
Q 2819 -91 2113 -91 
Q 1303 -91 875 529 
Q 447 1150 447 2328 
Q 447 3434 972 4092 
Q 1497 4750 2381 4750 
Q 2619 4750 2861 4703 
Q 3103 4656 3366 4563 
z
" transform="scale(0.015625)"/>
       </defs>
       <use xlink:href="#DejaVuSans-36"/>
      </g>
     </g>
    </g>
    <g id="text_7">
     <!-- Angle of Attack (AoA)  $\alpha \ [\deg]$ -->
     <g transform="translate(183.2 476.838125) scale(0.1 -0.1)">
      <defs>
       <path id="DejaVuSans-41" d="M 2188 4044 
L 1331 1722 
L 3047 1722 
L 2188 4044 
z
M 1831 4666 
L 2547 4666 
L 4325 0 
L 3669 0 
L 3244 1197 
L 1141 1197 
L 716 0 
L 50 0 
L 1831 4666 
z
" transform="scale(0.015625)"/>
       <path id="DejaVuSans-6e" d="M 3513 2113 
L 3513 0 
L 2938 0 
L 2938 2094 
Q 2938 2591 2744 2837 
Q 2550 3084 2163 3084 
Q 1697 3084 1428 2787 
Q 1159 2491 1159 1978 
L 1159 0 
L 581 0 
L 581 3500 
L 1159 3500 
L 1159 2956 
Q 1366 3272 1645 3428 
Q 1925 3584 2291 3584 
Q 2894 3584 3203 3211 
Q 3513 2838 3513 2113 
z
" transform="scale(0.015625)"/>
       <path id="DejaVuSans-67" d="M 2906 1791 
Q 2906 2416 2648 2759 
Q 2391 3103 1925 3103 
Q 1463 3103 1205 2759 
Q 947 2416 947 1791 
Q 947 1169 1205 825 
Q 1463 481 1925 481 
Q 2391 481 2648 825 
Q 2906 1169 2906 1791 
z
M 3481 434 
Q 3481 -459 3084 -895 
Q 2688 -1331 1869 -1331 
Q 1566 -1331 1297 -1286 
Q 1028 -1241 775 -1147 
L 775 -588 
Q 1028 -725 1275 -790 
Q 1522 -856 1778 -856 
Q 2344 -856 2625 -561 
Q 2906 -266 2906 331 
L 2906 616 
Q 2728 306 2450 153 
Q 2172 0 1784 0 
Q 1141 0 747 490 
Q 353 981 353 1791 
Q 353 2603 747 3093 
Q 1141 3584 1784 3584 
Q 2172 3584 2450 3431 
Q 2728 3278 2906 2969 
L 2906 3500 
L 3481 3500 
L 3481 434 
z
" transform="scale(0.015625)"/>
       <path id="DejaVuSans-6c" d="M 603 4863 
L 1178 4863 
L 1178 0 
L 603 0 
L 603 4863 
z
" transform="scale(0.015625)"/>
       <path id="DejaVuSans-65" d="M 3597 1894 
L 3597 1613 
L 953 1613 
Q 991 1019 1311 708 
Q 1631 397 2203 397 
Q 2534 397 2845 478 
Q 3156 559 3463 722 
L 3463 178 
Q 3153 47 2828 -22 
Q 2503 -91 2169 -91 
Q 1331 -91 842 396 
Q 353 884 353 1716 
Q 353 2575 817 3079 
Q 1281 3584 2069 3584 
Q 2775 3584 3186 3129 
Q 3597 2675 3597 1894 
z
M 3022 2063 
Q 3016 2534 2758 2815 
Q 2500 3097 2075 3097 
Q 1594 3097 1305 2825 
Q 1016 2553 972 2059 
L 3022 2063 
z
" transform="scale(0.015625)"/>
       <path id="DejaVuSans-20" transform="scale(0.015625)"/>
       <path id="DejaVuSans-6f" d="M 1959 3097 
Q 1497 3097 1228 2736 
Q 959 2375 959 1747 
Q 959 1119 1226 758 
Q 1494 397 1959 397 
Q 2419 397 2687 759 
Q 2956 1122 2956 1747 
Q 2956 2369 2687 2733 
Q 2419 3097 1959 3097 
z
M 1959 3584 
Q 2709 3584 3137 3096 
Q 3566 2609 3566 1747 
Q 3566 888 3137 398 
Q 2709 -91 1959 -91 
Q 1206 -91 779 398 
Q 353 888 353 1747 
Q 353 2609 779 3096 
Q 1206 3584 1959 3584 
z
" transform="scale(0.015625)"/>
       <path id="DejaVuSans-66" d="M 2375 4863 
L 2375 4384 
L 1825 4384 
Q 1516 4384 1395 4259 
Q 1275 4134 1275 3809 
L 1275 3500 
L 2222 3500 
L 2222 3053 
L 1275 3053 
L 1275 0 
L 697 0 
L 697 3053 
L 147 3053 
L 147 3500 
L 697 3500 
L 697 3744 
Q 697 4328 969 4595 
Q 1241 4863 1831 4863 
L 2375 4863 
z
" transform="scale(0.015625)"/>
       <path id="DejaVuSans-74" d="M 1172 4494 
L 1172 3500 
L 2356 3500 
L 2356 3053 
L 1172 3053 
L 1172 1153 
Q 1172 725 1289 603 
Q 1406 481 1766 481 
L 2356 481 
L 2356 0 
L 1766 0 
Q 1100 0 847 248 
Q 594 497 594 1153 
L 594 3053 
L 172 3053 
L 172 3500 
L 594 3500 
L 594 4494 
L 1172 4494 
z
" transform="scale(0.015625)"/>
       <path id="DejaVuSans-61" d="M 2194 1759 
Q 1497 1759 1228 1600 
Q 959 1441 959 1056 
Q 959 750 1161 570 
Q 1363 391 1709 391 
Q 2188 391 2477 730 
Q 2766 1069 2766 1631 
L 2766 1759 
L 2194 1759 
z
M 3341 1997 
L 3341 0 
L 2766 0 
L 2766 531 
Q 2569 213 2275 61 
Q 1981 -91 1556 -91 
Q 1019 -91 701 211 
Q 384 513 384 1019 
Q 384 1609 779 1909 
Q 1175 2209 1959 2209 
L 2766 2209 
L 2766 2266 
Q 2766 2663 2505 2880 
Q 2244 3097 1772 3097 
Q 1472 3097 1187 3025 
Q 903 2953 641 2809 
L 641 3341 
Q 956 3463 1253 3523 
Q 1550 3584 1831 3584 
Q 2591 3584 2966 3190 
Q 3341 2797 3341 1997 
z
" transform="scale(0.015625)"/>
       <path id="DejaVuSans-63" d="M 3122 3366 
L 3122 2828 
Q 2878 2963 2633 3030 
Q 2388 3097 2138 3097 
Q 1578 3097 1268 2742 
Q 959 2388 959 1747 
Q 959 1106 1268 751 
Q 1578 397 2138 397 
Q 2388 397 2633 464 
Q 2878 531 3122 666 
L 3122 134 
Q 2881 22 2623 -34 
Q 2366 -91 2075 -91 
Q 1284 -91 818 406 
Q 353 903 353 1747 
Q 353 2603 823 3093 
Q 1294 3584 2113 3584 
Q 2378 3584 2631 3529 
Q 2884 3475 3122 3366 
z
" transform="scale(0.015625)"/>
       <path id="DejaVuSans-6b" d="M 581 4863 
L 1159 4863 
L 1159 1991 
L 2875 3500 
L 3609 3500 
L 1753 1863 
L 3688 0 
L 2938 0 
L 1159 1709 
L 1159 0 
L 581 0 
L 581 4863 
z
" transform="scale(0.015625)"/>
       <path id="DejaVuSans-28" d="M 1984 4856 
Q 1566 4138 1362 3434 
Q 1159 2731 1159 2009 
Q 1159 1288 1364 580 
Q 1569 -128 1984 -844 
L 1484 -844 
Q 1016 -109 783 600 
Q 550 1309 550 2009 
Q 550 2706 781 3412 
Q 1013 4119 1484 4856 
L 1984 4856 
z
" transform="scale(0.015625)"/>
       <path id="DejaVuSans-29" d="M 513 4856 
L 1013 4856 
Q 1481 4119 1714 3412 
Q 1947 2706 1947 2009 
Q 1947 1309 1714 600 
Q 1481 -109 1013 -844 
L 513 -844 
Q 928 -128 1133 580 
Q 1338 1288 1338 2009 
Q 1338 2731 1133 3434 
Q 928 4138 513 4856 
z
" transform="scale(0.015625)"/>
       <path id="DejaVuSans-Oblique-3b1" d="M 2619 1628 
L 2622 2350 
Q 2625 3088 2069 3091 
Q 1653 3094 1394 2747 
Q 1069 2319 959 1747 
Q 825 1059 994 731 
Q 1169 397 1547 397 
Q 1966 397 2319 1063 
L 2619 1628 
z
M 2166 3578 
Q 3141 3594 3128 2584 
Q 3128 2584 3616 3500 
L 4128 3500 
L 3119 1603 
L 3109 919 
Q 3109 766 3194 638 
Q 3291 488 3391 488 
L 3669 488 
L 3575 0 
L 3228 0 
Q 2934 0 2722 263 
Q 2622 394 2619 669 
Q 2416 334 2066 50 
Q 1900 -81 1453 -78 
Q 722 -72 456 397 
Q 184 884 353 1747 
Q 534 2675 1009 3097 
Q 1544 3569 2166 3578 
z
" transform="scale(0.015625)"/>
       <path id="DejaVuSans-5b" d="M 550 4863 
L 1875 4863 
L 1875 4416 
L 1125 4416 
L 1125 -397 
L 1875 -397 
L 1875 -844 
L 550 -844 
L 550 4863 
z
" transform="scale(0.015625)"/>
       <path id="DejaVuSans-64" d="M 2906 2969 
L 2906 4863 
L 3481 4863 
L 3481 0 
L 2906 0 
L 2906 525 
Q 2725 213 2448 61 
Q 2172 -91 1784 -91 
Q 1150 -91 751 415 
Q 353 922 353 1747 
Q 353 2572 751 3078 
Q 1150 3584 1784 3584 
Q 2172 3584 2448 3432 
Q 2725 3281 2906 2969 
z
M 947 1747 
Q 947 1113 1208 752 
Q 1469 391 1925 391 
Q 2381 391 2643 752 
Q 2906 1113 2906 1747 
Q 2906 2381 2643 2742 
Q 2381 3103 1925 3103 
Q 1469 3103 1208 2742 
Q 947 2381 947 1747 
z
" transform="scale(0.015625)"/>
       <path id="DejaVuSans-5d" d="M 1947 4863 
L 1947 -844 
L 622 -844 
L 622 -397 
L 1369 -397 
L 1369 4416 
L 622 4416 
L 622 4863 
L 1947 4863 
z
" transform="scale(0.015625)"/>
      </defs>
      <use xlink:href="#DejaVuSans-41" transform="translate(0 0.015625)"/>
      <use xlink:href="#DejaVuSans-6e" transform="translate(68.408203 0.015625)"/>
      <use xlink:href="#DejaVuSans-67" transform="translate(131.787109 0.015625)"/>
      <use xlink:href="#DejaVuSans-6c" transform="translate(195.263672 0.015625)"/>
      <use xlink:href="#DejaVuSans-65" transform="translate(223.046875 0.015625)"/>
      <use xlink:href="#DejaVuSans-20" transform="translate(284.570312 0.015625)"/>
      <use xlink:href="#DejaVuSans-6f" transform="translate(316.357422 0.015625)"/>
      <use xlink:href="#DejaVuSans-66" transform="translate(377.539062 0.015625)"/>
      <use xlink:href="#DejaVuSans-20" transform="translate(412.744141 0.015625)"/>
      <use xlink:href="#DejaVuSans-41" transform="translate(444.53125 0.015625)"/>
      <use xlink:href="#DejaVuSans-74" transform="translate(512.939453 0.015625)"/>
      <use xlink:href="#DejaVuSans-74" transform="translate(552.148438 0.015625)"/>
      <use xlink:href="#DejaVuSans-61" transform="translate(591.357422 0.015625)"/>
      <use xlink:href="#DejaVuSans-63" transform="translate(652.636719 0.015625)"/>
      <use xlink:href="#DejaVuSans-6b" transform="translate(707.617188 0.015625)"/>
      <use xlink:href="#DejaVuSans-20" transform="translate(765.527344 0.015625)"/>
      <use xlink:href="#DejaVuSans-28" transform="translate(797.314453 0.015625)"/>
      <use xlink:href="#DejaVuSans-41" transform="translate(836.328125 0.015625)"/>
      <use xlink:href="#DejaVuSans-6f" transform="translate(904.736328 0.015625)"/>
      <use xlink:href="#DejaVuSans-41" transform="translate(965.917969 0.015625)"/>
      <use xlink:href="#DejaVuSans-29" transform="translate(1034.326172 0.015625)"/>
      <use xlink:href="#DejaVuSans-20" transform="translate(1073.339844 0.015625)"/>
      <use xlink:href="#DejaVuSans-20" transform="translate(1105.126953 0.015625)"/>
      <use xlink:href="#DejaVuSans-Oblique-3b1" transform="translate(1136.914062 0.015625)"/>
      <use xlink:href="#DejaVuSans-5b" transform="translate(1235.30241 0.015625)"/>
      <use xlink:href="#DejaVuSans-64" transform="translate(1274.316082 0.015625)"/>
      <use xlink:href="#DejaVuSans-65" transform="translate(1337.792644 0.015625)"/>
      <use xlink:href="#DejaVuSans-67" transform="translate(1399.316082 0.015625)"/>
      <use xlink:href="#DejaVuSans-5d" transform="translate(1462.792644 0.015625)"/>
     </g>
    </g>
   </g>
   <g id="matplotlib.axis_2">
    <g id="ytick_1">
     <g id="line2d_13">
      <path d="M 63 448.56 
L 453.6 448.56 
" clip-path="url(#p152fc45cc1)" style="fill: none; stroke: #b0b0b0; stroke-width: 0.8; stroke-linecap: square"/>
     </g>
     <g id="line2d_14">
      <defs>
       <path id="mcb4cefdbee" d="M 0 0 
L -3.5 0 
" style="stroke: #000000; stroke-width: 0.8"/>
      </defs>
      <g>
       <use xlink:href="#mcb4cefdbee" x="63" y="448.56" style="stroke: #000000; stroke-width: 0.8"/>
      </g>
     </g>
     <g id="text_8">
      <!-- −0.50 -->
      <g transform="translate(25.354687 452.359219) scale(0.1 -0.1)">
       <defs>
        <path id="DejaVuSans-2e" d="M 684 794 
L 1344 794 
L 1344 0 
L 684 0 
L 684 794 
z
" transform="scale(0.015625)"/>
        <path id="DejaVuSans-35" d="M 691 4666 
L 3169 4666 
L 3169 4134 
L 1269 4134 
L 1269 2991 
Q 1406 3038 1543 3061 
Q 1681 3084 1819 3084 
Q 2600 3084 3056 2656 
Q 3513 2228 3513 1497 
Q 3513 744 3044 326 
Q 2575 -91 1722 -91 
Q 1428 -91 1123 -41 
Q 819 9 494 109 
L 494 744 
Q 775 591 1075 516 
Q 1375 441 1709 441 
Q 2250 441 2565 725 
Q 2881 1009 2881 1497 
Q 2881 1984 2565 2268 
Q 2250 2553 1709 2553 
Q 1456 2553 1204 2497 
Q 953 2441 691 2322 
L 691 4666 
z
" transform="scale(0.015625)"/>
       </defs>
       <use xlink:href="#DejaVuSans-2212"/>
       <use xlink:href="#DejaVuSans-30" x="83.789062"/>
       <use xlink:href="#DejaVuSans-2e" x="147.412109"/>
       <use xlink:href="#DejaVuSans-35" x="179.199219"/>
       <use xlink:href="#DejaVuSans-30" x="242.822266"/>
      </g>
     </g>
    </g>
    <g id="ytick_2">
     <g id="line2d_15">
      <path d="M 63 400.530297 
L 453.6 400.530297 
" clip-path="url(#p152fc45cc1)" style="fill: none; stroke: #b0b0b0; stroke-width: 0.8; stroke-linecap: square"/>
     </g>
     <g id="line2d_16">
      <g>
       <use xlink:href="#mcb4cefdbee" x="63" y="400.530297" style="stroke: #000000; stroke-width: 0.8"/>
      </g>
     </g>
     <g id="text_9">
      <!-- −0.25 -->
      <g transform="translate(25.354687 404.329516) scale(0.1 -0.1)">
       <use xlink:href="#DejaVuSans-2212"/>
       <use xlink:href="#DejaVuSans-30" x="83.789062"/>
       <use xlink:href="#DejaVuSans-2e" x="147.412109"/>
       <use xlink:href="#DejaVuSans-32" x="179.199219"/>
       <use xlink:href="#DejaVuSans-35" x="242.822266"/>
      </g>
     </g>
    </g>
    <g id="ytick_3">
     <g id="line2d_17">
      <path d="M 63 352.500594 
L 453.6 352.500594 
" clip-path="url(#p152fc45cc1)" style="fill: none; stroke: #b0b0b0; stroke-width: 0.8; stroke-linecap: square"/>
     </g>
     <g id="line2d_18">
      <g>
       <use xlink:href="#mcb4cefdbee" x="63" y="352.500594" style="stroke: #000000; stroke-width: 0.8"/>
      </g>
     </g>
     <g id="text_10">
      <!-- 0.00 -->
      <g transform="translate(33.734375 356.299813) scale(0.1 -0.1)">
       <use xlink:href="#DejaVuSans-30"/>
       <use xlink:href="#DejaVuSans-2e" x="63.623047"/>
       <use xlink:href="#DejaVuSans-30" x="95.410156"/>
       <use xlink:href="#DejaVuSans-30" x="159.033203"/>
      </g>
     </g>
    </g>
    <g id="ytick_4">
     <g id="line2d_19">
      <path d="M 63 304.470891 
L 453.6 304.470891 
" clip-path="url(#p152fc45cc1)" style="fill: none; stroke: #b0b0b0; stroke-width: 0.8; stroke-linecap: square"/>
     </g>
     <g id="line2d_20">
      <g>
       <use xlink:href="#mcb4cefdbee" x="63" y="304.470891" style="stroke: #000000; stroke-width: 0.8"/>
      </g>
     </g>
     <g id="text_11">
      <!-- 0.25 -->
      <g transform="translate(33.734375 308.27011) scale(0.1 -0.1)">
       <use xlink:href="#DejaVuSans-30"/>
       <use xlink:href="#DejaVuSans-2e" x="63.623047"/>
       <use xlink:href="#DejaVuSans-32" x="95.410156"/>
       <use xlink:href="#DejaVuSans-35" x="159.033203"/>
      </g>
     </g>
    </g>
    <g id="ytick_5">
     <g id="line2d_21">
      <path d="M 63 256.441188 
L 453.6 256.441188 
" clip-path="url(#p152fc45cc1)" style="fill: none; stroke: #b0b0b0; stroke-width: 0.8; stroke-linecap: square"/>
     </g>
     <g id="line2d_22">
      <g>
       <use xlink:href="#mcb4cefdbee" x="63" y="256.441188" style="stroke: #000000; stroke-width: 0.8"/>
      </g>
     </g>
     <g id="text_12">
      <!-- 0.50 -->
      <g transform="translate(33.734375 260.240407) scale(0.1 -0.1)">
       <use xlink:href="#DejaVuSans-30"/>
       <use xlink:href="#DejaVuSans-2e" x="63.623047"/>
       <use xlink:href="#DejaVuSans-35" x="95.410156"/>
       <use xlink:href="#DejaVuSans-30" x="159.033203"/>
      </g>
     </g>
    </g>
    <g id="ytick_6">
     <g id="line2d_23">
      <path d="M 63 208.411485 
L 453.6 208.411485 
" clip-path="url(#p152fc45cc1)" style="fill: none; stroke: #b0b0b0; stroke-width: 0.8; stroke-linecap: square"/>
     </g>
     <g id="line2d_24">
      <g>
       <use xlink:href="#mcb4cefdbee" x="63" y="208.411485" style="stroke: #000000; stroke-width: 0.8"/>
      </g>
     </g>
     <g id="text_13">
      <!-- 0.75 -->
      <g transform="translate(33.734375 212.210704) scale(0.1 -0.1)">
       <defs>
        <path id="DejaVuSans-37" d="M 525 4666 
L 3525 4666 
L 3525 4397 
L 1831 0 
L 1172 0 
L 2766 4134 
L 525 4134 
L 525 4666 
z
" transform="scale(0.015625)"/>
       </defs>
       <use xlink:href="#DejaVuSans-30"/>
       <use xlink:href="#DejaVuSans-2e" x="63.623047"/>
       <use xlink:href="#DejaVuSans-37" x="95.410156"/>
       <use xlink:href="#DejaVuSans-35" x="159.033203"/>
      </g>
     </g>
    </g>
    <g id="ytick_7">
     <g id="line2d_25">
      <path d="M 63 160.381782 
L 453.6 160.381782 
" clip-path="url(#p152fc45cc1)" style="fill: none; stroke: #b0b0b0; stroke-width: 0.8; stroke-linecap: square"/>
     </g>
     <g id="line2d_26">
      <g>
       <use xlink:href="#mcb4cefdbee" x="63" y="160.381782" style="stroke: #000000; stroke-width: 0.8"/>
      </g>
     </g>
     <g id="text_14">
      <!-- 1.00 -->
      <g transform="translate(33.734375 164.181001) scale(0.1 -0.1)">
       <defs>
        <path id="DejaVuSans-31" d="M 794 531 
L 1825 531 
L 1825 4091 
L 703 3866 
L 703 4441 
L 1819 4666 
L 2450 4666 
L 2450 531 
L 3481 531 
L 3481 0 
L 794 0 
L 794 531 
z
" transform="scale(0.015625)"/>
       </defs>
       <use xlink:href="#DejaVuSans-31"/>
       <use xlink:href="#DejaVuSans-2e" x="63.623047"/>
       <use xlink:href="#DejaVuSans-30" x="95.410156"/>
       <use xlink:href="#DejaVuSans-30" x="159.033203"/>
      </g>
     </g>
    </g>
    <g id="ytick_8">
     <g id="line2d_27">
      <path d="M 63 112.352079 
L 453.6 112.352079 
" clip-path="url(#p152fc45cc1)" style="fill: none; stroke: #b0b0b0; stroke-width: 0.8; stroke-linecap: square"/>
     </g>
     <g id="line2d_28">
      <g>
       <use xlink:href="#mcb4cefdbee" x="63" y="112.352079" style="stroke: #000000; stroke-width: 0.8"/>
      </g>
     </g>
     <g id="text_15">
      <!-- 1.25 -->
      <g transform="translate(33.734375 116.151298) scale(0.1 -0.1)">
       <use xlink:href="#DejaVuSans-31"/>
       <use xlink:href="#DejaVuSans-2e" x="63.623047"/>
       <use xlink:href="#DejaVuSans-32" x="95.410156"/>
       <use xlink:href="#DejaVuSans-35" x="159.033203"/>
      </g>
     </g>
    </g>
    <g id="ytick_9">
     <g id="line2d_29">
      <path d="M 63 64.322376 
L 453.6 64.322376 
" clip-path="url(#p152fc45cc1)" style="fill: none; stroke: #b0b0b0; stroke-width: 0.8; stroke-linecap: square"/>
     </g>
     <g id="line2d_30">
      <g>
       <use xlink:href="#mcb4cefdbee" x="63" y="64.322376" style="stroke: #000000; stroke-width: 0.8"/>
      </g>
     </g>
     <g id="text_16">
      <!-- 1.50 -->
      <g transform="translate(33.734375 68.121595) scale(0.1 -0.1)">
       <use xlink:href="#DejaVuSans-31"/>
       <use xlink:href="#DejaVuSans-2e" x="63.623047"/>
       <use xlink:href="#DejaVuSans-35" x="95.410156"/>
       <use xlink:href="#DejaVuSans-30" x="159.033203"/>
      </g>
     </g>
    </g>
    <g id="text_17">
     <!-- Lift Coefficient  $C_l \ [-]$ -->
     <g transform="translate(19.275 308.42) rotate(-90) scale(0.1 -0.1)">
      <defs>
       <path id="DejaVuSans-4c" d="M 628 4666 
L 1259 4666 
L 1259 531 
L 3531 531 
L 3531 0 
L 628 0 
L 628 4666 
z
" transform="scale(0.015625)"/>
       <path id="DejaVuSans-69" d="M 603 3500 
L 1178 3500 
L 1178 0 
L 603 0 
L 603 3500 
z
M 603 4863 
L 1178 4863 
L 1178 4134 
L 603 4134 
L 603 4863 
z
" transform="scale(0.015625)"/>
       <path id="DejaVuSans-43" d="M 4122 4306 
L 4122 3641 
Q 3803 3938 3442 4084 
Q 3081 4231 2675 4231 
Q 1875 4231 1450 3742 
Q 1025 3253 1025 2328 
Q 1025 1406 1450 917 
Q 1875 428 2675 428 
Q 3081 428 3442 575 
Q 3803 722 4122 1019 
L 4122 359 
Q 3791 134 3420 21 
Q 3050 -91 2638 -91 
Q 1578 -91 968 557 
Q 359 1206 359 2328 
Q 359 3453 968 4101 
Q 1578 4750 2638 4750 
Q 3056 4750 3426 4639 
Q 3797 4528 4122 4306 
z
" transform="scale(0.015625)"/>
       <path id="DejaVuSans-Oblique-43" d="M 4447 4306 
L 4319 3641 
Q 4019 3944 3683 4091 
Q 3347 4238 2956 4238 
Q 2422 4238 2017 3981 
Q 1613 3725 1319 3200 
Q 1131 2863 1032 2486 
Q 934 2109 934 1728 
Q 934 1091 1264 756 
Q 1594 422 2222 422 
Q 2656 422 3056 561 
Q 3456 700 3834 978 
L 3688 231 
Q 3316 72 2936 -9 
Q 2556 -91 2175 -91 
Q 1278 -91 773 396 
Q 269 884 269 1753 
Q 269 2309 461 2846 
Q 653 3384 1013 3828 
Q 1394 4300 1883 4525 
Q 2372 4750 3022 4750 
Q 3422 4750 3780 4639 
Q 4138 4528 4447 4306 
z
" transform="scale(0.015625)"/>
       <path id="DejaVuSans-Oblique-6c" d="M 1172 4863 
L 1747 4863 
L 800 0 
L 225 0 
L 1172 4863 
z
" transform="scale(0.015625)"/>
      </defs>
      <use xlink:href="#DejaVuSans-4c" transform="translate(0 0.015625)"/>
      <use xlink:href="#DejaVuSans-69" transform="translate(55.712891 0.015625)"/>
      <use xlink:href="#DejaVuSans-66" transform="translate(83.496094 0.015625)"/>
      <use xlink:href="#DejaVuSans-74" transform="translate(118.701172 0.015625)"/>
      <use xlink:href="#DejaVuSans-20" transform="translate(157.910156 0.015625)"/>
      <use xlink:href="#DejaVuSans-43" transform="translate(189.697266 0.015625)"/>
      <use xlink:href="#DejaVuSans-6f" transform="translate(259.521484 0.015625)"/>
      <use xlink:href="#DejaVuSans-65" transform="translate(320.703125 0.015625)"/>
      <use xlink:href="#DejaVuSans-66" transform="translate(382.226562 0.015625)"/>
      <use xlink:href="#DejaVuSans-66" transform="translate(417.431641 0.015625)"/>
      <use xlink:href="#DejaVuSans-69" transform="translate(452.636719 0.015625)"/>
      <use xlink:href="#DejaVuSans-63" transform="translate(480.419922 0.015625)"/>
      <use xlink:href="#DejaVuSans-69" transform="translate(535.400391 0.015625)"/>
      <use xlink:href="#DejaVuSans-65" transform="translate(563.183594 0.015625)"/>
      <use xlink:href="#DejaVuSans-6e" transform="translate(624.707031 0.015625)"/>
      <use xlink:href="#DejaVuSans-74" transform="translate(688.085938 0.015625)"/>
      <use xlink:href="#DejaVuSans-20" transform="translate(727.294922 0.015625)"/>
      <use xlink:href="#DejaVuSans-20" transform="translate(759.082031 0.015625)"/>
      <use xlink:href="#DejaVuSans-Oblique-43" transform="translate(790.869141 0.015625)"/>
      <use xlink:href="#DejaVuSans-Oblique-6c" transform="translate(860.693359 -16.390625) scale(0.7)"/>
      <use xlink:href="#DejaVuSans-5b" transform="translate(915.346355 0.015625)"/>
      <use xlink:href="#DejaVuSans-2212" transform="translate(954.360027 0.015625)"/>
      <use xlink:href="#DejaVuSans-5d" transform="translate(1038.149089 0.015625)"/>
     </g>
    </g>
   </g>
   <g id="line2d_31">
    <path d="M 63 352.500594 
L 453.6 352.500594 
" clip-path="url(#p152fc45cc1)" style="fill: none; stroke: #000000; stroke-linecap: square"/>
   </g>
   <g id="line2d_32">
    <path d="M 231.589622 448.56 
L 231.589622 60.48 
" clip-path="url(#p152fc45cc1)" style="fill: none; stroke: #000000; stroke-linecap: square"/>
   </g>
   <g id="line2d_33">
    <path d="M 184.45366 335.056206 
L 187.596058 331.982305 
L 190.738455 329.004463 
L 193.880853 326.026622 
L 197.02325 323.202475 
L 200.165648 320.166998 
L 203.308045 317.246792 
L 206.450442 314.480281 
L 209.59284 311.50244 
L 212.735237 308.582234 
L 215.877635 305.662028 
L 222.16243 299.725556 
L 225.304827 296.670867 
L 228.447224 293.750661 
L 231.589622 290.830455 
L 234.732019 289.773802 
L 237.874417 287.967885 
L 241.016814 286.008273 
L 244.159212 283.798907 
L 247.301609 281.243727 
L 250.444006 278.534851 
L 253.586404 275.422527 
L 256.728801 271.388032 
L 259.871199 266.623485 
L 263.013596 261.013616 
L 266.155994 254.981085 
L 269.298391 248.160867 
L 272.440788 241.724887 
L 275.583186 234.482008 
L 278.725583 227.3544 
L 281.867981 221.475564 
L 285.010378 219.035655 
L 288.152776 216.576535 
L 291.295173 214.136626 
L 294.43757 211.677505 
L 297.579968 209.218384 
L 300.722365 206.740051 
L 303.864763 204.280931 
L 307.00716 201.802598 
L 310.149558 199.381901 
L 313.291955 197.01884 
L 316.434352 194.67499 
L 319.57675 192.311929 
L 322.719147 189.987291 
L 325.861545 187.701077 
L 329.003942 185.491711 
L 332.14634 183.320768 
L 335.288737 181.18825 
L 338.431134 179.113366 
L 341.573532 177.057695 
L 344.715929 175.002024 
L 347.858327 172.984776 
L 351.000724 171.159648 
L 354.143121 169.987723 
L 357.285519 169.161612 
L 360.427916 168.52762 
L 363.570314 168.085747 
L 366.712711 167.91284 
L 369.855109 167.701509 
L 372.997506 167.240424 
L 376.139903 166.58722 
L 379.282301 166.010863 
L 382.424698 165.415295 
L 385.567096 165.511354 
L 388.709493 167.951263 
L 391.851891 170.295113 
L 394.994288 172.235513 
L 398.136685 173.369014 
L 401.279083 173.63798 
L 404.42148 173.349802 
" clip-path="url(#p152fc45cc1)" style="fill: none; stroke: #1f77b4; stroke-width: 1.5; stroke-linecap: square"/>
   </g>
   <g id="line2d_34">
    <path d="M 63 352.500594 
L 453.6 352.500594 
" clip-path="url(#p152fc45cc1)" style="fill: none; stroke: #000000; stroke-linecap: square"/>
   </g>
   <g id="line2d_35">
    <path d="M 231.589622 448.56 
L 231.589622 60.48 
" clip-path="url(#p152fc45cc1)" style="fill: none; stroke: #000000; stroke-linecap: square"/>
   </g>
   <g id="line2d_36">
    <path d="M 156.172084 370.406067 
L 159.314481 366.832657 
L 165.599276 359.743473 
L 168.741673 356.208487 
L 171.884071 352.519806 
L 178.168866 345.449834 
L 181.311263 341.876424 
L 184.45366 338.187743 
L 187.596058 334.633545 
L 190.738455 331.11777 
L 193.880853 327.64042 
L 197.02325 324.06701 
L 200.165648 320.435964 
L 203.308045 316.881766 
L 206.450442 313.34678 
L 209.59284 309.86943 
L 212.735237 306.430503 
L 215.877635 302.837881 
L 219.020032 299.245259 
L 222.16243 295.67185 
L 225.304827 292.09844 
L 228.447224 288.640301 
L 231.589622 285.201374 
L 234.732019 281.781659 
L 237.874417 278.438792 
L 241.016814 275.095925 
L 244.159212 271.906752 
L 247.301609 268.852063 
L 250.444006 265.528408 
L 253.586404 262.108693 
L 256.728801 258.688978 
L 259.871199 255.307687 
L 263.013596 251.907184 
L 266.155994 248.487469 
L 269.298391 245.12539 
L 272.440788 241.85937 
L 275.583186 238.478079 
L 281.867981 231.331259 
L 285.010378 227.815485 
L 288.152776 224.280499 
L 291.295173 220.879996 
L 294.43757 217.498705 
L 297.579968 214.155838 
L 300.722365 210.947453 
L 303.864763 207.911976 
L 307.00716 204.742016 
L 310.149558 201.303089 
L 313.291955 198.056281 
L 316.434352 194.809473 
L 319.57675 191.581877 
L 322.719147 188.354281 
L 325.861545 184.588752 
L 329.003942 180.246867 
L 332.14634 175.559168 
L 335.288737 170.026147 
L 338.431134 164.85815 
L 341.573532 160.132028 
L 344.715929 154.829549 
L 347.858327 149.603917 
L 351.000724 144.282226 
L 354.143121 142.630004 
L 357.285519 140.862511 
L 360.427916 138.768416 
L 363.570314 136.021117 
L 366.712711 133.273818 
L 369.855109 130.776273 
L 372.997506 127.740796 
L 376.139903 125.108768 
L 379.282301 122.515164 
L 382.424698 120.22895 
L 385.567096 118.000372 
L 388.709493 116.079184 
L 391.851891 114.50381 
L 394.994288 112.832376 
L 398.136685 111.353061 
L 401.279083 110.257984 
L 404.42148 109.355026 
L 407.563878 108.624974 
L 410.706275 108.240737 
L 413.848673 108.183101 
L 416.99107 108.471279 
L 420.133467 109.066848 
L 423.275865 109.989018 
L 426.418262 111.199366 
L 429.56066 112.640257 
L 432.703057 114.292479 
L 435.845455 116.098396 
" clip-path="url(#p152fc45cc1)" style="fill: none; stroke: #ff7f0e; stroke-width: 1.5; stroke-linecap: square"/>
   </g>
   <g id="line2d_37">
    <path d="M 63 352.500594 
L 453.6 352.500594 
" clip-path="url(#p152fc45cc1)" style="fill: none; stroke: #000000; stroke-linecap: square"/>
   </g>
   <g id="line2d_38">
    <path d="M 231.589622 448.56 
L 231.589622 60.48 
" clip-path="url(#p152fc45cc1)" style="fill: none; stroke: #000000; stroke-linecap: square"/>
   </g>
   <g id="line2d_39">
    <path d="M 178.168866 353.768578 
L 181.311263 350.52177 
L 184.45366 347.198115 
L 187.596058 343.816824 
L 190.738455 340.51238 
L 193.880853 337.323208 
L 197.02325 335.959164 
L 200.165648 335.882317 
L 203.308045 333.019747 
L 206.450442 329.254218 
L 209.59284 325.507901 
L 212.735237 321.780796 
L 215.877635 318.015267 
L 219.020032 314.249739 
L 222.16243 310.48421 
L 225.304827 306.718681 
L 228.447224 302.991576 
L 231.589622 299.302895 
L 234.732019 295.748697 
L 237.874417 292.290558 
L 241.016814 288.697937 
L 244.159212 285.066891 
L 247.301609 281.397422 
L 250.444006 277.747164 
L 253.586404 274.039271 
L 256.728801 270.369802 
L 259.871199 266.700333 
L 263.013596 263.088499 
L 266.155994 259.534301 
L 269.298391 256.037739 
L 272.440788 252.541176 
L 275.583186 248.794859 
L 278.725583 245.048543 
L 281.867981 241.417497 
L 285.010378 238.401232 
" clip-path="url(#p152fc45cc1)" style="fill: none; stroke: #2ca02c; stroke-width: 1.5; stroke-linecap: square"/>
   </g>
   <g id="line2d_40">
    <path d="M 63 352.500594 
L 453.6 352.500594 
" clip-path="url(#p152fc45cc1)" style="fill: none; stroke: #000000; stroke-linecap: square"/>
   </g>
   <g id="line2d_41">
    <path d="M 231.589622 448.56 
L 231.589622 60.48 
" clip-path="url(#p152fc45cc1)" style="fill: none; stroke: #000000; stroke-linecap: square"/>
   </g>
   <g id="line2d_42">
    <path d="M 80.754545 390.194305 
L 83.896943 388.196269 
L 87.03934 386.255869 
L 90.181738 385.487394 
L 93.324135 384.200198 
L 96.466533 382.605612 
L 99.60893 380.703636 
L 102.751327 378.532693 
L 105.893725 376.092784 
L 109.036122 373.345485 
L 112.17852 370.175525 
L 115.320917 366.621327 
L 118.463315 362.644467 
L 124.748109 354.998139 
L 127.890507 351.905026 
L 131.032904 348.197133 
L 134.175302 344.201061 
L 137.317699 339.916812 
L 140.460097 335.30596 
L 146.744891 327.813327 
L 149.887289 323.644349 
L 153.029686 318.706895 
L 156.172084 312.078796 
L 159.314481 278.169826 
L 162.456879 271.772269 
L 165.599276 267.39196 
L 168.741673 263.530372 
L 171.884071 260.514107 
L 175.026468 258.458436 
L 178.168866 257.805232 
L 181.311263 258.420012 
L 184.45366 259.591937 
L 190.738455 261.916574 
L 193.880853 261.532337 
L 197.02325 260.225929 
L 203.308045 256.940697 
L 206.450442 255.057933 
L 209.59284 253.021473 
L 212.735237 250.735259 
L 215.877635 248.237715 
L 219.020032 245.471204 
L 222.16243 242.454939 
L 225.304827 239.112071 
L 228.447224 235.769204 
L 231.589622 232.46476 
L 234.732019 229.352436 
L 237.874417 225.875085 
L 241.016814 222.493794 
L 244.159212 219.362257 
L 247.301609 216.345992 
L 250.444006 213.291303 
L 253.586404 210.082919 
L 256.728801 206.759263 
L 259.871199 203.435608 
L 263.013596 200.208012 
L 266.155994 197.057263 
L 269.298391 193.983362 
L 272.440788 191.005521 
L 275.583186 188.123739 
L 278.725583 185.318804 
L 281.867981 182.609929 
L 285.010378 179.958689 
L 288.152776 177.326661 
L 291.295173 174.694634 
L 294.43757 172.00497 
L 297.579968 169.219248 
L 300.722365 166.356677 
L 303.864763 163.570954 
L 307.00716 161.015774 
L 310.149558 158.864044 
L 313.291955 157.19261 
L 316.434352 156.039897 
L 319.57675 155.405905 
L 322.719147 155.213786 
L 325.861545 155.329057 
L 329.003942 155.694083 
L 332.14634 156.328075 
L 335.288737 157.211822 
L 338.431134 158.268475 
L 341.573532 159.478824 
L 344.715929 160.785232 
" clip-path="url(#p152fc45cc1)" style="fill: none; stroke: #d62728; stroke-width: 1.5; stroke-linecap: square"/>
   </g>
   <g id="patch_3">
    <path d="M 63 448.56 
L 63 60.48 
" style="fill: none; stroke: #000000; stroke-width: 0.8; stroke-linejoin: miter; stroke-linecap: square"/>
   </g>
   <g id="patch_4">
    <path d="M 453.6 448.56 
L 453.6 60.48 
" style="fill: none; stroke: #000000; stroke-width: 0.8; stroke-linejoin: miter; stroke-linecap: square"/>
   </g>
   <g id="patch_5">
    <path d="M 63 448.56 
L 453.6 448.56 
" style="fill: none; stroke: #000000; stroke-width: 0.8; stroke-linejoin: miter; stroke-linecap: square"/>
   </g>
   <g id="patch_6">
    <path d="M 63 60.48 
L 453.6 60.48 
" style="fill: none; stroke: #000000; stroke-width: 0.8; stroke-linejoin: miter; stroke-linecap: square"/>
   </g>
   <g id="legend_1">
    <g id="patch_7">
     <path d="M 333.865625 443.56 
L 446.6 443.56 
Q 448.6 443.56 448.6 441.56 
L 448.6 383.8475 
Q 448.6 381.8475 446.6 381.8475 
L 333.865625 381.8475 
Q 331.865625 381.8475 331.865625 383.8475 
L 331.865625 441.56 
Q 331.865625 443.56 333.865625 443.56 
z
" style="fill: #ffffff; opacity: 0.8; stroke: #cccccc; stroke-linejoin: miter"/>
    </g>
    <g id="line2d_43">
     <path d="M 335.865625 389.945938 
L 345.865625 389.945938 
L 355.865625 389.945938 
" style="fill: none; stroke: #1f77b4; stroke-width: 1.5; stroke-linecap: square"/>
    </g>
    <g id="text_18">
     <!-- NACA 2210 -->
     <g transform="translate(363.865625 393.445938) scale(0.1 -0.1)">
      <defs>
       <path id="DejaVuSans-4e" d="M 628 4666 
L 1478 4666 
L 3547 763 
L 3547 4666 
L 4159 4666 
L 4159 0 
L 3309 0 
L 1241 3903 
L 1241 0 
L 628 0 
L 628 4666 
z
" transform="scale(0.015625)"/>
      </defs>
      <use xlink:href="#DejaVuSans-4e"/>
      <use xlink:href="#DejaVuSans-41" x="74.804688"/>
      <use xlink:href="#DejaVuSans-43" x="141.462891"/>
      <use xlink:href="#DejaVuSans-41" x="211.287109"/>
      <use xlink:href="#DejaVuSans-20" x="279.695312"/>
      <use xlink:href="#DejaVuSans-32" x="311.482422"/>
      <use xlink:href="#DejaVuSans-32" x="375.105469"/>
      <use xlink:href="#DejaVuSans-31" x="438.728516"/>
      <use xlink:href="#DejaVuSans-30" x="502.351562"/>
     </g>
    </g>
    <g id="line2d_44">
     <path d="M 335.865625 404.624063 
L 345.865625 404.624063 
L 355.865625 404.624063 
" style="fill: none; stroke: #ff7f0e; stroke-width: 1.5; stroke-linecap: square"/>
    </g>
    <g id="text_19">
     <!-- NACA 2312 -->
     <g transform="translate(363.865625 408.124063) scale(0.1 -0.1)">
      <defs>
       <path id="DejaVuSans-33" d="M 2597 2516 
Q 3050 2419 3304 2112 
Q 3559 1806 3559 1356 
Q 3559 666 3084 287 
Q 2609 -91 1734 -91 
Q 1441 -91 1130 -33 
Q 819 25 488 141 
L 488 750 
Q 750 597 1062 519 
Q 1375 441 1716 441 
Q 2309 441 2620 675 
Q 2931 909 2931 1356 
Q 2931 1769 2642 2001 
Q 2353 2234 1838 2234 
L 1294 2234 
L 1294 2753 
L 1863 2753 
Q 2328 2753 2575 2939 
Q 2822 3125 2822 3475 
Q 2822 3834 2567 4026 
Q 2313 4219 1838 4219 
Q 1578 4219 1281 4162 
Q 984 4106 628 3988 
L 628 4550 
Q 988 4650 1302 4700 
Q 1616 4750 1894 4750 
Q 2613 4750 3031 4423 
Q 3450 4097 3450 3541 
Q 3450 3153 3228 2886 
Q 3006 2619 2597 2516 
z
" transform="scale(0.015625)"/>
      </defs>
      <use xlink:href="#DejaVuSans-4e"/>
      <use xlink:href="#DejaVuSans-41" x="74.804688"/>
      <use xlink:href="#DejaVuSans-43" x="141.462891"/>
      <use xlink:href="#DejaVuSans-41" x="211.287109"/>
      <use xlink:href="#DejaVuSans-20" x="279.695312"/>
      <use xlink:href="#DejaVuSans-32" x="311.482422"/>
      <use xlink:href="#DejaVuSans-33" x="375.105469"/>
      <use xlink:href="#DejaVuSans-31" x="438.728516"/>
      <use xlink:href="#DejaVuSans-32" x="502.351562"/>
     </g>
    </g>
    <g id="line2d_45">
     <path d="M 335.865625 419.302188 
L 345.865625 419.302188 
L 355.865625 419.302188 
" style="fill: none; stroke: #2ca02c; stroke-width: 1.5; stroke-linecap: square"/>
    </g>
    <g id="text_20">
     <!-- NACA 65(1)-212 -->
     <g transform="translate(363.865625 422.802188) scale(0.1 -0.1)">
      <defs>
       <path id="DejaVuSans-2d" d="M 313 2009 
L 1997 2009 
L 1997 1497 
L 313 1497 
L 313 2009 
z
" transform="scale(0.015625)"/>
      </defs>
      <use xlink:href="#DejaVuSans-4e"/>
      <use xlink:href="#DejaVuSans-41" x="74.804688"/>
      <use xlink:href="#DejaVuSans-43" x="141.462891"/>
      <use xlink:href="#DejaVuSans-41" x="211.287109"/>
      <use xlink:href="#DejaVuSans-20" x="279.695312"/>
      <use xlink:href="#DejaVuSans-36" x="311.482422"/>
      <use xlink:href="#DejaVuSans-35" x="375.105469"/>
      <use xlink:href="#DejaVuSans-28" x="438.728516"/>
      <use xlink:href="#DejaVuSans-31" x="477.742188"/>
      <use xlink:href="#DejaVuSans-29" x="541.365234"/>
      <use xlink:href="#DejaVuSans-2d" x="580.378906"/>
      <use xlink:href="#DejaVuSans-32" x="616.462891"/>
      <use xlink:href="#DejaVuSans-31" x="680.085938"/>
      <use xlink:href="#DejaVuSans-32" x="743.708984"/>
     </g>
    </g>
    <g id="line2d_46">
     <path d="M 335.865625 433.980313 
L 345.865625 433.980313 
L 355.865625 433.980313 
" style="fill: none; stroke: #d62728; stroke-width: 1.5; stroke-linecap: square"/>
    </g>
    <g id="text_21">
     <!-- SC(2)-0714 -->
     <g transform="translate(363.865625 437.480313) scale(0.1 -0.1)">
      <defs>
       <path id="DejaVuSans-53" d="M 3425 4513 
L 3425 3897 
Q 3066 4069 2747 4153 
Q 2428 4238 2131 4238 
Q 1616 4238 1336 4038 
Q 1056 3838 1056 3469 
Q 1056 3159 1242 3001 
Q 1428 2844 1947 2747 
L 2328 2669 
Q 3034 2534 3370 2195 
Q 3706 1856 3706 1288 
Q 3706 609 3251 259 
Q 2797 -91 1919 -91 
Q 1588 -91 1214 -16 
Q 841 59 441 206 
L 441 856 
Q 825 641 1194 531 
Q 1563 422 1919 422 
Q 2459 422 2753 634 
Q 3047 847 3047 1241 
Q 3047 1584 2836 1778 
Q 2625 1972 2144 2069 
L 1759 2144 
Q 1053 2284 737 2584 
Q 422 2884 422 3419 
Q 422 4038 858 4394 
Q 1294 4750 2059 4750 
Q 2388 4750 2728 4690 
Q 3069 4631 3425 4513 
z
" transform="scale(0.015625)"/>
      </defs>
      <use xlink:href="#DejaVuSans-53"/>
      <use xlink:href="#DejaVuSans-43" x="63.476562"/>
      <use xlink:href="#DejaVuSans-28" x="133.300781"/>
      <use xlink:href="#DejaVuSans-32" x="172.314453"/>
      <use xlink:href="#DejaVuSans-29" x="235.9375"/>
      <use xlink:href="#DejaVuSans-2d" x="274.951172"/>
      <use xlink:href="#DejaVuSans-30" x="311.035156"/>
      <use xlink:href="#DejaVuSans-37" x="374.658203"/>
      <use xlink:href="#DejaVuSans-31" x="438.28125"/>
      <use xlink:href="#DejaVuSans-34" x="501.904297"/>
     </g>
    </g>
   </g>
  </g>
 </g>
 <defs>
  <clipPath id="p152fc45cc1">
   <rect x="63" y="60.48" width="390.6" height="388.08"/>
  </clipPath>
 </defs>
</svg>
