<?xml version="1.0" encoding="utf-8" standalone="no"?>
<!DOCTYPE svg PUBLIC "-//W3C//DTD SVG 1.1//EN"
  "http://www.w3.org/Graphics/SVG/1.1/DTD/svg11.dtd">
<svg xmlns:xlink="http://www.w3.org/1999/xlink" width="360pt" height="360pt" viewBox="0 0 360 360" xmlns="http://www.w3.org/2000/svg" version="1.1">
 <metadata>
  <rdf:RDF xmlns:dc="http://purl.org/dc/elements/1.1/" xmlns:cc="http://creativecommons.org/ns#" xmlns:rdf="http://www.w3.org/1999/02/22-rdf-syntax-ns#">
   <cc:Work>
    <dc:type rdf:resource="http://purl.org/dc/dcmitype/StillImage"/>
    <dc:date>2025-01-08T21:48:48.578284</dc:date>
    <dc:format>image/svg+xml</dc:format>
    <dc:creator>
     <cc:Agent>
      <dc:title>Matplotlib v3.9.2, https://matplotlib.org/</dc:title>
     </cc:Agent>
    </dc:creator>
   </cc:Work>
  </rdf:RDF>
 </metadata>
 <defs>
  <style type="text/css">*{stroke-linejoin: round; stroke-linecap: butt}</style>
 </defs>
 <g id="figure_1">
  <g id="patch_1">
   <path d="M 0 360 
L 360 360 
L 360 0 
L 0 0 
z
" style="fill: #ffffff"/>
  </g>
  <g id="axes_1">
   <g id="patch_2">
    <path d="M 53.03 318.04 
L 349.2 318.04 
L 349.2 10.8 
L 53.03 10.8 
z
" style="fill: #ffffff"/>
   </g>
   <g id="matplotlib.axis_1">
    <g id="xtick_1">
     <g id="line2d_1">
      <path d="M 66.492273 318.04 
L 66.492273 10.8 
" clip-path="url(#p6705bbd1a8)" style="fill: none; stroke: #b0b0b0; stroke-width: 0.8; stroke-linecap: square"/>
     </g>
     <g id="line2d_2">
      <defs>
       <path id="md0130d2c2c" d="M 0 0 
L 0 3.5 
" style="stroke: #000000; stroke-width: 0.8"/>
      </defs>
      <g>
       <use xlink:href="#md0130d2c2c" x="66.492273" y="318.04" style="stroke: #000000; stroke-width: 0.8"/>
      </g>
     </g>
     <g id="text_1">
      <!-- 0 -->
      <g transform="translate(63.311023 332.638438) scale(0.1 -0.1)">
       <defs>
        <path id="DejaVuSans-30" d="M 2034 4250 
Q 1547 4250 1301 3770 
Q 1056 3291 1056 2328 
Q 1056 1369 1301 889 
Q 1547 409 2034 409 
Q 2525 409 2770 889 
Q 3016 1369 3016 2328 
Q 3016 3291 2770 3770 
Q 2525 4250 2034 4250 
z
M 2034 4750 
Q 2819 4750 3233 4129 
Q 3647 3509 3647 2328 
Q 3647 1150 3233 529 
Q 2819 -91 2034 -91 
Q 1250 -91 836 529 
Q 422 1150 422 2328 
Q 422 3509 836 4129 
Q 1250 4750 2034 4750 
z
" transform="scale(0.015625)"/>
       </defs>
       <use xlink:href="#DejaVuSans-30"/>
      </g>
     </g>
    </g>
    <g id="xtick_2">
     <g id="line2d_3">
      <path d="M 111.069335 318.04 
L 111.069335 10.8 
" clip-path="url(#p6705bbd1a8)" style="fill: none; stroke: #b0b0b0; stroke-width: 0.8; stroke-linecap: square"/>
     </g>
     <g id="line2d_4">
      <g>
       <use xlink:href="#md0130d2c2c" x="111.069335" y="318.04" style="stroke: #000000; stroke-width: 0.8"/>
      </g>
     </g>
     <g id="text_2">
      <!-- 2 -->
      <g transform="translate(107.888085 332.638438) scale(0.1 -0.1)">
       <defs>
        <path id="DejaVuSans-32" d="M 1228 531 
L 3431 531 
L 3431 0 
L 469 0 
L 469 531 
Q 828 903 1448 1529 
Q 2069 2156 2228 2338 
Q 2531 2678 2651 2914 
Q 2772 3150 2772 3378 
Q 2772 3750 2511 3984 
Q 2250 4219 1831 4219 
Q 1534 4219 1204 4116 
Q 875 4013 500 3803 
L 500 4441 
Q 881 4594 1212 4672 
Q 1544 4750 1819 4750 
Q 2544 4750 2975 4387 
Q 3406 4025 3406 3419 
Q 3406 3131 3298 2873 
Q 3191 2616 2906 2266 
Q 2828 2175 2409 1742 
Q 1991 1309 1228 531 
z
" transform="scale(0.015625)"/>
       </defs>
       <use xlink:href="#DejaVuSans-32"/>
      </g>
     </g>
    </g>
    <g id="xtick_3">
     <g id="line2d_5">
      <path d="M 155.646397 318.04 
L 155.646397 10.8 
" clip-path="url(#p6705bbd1a8)" style="fill: none; stroke: #b0b0b0; stroke-width: 0.8; stroke-linecap: square"/>
     </g>
     <g id="line2d_6">
      <g>
       <use xlink:href="#md0130d2c2c" x="155.646397" y="318.04" style="stroke: #000000; stroke-width: 0.8"/>
      </g>
     </g>
     <g id="text_3">
      <!-- 4 -->
      <g transform="translate(152.465147 332.638438) scale(0.1 -0.1)">
       <defs>
        <path id="DejaVuSans-34" d="M 2419 4116 
L 825 1625 
L 2419 1625 
L 2419 4116 
z
M 2253 4666 
L 3047 4666 
L 3047 1625 
L 3713 1625 
L 3713 1100 
L 3047 1100 
L 3047 0 
L 2419 0 
L 2419 1100 
L 313 1100 
L 313 1709 
L 2253 4666 
z
" transform="scale(0.015625)"/>
       </defs>
       <use xlink:href="#DejaVuSans-34"/>
      </g>
     </g>
    </g>
    <g id="xtick_4">
     <g id="line2d_7">
      <path d="M 200.223459 318.04 
L 200.223459 10.8 
" clip-path="url(#p6705bbd1a8)" style="fill: none; stroke: #b0b0b0; stroke-width: 0.8; stroke-linecap: square"/>
     </g>
     <g id="line2d_8">
      <g>
       <use xlink:href="#md0130d2c2c" x="200.223459" y="318.04" style="stroke: #000000; stroke-width: 0.8"/>
      </g>
     </g>
     <g id="text_4">
      <!-- 6 -->
      <g transform="translate(197.042209 332.638438) scale(0.1 -0.1)">
       <defs>
        <path id="DejaVuSans-36" d="M 2113 2584 
Q 1688 2584 1439 2293 
Q 1191 2003 1191 1497 
Q 1191 994 1439 701 
Q 1688 409 2113 409 
Q 2538 409 2786 701 
Q 3034 994 3034 1497 
Q 3034 2003 2786 2293 
Q 2538 2584 2113 2584 
z
M 3366 4563 
L 3366 3988 
Q 3128 4100 2886 4159 
Q 2644 4219 2406 4219 
Q 1781 4219 1451 3797 
Q 1122 3375 1075 2522 
Q 1259 2794 1537 2939 
Q 1816 3084 2150 3084 
Q 2853 3084 3261 2657 
Q 3669 2231 3669 1497 
Q 3669 778 3244 343 
Q 2819 -91 2113 -91 
Q 1303 -91 875 529 
Q 447 1150 447 2328 
Q 447 3434 972 4092 
Q 1497 4750 2381 4750 
Q 2619 4750 2861 4703 
Q 3103 4656 3366 4563 
z
" transform="scale(0.015625)"/>
       </defs>
       <use xlink:href="#DejaVuSans-36"/>
      </g>
     </g>
    </g>
    <g id="xtick_5">
     <g id="line2d_9">
      <path d="M 244.800521 318.04 
L 244.800521 10.8 
" clip-path="url(#p6705bbd1a8)" style="fill: none; stroke: #b0b0b0; stroke-width: 0.8; stroke-linecap: square"/>
     </g>
     <g id="line2d_10">
      <g>
       <use xlink:href="#md0130d2c2c" x="244.800521" y="318.04" style="stroke: #000000; stroke-width: 0.8"/>
      </g>
     </g>
     <g id="text_5">
      <!-- 8 -->
      <g transform="translate(241.619271 332.638438) scale(0.1 -0.1)">
       <defs>
        <path id="DejaVuSans-38" d="M 2034 2216 
Q 1584 2216 1326 1975 
Q 1069 1734 1069 1313 
Q 1069 891 1326 650 
Q 1584 409 2034 409 
Q 2484 409 2743 651 
Q 3003 894 3003 1313 
Q 3003 1734 2745 1975 
Q 2488 2216 2034 2216 
z
M 1403 2484 
Q 997 2584 770 2862 
Q 544 3141 544 3541 
Q 544 4100 942 4425 
Q 1341 4750 2034 4750 
Q 2731 4750 3128 4425 
Q 3525 4100 3525 3541 
Q 3525 3141 3298 2862 
Q 3072 2584 2669 2484 
Q 3125 2378 3379 2068 
Q 3634 1759 3634 1313 
Q 3634 634 3220 271 
Q 2806 -91 2034 -91 
Q 1263 -91 848 271 
Q 434 634 434 1313 
Q 434 1759 690 2068 
Q 947 2378 1403 2484 
z
M 1172 3481 
Q 1172 3119 1398 2916 
Q 1625 2713 2034 2713 
Q 2441 2713 2670 2916 
Q 2900 3119 2900 3481 
Q 2900 3844 2670 4047 
Q 2441 4250 2034 4250 
Q 1625 4250 1398 4047 
Q 1172 3844 1172 3481 
z
" transform="scale(0.015625)"/>
       </defs>
       <use xlink:href="#DejaVuSans-38"/>
      </g>
     </g>
    </g>
    <g id="xtick_6">
     <g id="line2d_11">
      <path d="M 289.377583 318.04 
L 289.377583 10.8 
" clip-path="url(#p6705bbd1a8)" style="fill: none; stroke: #b0b0b0; stroke-width: 0.8; stroke-linecap: square"/>
     </g>
     <g id="line2d_12">
      <g>
       <use xlink:href="#md0130d2c2c" x="289.377583" y="318.04" style="stroke: #000000; stroke-width: 0.8"/>
      </g>
     </g>
     <g id="text_6">
      <!-- 10 -->
      <g transform="translate(283.015083 332.638438) scale(0.1 -0.1)">
       <defs>
        <path id="DejaVuSans-31" d="M 794 531 
L 1825 531 
L 1825 4091 
L 703 3866 
L 703 4441 
L 1819 4666 
L 2450 4666 
L 2450 531 
L 3481 531 
L 3481 0 
L 794 0 
L 794 531 
z
" transform="scale(0.015625)"/>
       </defs>
       <use xlink:href="#DejaVuSans-31"/>
       <use xlink:href="#DejaVuSans-30" x="63.623047"/>
      </g>
     </g>
    </g>
    <g id="xtick_7">
     <g id="line2d_13">
      <path d="M 333.954645 318.04 
L 333.954645 10.8 
" clip-path="url(#p6705bbd1a8)" style="fill: none; stroke: #b0b0b0; stroke-width: 0.8; stroke-linecap: square"/>
     </g>
     <g id="line2d_14">
      <g>
       <use xlink:href="#md0130d2c2c" x="333.954645" y="318.04" style="stroke: #000000; stroke-width: 0.8"/>
      </g>
     </g>
     <g id="text_7">
      <!-- 12 -->
      <g transform="translate(327.592145 332.638438) scale(0.1 -0.1)">
       <use xlink:href="#DejaVuSans-31"/>
       <use xlink:href="#DejaVuSans-32" x="63.623047"/>
      </g>
     </g>
    </g>
    <g id="text_8">
     <!-- Span wise position [m] -->
     <g transform="translate(144.030625 346.316563) scale(0.1 -0.1)">
      <defs>
       <path id="DejaVuSans-53" d="M 3425 4513 
L 3425 3897 
Q 3066 4069 2747 4153 
Q 2428 4238 2131 4238 
Q 1616 4238 1336 4038 
Q 1056 3838 1056 3469 
Q 1056 3159 1242 3001 
Q 1428 2844 1947 2747 
L 2328 2669 
Q 3034 2534 3370 2195 
Q 3706 1856 3706 1288 
Q 3706 609 3251 259 
Q 2797 -91 1919 -91 
Q 1588 -91 1214 -16 
Q 841 59 441 206 
L 441 856 
Q 825 641 1194 531 
Q 1563 422 1919 422 
Q 2459 422 2753 634 
Q 3047 847 3047 1241 
Q 3047 1584 2836 1778 
Q 2625 1972 2144 2069 
L 1759 2144 
Q 1053 2284 737 2584 
Q 422 2884 422 3419 
Q 422 4038 858 4394 
Q 1294 4750 2059 4750 
Q 2388 4750 2728 4690 
Q 3069 4631 3425 4513 
z
" transform="scale(0.015625)"/>
       <path id="DejaVuSans-70" d="M 1159 525 
L 1159 -1331 
L 581 -1331 
L 581 3500 
L 1159 3500 
L 1159 2969 
Q 1341 3281 1617 3432 
Q 1894 3584 2278 3584 
Q 2916 3584 3314 3078 
Q 3713 2572 3713 1747 
Q 3713 922 3314 415 
Q 2916 -91 2278 -91 
Q 1894 -91 1617 61 
Q 1341 213 1159 525 
z
M 3116 1747 
Q 3116 2381 2855 2742 
Q 2594 3103 2138 3103 
Q 1681 3103 1420 2742 
Q 1159 2381 1159 1747 
Q 1159 1113 1420 752 
Q 1681 391 2138 391 
Q 2594 391 2855 752 
Q 3116 1113 3116 1747 
z
" transform="scale(0.015625)"/>
       <path id="DejaVuSans-61" d="M 2194 1759 
Q 1497 1759 1228 1600 
Q 959 1441 959 1056 
Q 959 750 1161 570 
Q 1363 391 1709 391 
Q 2188 391 2477 730 
Q 2766 1069 2766 1631 
L 2766 1759 
L 2194 1759 
z
M 3341 1997 
L 3341 0 
L 2766 0 
L 2766 531 
Q 2569 213 2275 61 
Q 1981 -91 1556 -91 
Q 1019 -91 701 211 
Q 384 513 384 1019 
Q 384 1609 779 1909 
Q 1175 2209 1959 2209 
L 2766 2209 
L 2766 2266 
Q 2766 2663 2505 2880 
Q 2244 3097 1772 3097 
Q 1472 3097 1187 3025 
Q 903 2953 641 2809 
L 641 3341 
Q 956 3463 1253 3523 
Q 1550 3584 1831 3584 
Q 2591 3584 2966 3190 
Q 3341 2797 3341 1997 
z
" transform="scale(0.015625)"/>
       <path id="DejaVuSans-6e" d="M 3513 2113 
L 3513 0 
L 2938 0 
L 2938 2094 
Q 2938 2591 2744 2837 
Q 2550 3084 2163 3084 
Q 1697 3084 1428 2787 
Q 1159 2491 1159 1978 
L 1159 0 
L 581 0 
L 581 3500 
L 1159 3500 
L 1159 2956 
Q 1366 3272 1645 3428 
Q 1925 3584 2291 3584 
Q 2894 3584 3203 3211 
Q 3513 2838 3513 2113 
z
" transform="scale(0.015625)"/>
       <path id="DejaVuSans-20" transform="scale(0.015625)"/>
       <path id="DejaVuSans-77" d="M 269 3500 
L 844 3500 
L 1563 769 
L 2278 3500 
L 2956 3500 
L 3675 769 
L 4391 3500 
L 4966 3500 
L 4050 0 
L 3372 0 
L 2619 2869 
L 1863 0 
L 1184 0 
L 269 3500 
z
" transform="scale(0.015625)"/>
       <path id="DejaVuSans-69" d="M 603 3500 
L 1178 3500 
L 1178 0 
L 603 0 
L 603 3500 
z
M 603 4863 
L 1178 4863 
L 1178 4134 
L 603 4134 
L 603 4863 
z
" transform="scale(0.015625)"/>
       <path id="DejaVuSans-73" d="M 2834 3397 
L 2834 2853 
Q 2591 2978 2328 3040 
Q 2066 3103 1784 3103 
Q 1356 3103 1142 2972 
Q 928 2841 928 2578 
Q 928 2378 1081 2264 
Q 1234 2150 1697 2047 
L 1894 2003 
Q 2506 1872 2764 1633 
Q 3022 1394 3022 966 
Q 3022 478 2636 193 
Q 2250 -91 1575 -91 
Q 1294 -91 989 -36 
Q 684 19 347 128 
L 347 722 
Q 666 556 975 473 
Q 1284 391 1588 391 
Q 1994 391 2212 530 
Q 2431 669 2431 922 
Q 2431 1156 2273 1281 
Q 2116 1406 1581 1522 
L 1381 1569 
Q 847 1681 609 1914 
Q 372 2147 372 2553 
Q 372 3047 722 3315 
Q 1072 3584 1716 3584 
Q 2034 3584 2315 3537 
Q 2597 3491 2834 3397 
z
" transform="scale(0.015625)"/>
       <path id="DejaVuSans-65" d="M 3597 1894 
L 3597 1613 
L 953 1613 
Q 991 1019 1311 708 
Q 1631 397 2203 397 
Q 2534 397 2845 478 
Q 3156 559 3463 722 
L 3463 178 
Q 3153 47 2828 -22 
Q 2503 -91 2169 -91 
Q 1331 -91 842 396 
Q 353 884 353 1716 
Q 353 2575 817 3079 
Q 1281 3584 2069 3584 
Q 2775 3584 3186 3129 
Q 3597 2675 3597 1894 
z
M 3022 2063 
Q 3016 2534 2758 2815 
Q 2500 3097 2075 3097 
Q 1594 3097 1305 2825 
Q 1016 2553 972 2059 
L 3022 2063 
z
" transform="scale(0.015625)"/>
       <path id="DejaVuSans-6f" d="M 1959 3097 
Q 1497 3097 1228 2736 
Q 959 2375 959 1747 
Q 959 1119 1226 758 
Q 1494 397 1959 397 
Q 2419 397 2687 759 
Q 2956 1122 2956 1747 
Q 2956 2369 2687 2733 
Q 2419 3097 1959 3097 
z
M 1959 3584 
Q 2709 3584 3137 3096 
Q 3566 2609 3566 1747 
Q 3566 888 3137 398 
Q 2709 -91 1959 -91 
Q 1206 -91 779 398 
Q 353 888 353 1747 
Q 353 2609 779 3096 
Q 1206 3584 1959 3584 
z
" transform="scale(0.015625)"/>
       <path id="DejaVuSans-74" d="M 1172 4494 
L 1172 3500 
L 2356 3500 
L 2356 3053 
L 1172 3053 
L 1172 1153 
Q 1172 725 1289 603 
Q 1406 481 1766 481 
L 2356 481 
L 2356 0 
L 1766 0 
Q 1100 0 847 248 
Q 594 497 594 1153 
L 594 3053 
L 172 3053 
L 172 3500 
L 594 3500 
L 594 4494 
L 1172 4494 
z
" transform="scale(0.015625)"/>
       <path id="DejaVuSans-5b" d="M 550 4863 
L 1875 4863 
L 1875 4416 
L 1125 4416 
L 1125 -397 
L 1875 -397 
L 1875 -844 
L 550 -844 
L 550 4863 
z
" transform="scale(0.015625)"/>
       <path id="DejaVuSans-6d" d="M 3328 2828 
Q 3544 3216 3844 3400 
Q 4144 3584 4550 3584 
Q 5097 3584 5394 3201 
Q 5691 2819 5691 2113 
L 5691 0 
L 5113 0 
L 5113 2094 
Q 5113 2597 4934 2840 
Q 4756 3084 4391 3084 
Q 3944 3084 3684 2787 
Q 3425 2491 3425 1978 
L 3425 0 
L 2847 0 
L 2847 2094 
Q 2847 2600 2669 2842 
Q 2491 3084 2119 3084 
Q 1678 3084 1418 2786 
Q 1159 2488 1159 1978 
L 1159 0 
L 581 0 
L 581 3500 
L 1159 3500 
L 1159 2956 
Q 1356 3278 1631 3431 
Q 1906 3584 2284 3584 
Q 2666 3584 2933 3390 
Q 3200 3197 3328 2828 
z
" transform="scale(0.015625)"/>
       <path id="DejaVuSans-5d" d="M 1947 4863 
L 1947 -844 
L 622 -844 
L 622 -397 
L 1369 -397 
L 1369 4416 
L 622 4416 
L 622 4863 
L 1947 4863 
z
" transform="scale(0.015625)"/>
      </defs>
      <use xlink:href="#DejaVuSans-53"/>
      <use xlink:href="#DejaVuSans-70" x="63.476562"/>
      <use xlink:href="#DejaVuSans-61" x="126.953125"/>
      <use xlink:href="#DejaVuSans-6e" x="188.232422"/>
      <use xlink:href="#DejaVuSans-20" x="251.611328"/>
      <use xlink:href="#DejaVuSans-77" x="283.398438"/>
      <use xlink:href="#DejaVuSans-69" x="365.185547"/>
      <use xlink:href="#DejaVuSans-73" x="392.96875"/>
      <use xlink:href="#DejaVuSans-65" x="445.068359"/>
      <use xlink:href="#DejaVuSans-20" x="506.591797"/>
      <use xlink:href="#DejaVuSans-70" x="538.378906"/>
      <use xlink:href="#DejaVuSans-6f" x="601.855469"/>
      <use xlink:href="#DejaVuSans-73" x="663.037109"/>
      <use xlink:href="#DejaVuSans-69" x="715.136719"/>
      <use xlink:href="#DejaVuSans-74" x="742.919922"/>
      <use xlink:href="#DejaVuSans-69" x="782.128906"/>
      <use xlink:href="#DejaVuSans-6f" x="809.912109"/>
      <use xlink:href="#DejaVuSans-6e" x="871.09375"/>
      <use xlink:href="#DejaVuSans-20" x="934.472656"/>
      <use xlink:href="#DejaVuSans-5b" x="966.259766"/>
      <use xlink:href="#DejaVuSans-6d" x="1005.273438"/>
      <use xlink:href="#DejaVuSans-5d" x="1102.685547"/>
     </g>
    </g>
   </g>
   <g id="matplotlib.axis_2">
    <g id="ytick_1">
     <g id="line2d_15">
      <path d="M 53.03 304.074545 
L 349.2 304.074545 
" clip-path="url(#p6705bbd1a8)" style="fill: none; stroke: #b0b0b0; stroke-width: 0.8; stroke-linecap: square"/>
     </g>
     <g id="line2d_16">
      <defs>
       <path id="md5d5fe2e8d" d="M 0 0 
L -3.5 0 
" style="stroke: #000000; stroke-width: 0.8"/>
      </defs>
      <g>
       <use xlink:href="#md5d5fe2e8d" x="53.03" y="304.074545" style="stroke: #000000; stroke-width: 0.8"/>
      </g>
     </g>
     <g id="text_9">
      <!-- −10 -->
      <g transform="translate(24.925313 307.873764) scale(0.1 -0.1)">
       <defs>
        <path id="DejaVuSans-2212" d="M 678 2272 
L 4684 2272 
L 4684 1741 
L 678 1741 
L 678 2272 
z
" transform="scale(0.015625)"/>
       </defs>
       <use xlink:href="#DejaVuSans-2212"/>
       <use xlink:href="#DejaVuSans-31" x="83.789062"/>
       <use xlink:href="#DejaVuSans-30" x="147.412109"/>
      </g>
     </g>
    </g>
    <g id="ytick_2">
     <g id="line2d_17">
      <path d="M 53.03 248.212727 
L 349.2 248.212727 
" clip-path="url(#p6705bbd1a8)" style="fill: none; stroke: #b0b0b0; stroke-width: 0.8; stroke-linecap: square"/>
     </g>
     <g id="line2d_18">
      <g>
       <use xlink:href="#md5d5fe2e8d" x="53.03" y="248.212727" style="stroke: #000000; stroke-width: 0.8"/>
      </g>
     </g>
     <g id="text_10">
      <!-- −8 -->
      <g transform="translate(31.287813 252.011946) scale(0.1 -0.1)">
       <use xlink:href="#DejaVuSans-2212"/>
       <use xlink:href="#DejaVuSans-38" x="83.789062"/>
      </g>
     </g>
    </g>
    <g id="ytick_3">
     <g id="line2d_19">
      <path d="M 53.03 192.350909 
L 349.2 192.350909 
" clip-path="url(#p6705bbd1a8)" style="fill: none; stroke: #b0b0b0; stroke-width: 0.8; stroke-linecap: square"/>
     </g>
     <g id="line2d_20">
      <g>
       <use xlink:href="#md5d5fe2e8d" x="53.03" y="192.350909" style="stroke: #000000; stroke-width: 0.8"/>
      </g>
     </g>
     <g id="text_11">
      <!-- −6 -->
      <g transform="translate(31.287813 196.150128) scale(0.1 -0.1)">
       <use xlink:href="#DejaVuSans-2212"/>
       <use xlink:href="#DejaVuSans-36" x="83.789062"/>
      </g>
     </g>
    </g>
    <g id="ytick_4">
     <g id="line2d_21">
      <path d="M 53.03 136.489091 
L 349.2 136.489091 
" clip-path="url(#p6705bbd1a8)" style="fill: none; stroke: #b0b0b0; stroke-width: 0.8; stroke-linecap: square"/>
     </g>
     <g id="line2d_22">
      <g>
       <use xlink:href="#md5d5fe2e8d" x="53.03" y="136.489091" style="stroke: #000000; stroke-width: 0.8"/>
      </g>
     </g>
     <g id="text_12">
      <!-- −4 -->
      <g transform="translate(31.287813 140.28831) scale(0.1 -0.1)">
       <use xlink:href="#DejaVuSans-2212"/>
       <use xlink:href="#DejaVuSans-34" x="83.789062"/>
      </g>
     </g>
    </g>
    <g id="ytick_5">
     <g id="line2d_23">
      <path d="M 53.03 80.627273 
L 349.2 80.627273 
" clip-path="url(#p6705bbd1a8)" style="fill: none; stroke: #b0b0b0; stroke-width: 0.8; stroke-linecap: square"/>
     </g>
     <g id="line2d_24">
      <g>
       <use xlink:href="#md5d5fe2e8d" x="53.03" y="80.627273" style="stroke: #000000; stroke-width: 0.8"/>
      </g>
     </g>
     <g id="text_13">
      <!-- −2 -->
      <g transform="translate(31.287813 84.426491) scale(0.1 -0.1)">
       <use xlink:href="#DejaVuSans-2212"/>
       <use xlink:href="#DejaVuSans-32" x="83.789062"/>
      </g>
     </g>
    </g>
    <g id="ytick_6">
     <g id="line2d_25">
      <path d="M 53.03 24.765455 
L 349.2 24.765455 
" clip-path="url(#p6705bbd1a8)" style="fill: none; stroke: #b0b0b0; stroke-width: 0.8; stroke-linecap: square"/>
     </g>
     <g id="line2d_26">
      <g>
       <use xlink:href="#md5d5fe2e8d" x="53.03" y="24.765455" style="stroke: #000000; stroke-width: 0.8"/>
      </g>
     </g>
     <g id="text_14">
      <!-- 0 -->
      <g transform="translate(39.6675 28.564673) scale(0.1 -0.1)">
       <use xlink:href="#DejaVuSans-30"/>
      </g>
     </g>
    </g>
    <g id="text_15">
     <!-- Wing tip rotation [deg] -->
     <g transform="translate(18.845625 221.204375) rotate(-90) scale(0.1 -0.1)">
      <defs>
       <path id="DejaVuSans-57" d="M 213 4666 
L 850 4666 
L 1831 722 
L 2809 4666 
L 3519 4666 
L 4500 722 
L 5478 4666 
L 6119 4666 
L 4947 0 
L 4153 0 
L 3169 4050 
L 2175 0 
L 1381 0 
L 213 4666 
z
" transform="scale(0.015625)"/>
       <path id="DejaVuSans-67" d="M 2906 1791 
Q 2906 2416 2648 2759 
Q 2391 3103 1925 3103 
Q 1463 3103 1205 2759 
Q 947 2416 947 1791 
Q 947 1169 1205 825 
Q 1463 481 1925 481 
Q 2391 481 2648 825 
Q 2906 1169 2906 1791 
z
M 3481 434 
Q 3481 -459 3084 -895 
Q 2688 -1331 1869 -1331 
Q 1566 -1331 1297 -1286 
Q 1028 -1241 775 -1147 
L 775 -588 
Q 1028 -725 1275 -790 
Q 1522 -856 1778 -856 
Q 2344 -856 2625 -561 
Q 2906 -266 2906 331 
L 2906 616 
Q 2728 306 2450 153 
Q 2172 0 1784 0 
Q 1141 0 747 490 
Q 353 981 353 1791 
Q 353 2603 747 3093 
Q 1141 3584 1784 3584 
Q 2172 3584 2450 3431 
Q 2728 3278 2906 2969 
L 2906 3500 
L 3481 3500 
L 3481 434 
z
" transform="scale(0.015625)"/>
       <path id="DejaVuSans-72" d="M 2631 2963 
Q 2534 3019 2420 3045 
Q 2306 3072 2169 3072 
Q 1681 3072 1420 2755 
Q 1159 2438 1159 1844 
L 1159 0 
L 581 0 
L 581 3500 
L 1159 3500 
L 1159 2956 
Q 1341 3275 1631 3429 
Q 1922 3584 2338 3584 
Q 2397 3584 2469 3576 
Q 2541 3569 2628 3553 
L 2631 2963 
z
" transform="scale(0.015625)"/>
       <path id="DejaVuSans-64" d="M 2906 2969 
L 2906 4863 
L 3481 4863 
L 3481 0 
L 2906 0 
L 2906 525 
Q 2725 213 2448 61 
Q 2172 -91 1784 -91 
Q 1150 -91 751 415 
Q 353 922 353 1747 
Q 353 2572 751 3078 
Q 1150 3584 1784 3584 
Q 2172 3584 2448 3432 
Q 2725 3281 2906 2969 
z
M 947 1747 
Q 947 1113 1208 752 
Q 1469 391 1925 391 
Q 2381 391 2643 752 
Q 2906 1113 2906 1747 
Q 2906 2381 2643 2742 
Q 2381 3103 1925 3103 
Q 1469 3103 1208 2742 
Q 947 2381 947 1747 
z
" transform="scale(0.015625)"/>
      </defs>
      <use xlink:href="#DejaVuSans-57"/>
      <use xlink:href="#DejaVuSans-69" x="96.626953"/>
      <use xlink:href="#DejaVuSans-6e" x="124.410156"/>
      <use xlink:href="#DejaVuSans-67" x="187.789062"/>
      <use xlink:href="#DejaVuSans-20" x="251.265625"/>
      <use xlink:href="#DejaVuSans-74" x="283.052734"/>
      <use xlink:href="#DejaVuSans-69" x="322.261719"/>
      <use xlink:href="#DejaVuSans-70" x="350.044922"/>
      <use xlink:href="#DejaVuSans-20" x="413.521484"/>
      <use xlink:href="#DejaVuSans-72" x="445.308594"/>
      <use xlink:href="#DejaVuSans-6f" x="484.171875"/>
      <use xlink:href="#DejaVuSans-74" x="545.353516"/>
      <use xlink:href="#DejaVuSans-61" x="584.5625"/>
      <use xlink:href="#DejaVuSans-74" x="645.841797"/>
      <use xlink:href="#DejaVuSans-69" x="685.050781"/>
      <use xlink:href="#DejaVuSans-6f" x="712.833984"/>
      <use xlink:href="#DejaVuSans-6e" x="774.015625"/>
      <use xlink:href="#DejaVuSans-20" x="837.394531"/>
      <use xlink:href="#DejaVuSans-5b" x="869.181641"/>
      <use xlink:href="#DejaVuSans-64" x="908.195312"/>
      <use xlink:href="#DejaVuSans-65" x="971.671875"/>
      <use xlink:href="#DejaVuSans-67" x="1033.195312"/>
      <use xlink:href="#DejaVuSans-5d" x="1096.671875"/>
     </g>
    </g>
   </g>
   <g id="line2d_27">
    <path d="M 66.492273 24.765455 
L 69.211924 27.65543 
L 71.931575 30.549858 
L 74.651226 33.449677 
L 77.370877 36.355964 
L 80.090528 39.26962 
L 82.810179 42.191356 
L 85.52983 45.121745 
L 88.249481 48.061297 
L 90.969132 51.010508 
L 93.688783 53.969888 
L 96.408434 56.939948 
L 99.128085 59.92119 
L 101.847736 62.914075 
L 104.567388 65.919 
L 107.287039 68.936284 
L 110.00669 71.966162 
L 112.726341 75.00879 
L 115.445992 78.064264 
L 118.165643 81.13262 
L 120.885294 84.213914 
L 123.604945 87.308036 
L 126.324596 90.415485 
L 129.044247 93.534525 
L 131.763898 96.671845 
L 134.483549 99.787149 
L 137.2032 102.879675 
L 139.922851 105.989103 
L 142.642502 109.108876 
L 145.362153 112.240714 
L 148.081804 115.384059 
L 150.801455 118.538889 
L 153.521107 121.704965 
L 156.240758 124.882026 
L 158.960409 128.069746 
L 161.68006 131.267761 
L 164.399711 134.475675 
L 167.119362 137.693071 
L 169.839013 140.919529 
L 172.558664 144.15463 
L 175.278315 147.397967 
L 177.997966 150.649142 
L 180.717617 153.907763 
L 183.437268 157.17343 
L 186.156919 160.445726 
L 188.87657 163.724195 
L 191.596221 167.008324 
L 194.315872 170.297519 
L 197.035523 173.591091 
L 199.755174 176.888242 
L 202.474826 180.188052 
L 205.194477 183.489484 
L 207.914128 186.791381 
L 210.633779 190.09248 
L 213.35343 193.391432 
L 216.073081 196.686815 
L 218.792732 199.977159 
L 221.512383 203.260963 
L 224.232034 206.536705 
L 226.951685 209.802855 
L 229.671336 213.057853 
L 232.390987 216.300108 
L 235.110638 219.527959 
L 237.830289 222.739633 
L 240.54994 225.933199 
L 243.269591 229.10651 
L 245.989242 232.25715 
L 248.708893 235.382388 
L 251.428545 238.479145 
L 254.148196 241.543974 
L 256.867847 244.573076 
L 259.587498 247.562323 
L 262.307149 250.50732 
L 265.0268 253.403471 
L 267.746451 256.246064 
L 270.466102 259.030343 
L 273.185753 261.751556 
L 275.905404 264.404976 
L 278.625055 266.985857 
L 281.344706 269.489325 
L 284.064357 271.910222 
L 286.784008 274.24288 
L 289.503659 276.480883 
L 292.22331 278.616858 
L 294.942961 280.642356 
L 297.662612 282.547896 
L 300.382264 284.323244 
L 303.101915 285.957977 
L 305.821566 287.442314 
L 308.541217 288.768124 
L 311.260868 289.92989 
L 313.980519 290.925302 
L 316.70017 291.755017 
L 319.419821 292.421154 
L 322.139472 292.924507 
L 324.859123 293.261492 
L 327.578774 293.423476 
L 330.298425 293.407557 
L 333.018076 293.248277 
L 335.737727 293.119261 
" clip-path="url(#p6705bbd1a8)" style="fill: none; stroke: #1f77b4; stroke-width: 1.5; stroke-linecap: square"/>
   </g>
   <g id="line2d_28">
    <path d="M 66.492273 24.765455 
L 69.211924 27.458036 
L 71.931575 30.154766 
L 74.651226 32.856519 
L 77.370877 35.564298 
L 80.090528 38.278943 
L 82.810179 41.001116 
L 85.52983 43.731351 
L 88.249481 46.470122 
L 90.969132 49.217894 
L 93.688783 51.975139 
L 96.408434 54.742335 
L 99.128085 57.51995 
L 101.847736 60.308412 
L 104.567388 63.108091 
L 107.287039 65.919286 
L 110.00669 68.742214 
L 112.726341 71.577022 
L 115.445992 74.423798 
L 118.165643 77.282576 
L 120.885294 80.153409 
L 123.604945 83.036193 
L 126.324596 85.931394 
L 129.044247 88.837394 
L 131.763898 91.760427 
L 134.483549 94.662946 
L 137.2032 97.544244 
L 139.922851 100.441288 
L 142.642502 103.347971 
L 145.362153 106.265896 
L 148.081804 109.194541 
L 150.801455 112.133887 
L 153.521107 115.083711 
L 156.240758 118.043769 
L 158.960409 121.013758 
L 161.68006 123.99334 
L 164.399711 126.982143 
L 167.119362 129.979781 
L 169.839013 132.985863 
L 172.558664 135.999997 
L 175.278315 139.021805 
L 177.997966 142.050915 
L 180.717617 145.086963 
L 183.437268 148.129575 
L 186.156919 151.178363 
L 188.87657 154.232904 
L 191.596221 157.292717 
L 194.315872 160.35725 
L 197.035523 163.425861 
L 199.755174 166.497807 
L 202.474826 169.57223 
L 205.194477 172.648165 
L 207.914128 175.724532 
L 210.633779 178.800157 
L 213.35343 181.87378 
L 216.073081 184.944079 
L 218.792732 188.009683 
L 221.512383 191.069194 
L 224.232034 194.121192 
L 226.951685 197.164255 
L 229.671336 200.196927 
L 232.390987 203.217727 
L 235.110638 206.225105 
L 237.830289 209.217413 
L 240.54994 212.192849 
L 243.269591 215.149413 
L 245.989242 218.084855 
L 248.708893 220.99663 
L 251.428545 223.881869 
L 254.148196 226.737362 
L 256.867847 229.559567 
L 259.587498 232.34464 
L 262.307149 235.088485 
L 265.0268 237.78682 
L 267.746451 240.435256 
L 270.466102 243.02936 
L 273.185753 245.564707 
L 275.905404 248.036891 
L 278.625055 250.441489 
L 281.344706 252.773963 
L 284.064357 255.029506 
L 286.784008 257.202837 
L 289.503659 259.287977 
L 292.22331 261.278058 
L 294.942961 263.165209 
L 297.662612 264.940595 
L 300.382264 266.594681 
L 303.101915 268.117757 
L 305.821566 269.50071 
L 308.541217 270.735964 
L 311.260868 271.818377 
L 313.980519 272.7458 
L 316.70017 273.518843 
L 319.419821 274.139481 
L 322.139472 274.608453 
L 324.859123 274.922421 
L 327.578774 275.073341 
L 330.298425 275.058509 
L 333.018076 274.910109 
L 335.737727 274.789905 
" clip-path="url(#p6705bbd1a8)" style="fill: none; stroke: #ff7f0e; stroke-width: 1.5; stroke-linecap: square"/>
   </g>
   <g id="line2d_29">
    <path d="M 66.492273 24.765455 
L 69.211924 27.523834 
L 71.931575 30.286463 
L 74.651226 33.054238 
L 77.370877 35.828187 
L 80.090528 38.609169 
L 82.810179 41.397863 
L 85.52983 44.194816 
L 88.249481 47.000514 
L 90.969132 49.815432 
L 93.688783 52.640055 
L 96.408434 55.474873 
L 99.128085 58.320363 
L 101.847736 61.176966 
L 104.567388 64.045061 
L 107.287039 66.924952 
L 110.00669 69.816863 
L 112.726341 72.720945 
L 115.445992 75.637287 
L 118.165643 78.565924 
L 120.885294 81.506911 
L 123.604945 84.460141 
L 126.324596 87.426091 
L 129.044247 90.403104 
L 131.763898 93.397566 
L 134.483549 96.371014 
L 137.2032 99.322721 
L 139.922851 102.29056 
L 142.642502 105.268273 
L 145.362153 108.257502 
L 148.081804 111.257714 
L 150.801455 114.268888 
L 153.521107 117.290796 
L 156.240758 120.323188 
L 158.960409 123.365754 
L 161.68006 126.418147 
L 164.399711 129.479987 
L 167.119362 132.550878 
L 169.839013 135.630418 
L 172.558664 138.718208 
L 175.278315 141.813859 
L 177.997966 144.916991 
L 180.717617 148.027229 
L 183.437268 151.144193 
L 186.156919 154.267484 
L 188.87657 157.396668 
L 191.596221 160.531253 
L 194.315872 163.670673 
L 197.035523 166.814271 
L 199.755174 169.961285 
L 202.474826 173.110838 
L 205.194477 176.261938 
L 207.914128 179.413482 
L 210.633779 182.564264 
L 213.35343 185.712997 
L 216.073081 188.858324 
L 218.792732 191.998842 
L 221.512383 195.133117 
L 224.232034 198.259696 
L 226.951685 201.377121 
L 229.671336 204.483902 
L 232.390987 207.578521 
L 235.110638 210.65939 
L 237.830289 213.724819 
L 240.54994 216.772966 
L 243.269591 219.801779 
L 245.989242 222.808953 
L 248.708893 225.791883 
L 251.428545 228.747628 
L 254.148196 231.6729 
L 256.867847 234.56407 
L 259.587498 237.417201 
L 262.307149 240.228096 
L 265.0268 242.992371 
L 267.746451 245.705525 
L 270.466102 248.363021 
L 273.185753 250.960323 
L 275.905404 253.492919 
L 278.625055 255.956278 
L 281.344706 258.34575 
L 284.064357 260.656411 
L 286.784008 262.882851 
L 289.503659 265.018945 
L 292.22331 267.057658 
L 294.942961 268.990925 
L 297.662612 270.809695 
L 300.382264 272.504202 
L 303.101915 274.064497 
L 305.821566 275.481244 
L 308.541217 276.746684 
L 311.260868 277.855548 
L 313.980519 278.805634 
L 316.70017 279.597568 
L 319.419821 280.233372 
L 322.139472 280.713804 
L 324.859123 281.035444 
L 327.578774 281.190052 
L 330.298425 281.174858 
L 333.018076 281.022831 
L 335.737727 280.899691 
" clip-path="url(#p6705bbd1a8)" style="fill: none; stroke: #2ca02c; stroke-width: 1.5; stroke-linecap: square"/>
   </g>
   <g id="line2d_30">
    <path d="M 53.03 304.074545 
L 349.2 304.074545 
" clip-path="url(#p6705bbd1a8)" style="fill: none; stroke-dasharray: 2,2; stroke-dashoffset: 0; stroke: #ff0000"/>
   </g>
   <g id="patch_3">
    <path d="M 53.03 318.04 
L 53.03 10.8 
" style="fill: none; stroke: #000000; stroke-width: 0.8; stroke-linejoin: miter; stroke-linecap: square"/>
   </g>
   <g id="patch_4">
    <path d="M 349.2 318.04 
L 349.2 10.8 
" style="fill: none; stroke: #000000; stroke-width: 0.8; stroke-linejoin: miter; stroke-linecap: square"/>
   </g>
   <g id="patch_5">
    <path d="M 53.03 318.04 
L 349.2 318.04 
" style="fill: none; stroke: #000000; stroke-width: 0.8; stroke-linejoin: miter; stroke-linecap: square"/>
   </g>
   <g id="patch_6">
    <path d="M 53.03 10.8 
L 349.2 10.8 
" style="fill: none; stroke: #000000; stroke-width: 0.8; stroke-linejoin: miter; stroke-linecap: square"/>
   </g>
   <g id="legend_1">
    <g id="patch_7">
     <path d="M 247.151562 77.5125 
L 342.2 77.5125 
Q 344.2 77.5125 344.2 75.5125 
L 344.2 17.8 
Q 344.2 15.8 342.2 15.8 
L 247.151562 15.8 
Q 245.151562 15.8 245.151562 17.8 
L 245.151562 75.5125 
Q 245.151562 77.5125 247.151562 77.5125 
z
" style="fill: #ffffff; opacity: 0.8; stroke: #cccccc; stroke-linejoin: miter"/>
    </g>
    <g id="line2d_31">
     <path d="M 249.151562 23.898438 
L 259.151562 23.898438 
L 269.151562 23.898438 
" style="fill: none; stroke: #1f77b4; stroke-width: 1.5; stroke-linecap: square"/>
    </g>
    <g id="text_16">
     <!-- Design 1 -->
     <g transform="translate(277.151562 27.398438) scale(0.1 -0.1)">
      <defs>
       <path id="DejaVuSans-44" d="M 1259 4147 
L 1259 519 
L 2022 519 
Q 2988 519 3436 956 
Q 3884 1394 3884 2338 
Q 3884 3275 3436 3711 
Q 2988 4147 2022 4147 
L 1259 4147 
z
M 628 4666 
L 1925 4666 
Q 3281 4666 3915 4102 
Q 4550 3538 4550 2338 
Q 4550 1131 3912 565 
Q 3275 0 1925 0 
L 628 0 
L 628 4666 
z
" transform="scale(0.015625)"/>
      </defs>
      <use xlink:href="#DejaVuSans-44"/>
      <use xlink:href="#DejaVuSans-65" x="77.001953"/>
      <use xlink:href="#DejaVuSans-73" x="138.525391"/>
      <use xlink:href="#DejaVuSans-69" x="190.625"/>
      <use xlink:href="#DejaVuSans-67" x="218.408203"/>
      <use xlink:href="#DejaVuSans-6e" x="281.884766"/>
      <use xlink:href="#DejaVuSans-20" x="345.263672"/>
      <use xlink:href="#DejaVuSans-31" x="377.050781"/>
     </g>
    </g>
    <g id="line2d_32">
     <path d="M 249.151562 38.576563 
L 259.151562 38.576563 
L 269.151562 38.576563 
" style="fill: none; stroke: #ff7f0e; stroke-width: 1.5; stroke-linecap: square"/>
    </g>
    <g id="text_17">
     <!-- Design 2 -->
     <g transform="translate(277.151562 42.076563) scale(0.1 -0.1)">
      <use xlink:href="#DejaVuSans-44"/>
      <use xlink:href="#DejaVuSans-65" x="77.001953"/>
      <use xlink:href="#DejaVuSans-73" x="138.525391"/>
      <use xlink:href="#DejaVuSans-69" x="190.625"/>
      <use xlink:href="#DejaVuSans-67" x="218.408203"/>
      <use xlink:href="#DejaVuSans-6e" x="281.884766"/>
      <use xlink:href="#DejaVuSans-20" x="345.263672"/>
      <use xlink:href="#DejaVuSans-32" x="377.050781"/>
     </g>
    </g>
    <g id="line2d_33">
     <path d="M 249.151562 53.254687 
L 259.151562 53.254687 
L 269.151562 53.254687 
" style="fill: none; stroke: #2ca02c; stroke-width: 1.5; stroke-linecap: square"/>
    </g>
    <g id="text_18">
     <!-- Design 3 -->
     <g transform="translate(277.151562 56.754687) scale(0.1 -0.1)">
      <defs>
       <path id="DejaVuSans-33" d="M 2597 2516 
Q 3050 2419 3304 2112 
Q 3559 1806 3559 1356 
Q 3559 666 3084 287 
Q 2609 -91 1734 -91 
Q 1441 -91 1130 -33 
Q 819 25 488 141 
L 488 750 
Q 750 597 1062 519 
Q 1375 441 1716 441 
Q 2309 441 2620 675 
Q 2931 909 2931 1356 
Q 2931 1769 2642 2001 
Q 2353 2234 1838 2234 
L 1294 2234 
L 1294 2753 
L 1863 2753 
Q 2328 2753 2575 2939 
Q 2822 3125 2822 3475 
Q 2822 3834 2567 4026 
Q 2313 4219 1838 4219 
Q 1578 4219 1281 4162 
Q 984 4106 628 3988 
L 628 4550 
Q 988 4650 1302 4700 
Q 1616 4750 1894 4750 
Q 2613 4750 3031 4423 
Q 3450 4097 3450 3541 
Q 3450 3153 3228 2886 
Q 3006 2619 2597 2516 
z
" transform="scale(0.015625)"/>
      </defs>
      <use xlink:href="#DejaVuSans-44"/>
      <use xlink:href="#DejaVuSans-65" x="77.001953"/>
      <use xlink:href="#DejaVuSans-73" x="138.525391"/>
      <use xlink:href="#DejaVuSans-69" x="190.625"/>
      <use xlink:href="#DejaVuSans-67" x="218.408203"/>
      <use xlink:href="#DejaVuSans-6e" x="281.884766"/>
      <use xlink:href="#DejaVuSans-20" x="345.263672"/>
      <use xlink:href="#DejaVuSans-33" x="377.050781"/>
     </g>
    </g>
    <g id="line2d_34">
     <path d="M 249.151562 67.932813 
L 259.151562 67.932813 
L 269.151562 67.932813 
" style="fill: none; stroke-dasharray: 2,2; stroke-dashoffset: 0; stroke: #ff0000"/>
    </g>
    <g id="text_19">
     <!-- Max Allowed -->
     <g transform="translate(277.151562 71.432813) scale(0.1 -0.1)">
      <defs>
       <path id="DejaVuSans-4d" d="M 628 4666 
L 1569 4666 
L 2759 1491 
L 3956 4666 
L 4897 4666 
L 4897 0 
L 4281 0 
L 4281 4097 
L 3078 897 
L 2444 897 
L 1241 4097 
L 1241 0 
L 628 0 
L 628 4666 
z
" transform="scale(0.015625)"/>
       <path id="DejaVuSans-78" d="M 3513 3500 
L 2247 1797 
L 3578 0 
L 2900 0 
L 1881 1375 
L 863 0 
L 184 0 
L 1544 1831 
L 300 3500 
L 978 3500 
L 1906 2253 
L 2834 3500 
L 3513 3500 
z
" transform="scale(0.015625)"/>
       <path id="DejaVuSans-41" d="M 2188 4044 
L 1331 1722 
L 3047 1722 
L 2188 4044 
z
M 1831 4666 
L 2547 4666 
L 4325 0 
L 3669 0 
L 3244 1197 
L 1141 1197 
L 716 0 
L 50 0 
L 1831 4666 
z
" transform="scale(0.015625)"/>
       <path id="DejaVuSans-6c" d="M 603 4863 
L 1178 4863 
L 1178 0 
L 603 0 
L 603 4863 
z
" transform="scale(0.015625)"/>
      </defs>
      <use xlink:href="#DejaVuSans-4d"/>
      <use xlink:href="#DejaVuSans-61" x="86.279297"/>
      <use xlink:href="#DejaVuSans-78" x="147.558594"/>
      <use xlink:href="#DejaVuSans-20" x="206.738281"/>
      <use xlink:href="#DejaVuSans-41" x="238.525391"/>
      <use xlink:href="#DejaVuSans-6c" x="306.933594"/>
      <use xlink:href="#DejaVuSans-6c" x="334.716797"/>
      <use xlink:href="#DejaVuSans-6f" x="362.5"/>
      <use xlink:href="#DejaVuSans-77" x="423.681641"/>
      <use xlink:href="#DejaVuSans-65" x="505.46875"/>
      <use xlink:href="#DejaVuSans-64" x="566.992188"/>
     </g>
    </g>
   </g>
  </g>
 </g>
 <defs>
  <clipPath id="p6705bbd1a8">
   <rect x="53.03" y="10.8" width="296.17" height="307.24"/>
  </clipPath>
 </defs>
</svg>
