<?xml version="1.0" encoding="utf-8" standalone="no"?>
<!DOCTYPE svg PUBLIC "-//W3C//DTD SVG 1.1//EN"
  "http://www.w3.org/Graphics/SVG/1.1/DTD/svg11.dtd">
<svg xmlns:xlink="http://www.w3.org/1999/xlink" width="460.8pt" height="345.6pt" viewBox="0 0 460.8 345.6" xmlns="http://www.w3.org/2000/svg" version="1.1">
 <metadata>
  <rdf:RDF xmlns:dc="http://purl.org/dc/elements/1.1/" xmlns:cc="http://creativecommons.org/ns#" xmlns:rdf="http://www.w3.org/1999/02/22-rdf-syntax-ns#">
   <cc:Work>
    <dc:type rdf:resource="http://purl.org/dc/dcmitype/StillImage"/>
    <dc:date>2025-01-08T23:23:17.980019</dc:date>
    <dc:format>image/svg+xml</dc:format>
    <dc:creator>
     <cc:Agent>
      <dc:title>Matplotlib v3.9.2, https://matplotlib.org/</dc:title>
     </cc:Agent>
    </dc:creator>
   </cc:Work>
  </rdf:RDF>
 </metadata>
 <defs>
  <style type="text/css">*{stroke-linejoin: round; stroke-linecap: butt}</style>
 </defs>
 <g id="figure_1">
  <g id="patch_1">
   <path d="M 0 345.6 
L 460.8 345.6 
L 460.8 0 
L 0 0 
z
" style="fill: #ffffff"/>
  </g>
  <g id="axes_1">
   <g id="patch_2">
    <path d="M 57.6 307.584 
L 414.72 307.584 
L 414.72 41.472 
L 57.6 41.472 
z
" style="fill: #ffffff"/>
   </g>
   <g id="matplotlib.axis_1">
    <g id="xtick_1">
     <g id="line2d_1">
      <path d="M 73.832727 307.584 
L 73.832727 41.472 
" clip-path="url(#pa407b418a4)" style="fill: none; stroke: #b0b0b0; stroke-width: 0.8; stroke-linecap: square"/>
     </g>
     <g id="line2d_2">
      <defs>
       <path id="m5a0e6ef361" d="M 0 0 
L 0 3.5 
" style="stroke: #000000; stroke-width: 0.8"/>
      </defs>
      <g>
       <use xlink:href="#m5a0e6ef361" x="73.832727" y="307.584" style="stroke: #000000; stroke-width: 0.8"/>
      </g>
     </g>
     <g id="text_1">
      <!-- 0 -->
      <g transform="translate(70.651477 322.182437) scale(0.1 -0.1)">
       <defs>
        <path id="DejaVuSans-30" d="M 2034 4250 
Q 1547 4250 1301 3770 
Q 1056 3291 1056 2328 
Q 1056 1369 1301 889 
Q 1547 409 2034 409 
Q 2525 409 2770 889 
Q 3016 1369 3016 2328 
Q 3016 3291 2770 3770 
Q 2525 4250 2034 4250 
z
M 2034 4750 
Q 2819 4750 3233 4129 
Q 3647 3509 3647 2328 
Q 3647 1150 3233 529 
Q 2819 -91 2034 -91 
Q 1250 -91 836 529 
Q 422 1150 422 2328 
Q 422 3509 836 4129 
Q 1250 4750 2034 4750 
z
" transform="scale(0.015625)"/>
       </defs>
       <use xlink:href="#DejaVuSans-30"/>
      </g>
     </g>
    </g>
    <g id="xtick_2">
     <g id="line2d_3">
      <path d="M 127.58348 307.584 
L 127.58348 41.472 
" clip-path="url(#pa407b418a4)" style="fill: none; stroke: #b0b0b0; stroke-width: 0.8; stroke-linecap: square"/>
     </g>
     <g id="line2d_4">
      <g>
       <use xlink:href="#m5a0e6ef361" x="127.58348" y="307.584" style="stroke: #000000; stroke-width: 0.8"/>
      </g>
     </g>
     <g id="text_2">
      <!-- 2 -->
      <g transform="translate(124.40223 322.182437) scale(0.1 -0.1)">
       <defs>
        <path id="DejaVuSans-32" d="M 1228 531 
L 3431 531 
L 3431 0 
L 469 0 
L 469 531 
Q 828 903 1448 1529 
Q 2069 2156 2228 2338 
Q 2531 2678 2651 2914 
Q 2772 3150 2772 3378 
Q 2772 3750 2511 3984 
Q 2250 4219 1831 4219 
Q 1534 4219 1204 4116 
Q 875 4013 500 3803 
L 500 4441 
Q 881 4594 1212 4672 
Q 1544 4750 1819 4750 
Q 2544 4750 2975 4387 
Q 3406 4025 3406 3419 
Q 3406 3131 3298 2873 
Q 3191 2616 2906 2266 
Q 2828 2175 2409 1742 
Q 1991 1309 1228 531 
z
" transform="scale(0.015625)"/>
       </defs>
       <use xlink:href="#DejaVuSans-32"/>
      </g>
     </g>
    </g>
    <g id="xtick_3">
     <g id="line2d_5">
      <path d="M 181.334232 307.584 
L 181.334232 41.472 
" clip-path="url(#pa407b418a4)" style="fill: none; stroke: #b0b0b0; stroke-width: 0.8; stroke-linecap: square"/>
     </g>
     <g id="line2d_6">
      <g>
       <use xlink:href="#m5a0e6ef361" x="181.334232" y="307.584" style="stroke: #000000; stroke-width: 0.8"/>
      </g>
     </g>
     <g id="text_3">
      <!-- 4 -->
      <g transform="translate(178.152982 322.182437) scale(0.1 -0.1)">
       <defs>
        <path id="DejaVuSans-34" d="M 2419 4116 
L 825 1625 
L 2419 1625 
L 2419 4116 
z
M 2253 4666 
L 3047 4666 
L 3047 1625 
L 3713 1625 
L 3713 1100 
L 3047 1100 
L 3047 0 
L 2419 0 
L 2419 1100 
L 313 1100 
L 313 1709 
L 2253 4666 
z
" transform="scale(0.015625)"/>
       </defs>
       <use xlink:href="#DejaVuSans-34"/>
      </g>
     </g>
    </g>
    <g id="xtick_4">
     <g id="line2d_7">
      <path d="M 235.084985 307.584 
L 235.084985 41.472 
" clip-path="url(#pa407b418a4)" style="fill: none; stroke: #b0b0b0; stroke-width: 0.8; stroke-linecap: square"/>
     </g>
     <g id="line2d_8">
      <g>
       <use xlink:href="#m5a0e6ef361" x="235.084985" y="307.584" style="stroke: #000000; stroke-width: 0.8"/>
      </g>
     </g>
     <g id="text_4">
      <!-- 6 -->
      <g transform="translate(231.903735 322.182437) scale(0.1 -0.1)">
       <defs>
        <path id="DejaVuSans-36" d="M 2113 2584 
Q 1688 2584 1439 2293 
Q 1191 2003 1191 1497 
Q 1191 994 1439 701 
Q 1688 409 2113 409 
Q 2538 409 2786 701 
Q 3034 994 3034 1497 
Q 3034 2003 2786 2293 
Q 2538 2584 2113 2584 
z
M 3366 4563 
L 3366 3988 
Q 3128 4100 2886 4159 
Q 2644 4219 2406 4219 
Q 1781 4219 1451 3797 
Q 1122 3375 1075 2522 
Q 1259 2794 1537 2939 
Q 1816 3084 2150 3084 
Q 2853 3084 3261 2657 
Q 3669 2231 3669 1497 
Q 3669 778 3244 343 
Q 2819 -91 2113 -91 
Q 1303 -91 875 529 
Q 447 1150 447 2328 
Q 447 3434 972 4092 
Q 1497 4750 2381 4750 
Q 2619 4750 2861 4703 
Q 3103 4656 3366 4563 
z
" transform="scale(0.015625)"/>
       </defs>
       <use xlink:href="#DejaVuSans-36"/>
      </g>
     </g>
    </g>
    <g id="xtick_5">
     <g id="line2d_9">
      <path d="M 288.835738 307.584 
L 288.835738 41.472 
" clip-path="url(#pa407b418a4)" style="fill: none; stroke: #b0b0b0; stroke-width: 0.8; stroke-linecap: square"/>
     </g>
     <g id="line2d_10">
      <g>
       <use xlink:href="#m5a0e6ef361" x="288.835738" y="307.584" style="stroke: #000000; stroke-width: 0.8"/>
      </g>
     </g>
     <g id="text_5">
      <!-- 8 -->
      <g transform="translate(285.654488 322.182437) scale(0.1 -0.1)">
       <defs>
        <path id="DejaVuSans-38" d="M 2034 2216 
Q 1584 2216 1326 1975 
Q 1069 1734 1069 1313 
Q 1069 891 1326 650 
Q 1584 409 2034 409 
Q 2484 409 2743 651 
Q 3003 894 3003 1313 
Q 3003 1734 2745 1975 
Q 2488 2216 2034 2216 
z
M 1403 2484 
Q 997 2584 770 2862 
Q 544 3141 544 3541 
Q 544 4100 942 4425 
Q 1341 4750 2034 4750 
Q 2731 4750 3128 4425 
Q 3525 4100 3525 3541 
Q 3525 3141 3298 2862 
Q 3072 2584 2669 2484 
Q 3125 2378 3379 2068 
Q 3634 1759 3634 1313 
Q 3634 634 3220 271 
Q 2806 -91 2034 -91 
Q 1263 -91 848 271 
Q 434 634 434 1313 
Q 434 1759 690 2068 
Q 947 2378 1403 2484 
z
M 1172 3481 
Q 1172 3119 1398 2916 
Q 1625 2713 2034 2713 
Q 2441 2713 2670 2916 
Q 2900 3119 2900 3481 
Q 2900 3844 2670 4047 
Q 2441 4250 2034 4250 
Q 1625 4250 1398 4047 
Q 1172 3844 1172 3481 
z
" transform="scale(0.015625)"/>
       </defs>
       <use xlink:href="#DejaVuSans-38"/>
      </g>
     </g>
    </g>
    <g id="xtick_6">
     <g id="line2d_11">
      <path d="M 342.58649 307.584 
L 342.58649 41.472 
" clip-path="url(#pa407b418a4)" style="fill: none; stroke: #b0b0b0; stroke-width: 0.8; stroke-linecap: square"/>
     </g>
     <g id="line2d_12">
      <g>
       <use xlink:href="#m5a0e6ef361" x="342.58649" y="307.584" style="stroke: #000000; stroke-width: 0.8"/>
      </g>
     </g>
     <g id="text_6">
      <!-- 10 -->
      <g transform="translate(336.22399 322.182437) scale(0.1 -0.1)">
       <defs>
        <path id="DejaVuSans-31" d="M 794 531 
L 1825 531 
L 1825 4091 
L 703 3866 
L 703 4441 
L 1819 4666 
L 2450 4666 
L 2450 531 
L 3481 531 
L 3481 0 
L 794 0 
L 794 531 
z
" transform="scale(0.015625)"/>
       </defs>
       <use xlink:href="#DejaVuSans-31"/>
       <use xlink:href="#DejaVuSans-30" x="63.623047"/>
      </g>
     </g>
    </g>
    <g id="xtick_7">
     <g id="line2d_13">
      <path d="M 396.337243 307.584 
L 396.337243 41.472 
" clip-path="url(#pa407b418a4)" style="fill: none; stroke: #b0b0b0; stroke-width: 0.8; stroke-linecap: square"/>
     </g>
     <g id="line2d_14">
      <g>
       <use xlink:href="#m5a0e6ef361" x="396.337243" y="307.584" style="stroke: #000000; stroke-width: 0.8"/>
      </g>
     </g>
     <g id="text_7">
      <!-- 12 -->
      <g transform="translate(389.974743 322.182437) scale(0.1 -0.1)">
       <use xlink:href="#DejaVuSans-31"/>
       <use xlink:href="#DejaVuSans-32" x="63.623047"/>
      </g>
     </g>
    </g>
    <g id="text_8">
     <!-- Span wise position [m] -->
     <g transform="translate(179.075625 335.860562) scale(0.1 -0.1)">
      <defs>
       <path id="DejaVuSans-53" d="M 3425 4513 
L 3425 3897 
Q 3066 4069 2747 4153 
Q 2428 4238 2131 4238 
Q 1616 4238 1336 4038 
Q 1056 3838 1056 3469 
Q 1056 3159 1242 3001 
Q 1428 2844 1947 2747 
L 2328 2669 
Q 3034 2534 3370 2195 
Q 3706 1856 3706 1288 
Q 3706 609 3251 259 
Q 2797 -91 1919 -91 
Q 1588 -91 1214 -16 
Q 841 59 441 206 
L 441 856 
Q 825 641 1194 531 
Q 1563 422 1919 422 
Q 2459 422 2753 634 
Q 3047 847 3047 1241 
Q 3047 1584 2836 1778 
Q 2625 1972 2144 2069 
L 1759 2144 
Q 1053 2284 737 2584 
Q 422 2884 422 3419 
Q 422 4038 858 4394 
Q 1294 4750 2059 4750 
Q 2388 4750 2728 4690 
Q 3069 4631 3425 4513 
z
" transform="scale(0.015625)"/>
       <path id="DejaVuSans-70" d="M 1159 525 
L 1159 -1331 
L 581 -1331 
L 581 3500 
L 1159 3500 
L 1159 2969 
Q 1341 3281 1617 3432 
Q 1894 3584 2278 3584 
Q 2916 3584 3314 3078 
Q 3713 2572 3713 1747 
Q 3713 922 3314 415 
Q 2916 -91 2278 -91 
Q 1894 -91 1617 61 
Q 1341 213 1159 525 
z
M 3116 1747 
Q 3116 2381 2855 2742 
Q 2594 3103 2138 3103 
Q 1681 3103 1420 2742 
Q 1159 2381 1159 1747 
Q 1159 1113 1420 752 
Q 1681 391 2138 391 
Q 2594 391 2855 752 
Q 3116 1113 3116 1747 
z
" transform="scale(0.015625)"/>
       <path id="DejaVuSans-61" d="M 2194 1759 
Q 1497 1759 1228 1600 
Q 959 1441 959 1056 
Q 959 750 1161 570 
Q 1363 391 1709 391 
Q 2188 391 2477 730 
Q 2766 1069 2766 1631 
L 2766 1759 
L 2194 1759 
z
M 3341 1997 
L 3341 0 
L 2766 0 
L 2766 531 
Q 2569 213 2275 61 
Q 1981 -91 1556 -91 
Q 1019 -91 701 211 
Q 384 513 384 1019 
Q 384 1609 779 1909 
Q 1175 2209 1959 2209 
L 2766 2209 
L 2766 2266 
Q 2766 2663 2505 2880 
Q 2244 3097 1772 3097 
Q 1472 3097 1187 3025 
Q 903 2953 641 2809 
L 641 3341 
Q 956 3463 1253 3523 
Q 1550 3584 1831 3584 
Q 2591 3584 2966 3190 
Q 3341 2797 3341 1997 
z
" transform="scale(0.015625)"/>
       <path id="DejaVuSans-6e" d="M 3513 2113 
L 3513 0 
L 2938 0 
L 2938 2094 
Q 2938 2591 2744 2837 
Q 2550 3084 2163 3084 
Q 1697 3084 1428 2787 
Q 1159 2491 1159 1978 
L 1159 0 
L 581 0 
L 581 3500 
L 1159 3500 
L 1159 2956 
Q 1366 3272 1645 3428 
Q 1925 3584 2291 3584 
Q 2894 3584 3203 3211 
Q 3513 2838 3513 2113 
z
" transform="scale(0.015625)"/>
       <path id="DejaVuSans-20" transform="scale(0.015625)"/>
       <path id="DejaVuSans-77" d="M 269 3500 
L 844 3500 
L 1563 769 
L 2278 3500 
L 2956 3500 
L 3675 769 
L 4391 3500 
L 4966 3500 
L 4050 0 
L 3372 0 
L 2619 2869 
L 1863 0 
L 1184 0 
L 269 3500 
z
" transform="scale(0.015625)"/>
       <path id="DejaVuSans-69" d="M 603 3500 
L 1178 3500 
L 1178 0 
L 603 0 
L 603 3500 
z
M 603 4863 
L 1178 4863 
L 1178 4134 
L 603 4134 
L 603 4863 
z
" transform="scale(0.015625)"/>
       <path id="DejaVuSans-73" d="M 2834 3397 
L 2834 2853 
Q 2591 2978 2328 3040 
Q 2066 3103 1784 3103 
Q 1356 3103 1142 2972 
Q 928 2841 928 2578 
Q 928 2378 1081 2264 
Q 1234 2150 1697 2047 
L 1894 2003 
Q 2506 1872 2764 1633 
Q 3022 1394 3022 966 
Q 3022 478 2636 193 
Q 2250 -91 1575 -91 
Q 1294 -91 989 -36 
Q 684 19 347 128 
L 347 722 
Q 666 556 975 473 
Q 1284 391 1588 391 
Q 1994 391 2212 530 
Q 2431 669 2431 922 
Q 2431 1156 2273 1281 
Q 2116 1406 1581 1522 
L 1381 1569 
Q 847 1681 609 1914 
Q 372 2147 372 2553 
Q 372 3047 722 3315 
Q 1072 3584 1716 3584 
Q 2034 3584 2315 3537 
Q 2597 3491 2834 3397 
z
" transform="scale(0.015625)"/>
       <path id="DejaVuSans-65" d="M 3597 1894 
L 3597 1613 
L 953 1613 
Q 991 1019 1311 708 
Q 1631 397 2203 397 
Q 2534 397 2845 478 
Q 3156 559 3463 722 
L 3463 178 
Q 3153 47 2828 -22 
Q 2503 -91 2169 -91 
Q 1331 -91 842 396 
Q 353 884 353 1716 
Q 353 2575 817 3079 
Q 1281 3584 2069 3584 
Q 2775 3584 3186 3129 
Q 3597 2675 3597 1894 
z
M 3022 2063 
Q 3016 2534 2758 2815 
Q 2500 3097 2075 3097 
Q 1594 3097 1305 2825 
Q 1016 2553 972 2059 
L 3022 2063 
z
" transform="scale(0.015625)"/>
       <path id="DejaVuSans-6f" d="M 1959 3097 
Q 1497 3097 1228 2736 
Q 959 2375 959 1747 
Q 959 1119 1226 758 
Q 1494 397 1959 397 
Q 2419 397 2687 759 
Q 2956 1122 2956 1747 
Q 2956 2369 2687 2733 
Q 2419 3097 1959 3097 
z
M 1959 3584 
Q 2709 3584 3137 3096 
Q 3566 2609 3566 1747 
Q 3566 888 3137 398 
Q 2709 -91 1959 -91 
Q 1206 -91 779 398 
Q 353 888 353 1747 
Q 353 2609 779 3096 
Q 1206 3584 1959 3584 
z
" transform="scale(0.015625)"/>
       <path id="DejaVuSans-74" d="M 1172 4494 
L 1172 3500 
L 2356 3500 
L 2356 3053 
L 1172 3053 
L 1172 1153 
Q 1172 725 1289 603 
Q 1406 481 1766 481 
L 2356 481 
L 2356 0 
L 1766 0 
Q 1100 0 847 248 
Q 594 497 594 1153 
L 594 3053 
L 172 3053 
L 172 3500 
L 594 3500 
L 594 4494 
L 1172 4494 
z
" transform="scale(0.015625)"/>
       <path id="DejaVuSans-5b" d="M 550 4863 
L 1875 4863 
L 1875 4416 
L 1125 4416 
L 1125 -397 
L 1875 -397 
L 1875 -844 
L 550 -844 
L 550 4863 
z
" transform="scale(0.015625)"/>
       <path id="DejaVuSans-6d" d="M 3328 2828 
Q 3544 3216 3844 3400 
Q 4144 3584 4550 3584 
Q 5097 3584 5394 3201 
Q 5691 2819 5691 2113 
L 5691 0 
L 5113 0 
L 5113 2094 
Q 5113 2597 4934 2840 
Q 4756 3084 4391 3084 
Q 3944 3084 3684 2787 
Q 3425 2491 3425 1978 
L 3425 0 
L 2847 0 
L 2847 2094 
Q 2847 2600 2669 2842 
Q 2491 3084 2119 3084 
Q 1678 3084 1418 2786 
Q 1159 2488 1159 1978 
L 1159 0 
L 581 0 
L 581 3500 
L 1159 3500 
L 1159 2956 
Q 1356 3278 1631 3431 
Q 1906 3584 2284 3584 
Q 2666 3584 2933 3390 
Q 3200 3197 3328 2828 
z
" transform="scale(0.015625)"/>
       <path id="DejaVuSans-5d" d="M 1947 4863 
L 1947 -844 
L 622 -844 
L 622 -397 
L 1369 -397 
L 1369 4416 
L 622 4416 
L 622 4863 
L 1947 4863 
z
" transform="scale(0.015625)"/>
      </defs>
      <use xlink:href="#DejaVuSans-53"/>
      <use xlink:href="#DejaVuSans-70" x="63.476562"/>
      <use xlink:href="#DejaVuSans-61" x="126.953125"/>
      <use xlink:href="#DejaVuSans-6e" x="188.232422"/>
      <use xlink:href="#DejaVuSans-20" x="251.611328"/>
      <use xlink:href="#DejaVuSans-77" x="283.398438"/>
      <use xlink:href="#DejaVuSans-69" x="365.185547"/>
      <use xlink:href="#DejaVuSans-73" x="392.96875"/>
      <use xlink:href="#DejaVuSans-65" x="445.068359"/>
      <use xlink:href="#DejaVuSans-20" x="506.591797"/>
      <use xlink:href="#DejaVuSans-70" x="538.378906"/>
      <use xlink:href="#DejaVuSans-6f" x="601.855469"/>
      <use xlink:href="#DejaVuSans-73" x="663.037109"/>
      <use xlink:href="#DejaVuSans-69" x="715.136719"/>
      <use xlink:href="#DejaVuSans-74" x="742.919922"/>
      <use xlink:href="#DejaVuSans-69" x="782.128906"/>
      <use xlink:href="#DejaVuSans-6f" x="809.912109"/>
      <use xlink:href="#DejaVuSans-6e" x="871.09375"/>
      <use xlink:href="#DejaVuSans-20" x="934.472656"/>
      <use xlink:href="#DejaVuSans-5b" x="966.259766"/>
      <use xlink:href="#DejaVuSans-6d" x="1005.273438"/>
      <use xlink:href="#DejaVuSans-5d" x="1102.685547"/>
     </g>
    </g>
   </g>
   <g id="matplotlib.axis_2">
    <g id="ytick_1">
     <g id="line2d_15">
      <path d="M 57.6 307.553222 
L 414.72 307.553222 
" clip-path="url(#pa407b418a4)" style="fill: none; stroke: #b0b0b0; stroke-width: 0.8; stroke-linecap: square"/>
     </g>
     <g id="line2d_16">
      <defs>
       <path id="m32abacee13" d="M 0 0 
L -3.5 0 
" style="stroke: #000000; stroke-width: 0.8"/>
      </defs>
      <g>
       <use xlink:href="#m32abacee13" x="57.6" y="307.553222" style="stroke: #000000; stroke-width: 0.8"/>
      </g>
     </g>
     <g id="text_9">
      <!-- 0.0000 -->
      <g transform="translate(15.609375 311.35244) scale(0.1 -0.1)">
       <defs>
        <path id="DejaVuSans-2e" d="M 684 794 
L 1344 794 
L 1344 0 
L 684 0 
L 684 794 
z
" transform="scale(0.015625)"/>
       </defs>
       <use xlink:href="#DejaVuSans-30"/>
       <use xlink:href="#DejaVuSans-2e" x="63.623047"/>
       <use xlink:href="#DejaVuSans-30" x="95.410156"/>
       <use xlink:href="#DejaVuSans-30" x="159.033203"/>
       <use xlink:href="#DejaVuSans-30" x="222.65625"/>
       <use xlink:href="#DejaVuSans-30" x="286.279297"/>
      </g>
     </g>
    </g>
    <g id="ytick_2">
     <g id="line2d_17">
      <path d="M 57.6 273.784541 
L 414.72 273.784541 
" clip-path="url(#pa407b418a4)" style="fill: none; stroke: #b0b0b0; stroke-width: 0.8; stroke-linecap: square"/>
     </g>
     <g id="line2d_18">
      <g>
       <use xlink:href="#m32abacee13" x="57.6" y="273.784541" style="stroke: #000000; stroke-width: 0.8"/>
      </g>
     </g>
     <g id="text_10">
      <!-- 0.0001 -->
      <g transform="translate(15.609375 277.58376) scale(0.1 -0.1)">
       <use xlink:href="#DejaVuSans-30"/>
       <use xlink:href="#DejaVuSans-2e" x="63.623047"/>
       <use xlink:href="#DejaVuSans-30" x="95.410156"/>
       <use xlink:href="#DejaVuSans-30" x="159.033203"/>
       <use xlink:href="#DejaVuSans-30" x="222.65625"/>
       <use xlink:href="#DejaVuSans-31" x="286.279297"/>
      </g>
     </g>
    </g>
    <g id="ytick_3">
     <g id="line2d_19">
      <path d="M 57.6 240.015861 
L 414.72 240.015861 
" clip-path="url(#pa407b418a4)" style="fill: none; stroke: #b0b0b0; stroke-width: 0.8; stroke-linecap: square"/>
     </g>
     <g id="line2d_20">
      <g>
       <use xlink:href="#m32abacee13" x="57.6" y="240.015861" style="stroke: #000000; stroke-width: 0.8"/>
      </g>
     </g>
     <g id="text_11">
      <!-- 0.0002 -->
      <g transform="translate(15.609375 243.81508) scale(0.1 -0.1)">
       <use xlink:href="#DejaVuSans-30"/>
       <use xlink:href="#DejaVuSans-2e" x="63.623047"/>
       <use xlink:href="#DejaVuSans-30" x="95.410156"/>
       <use xlink:href="#DejaVuSans-30" x="159.033203"/>
       <use xlink:href="#DejaVuSans-30" x="222.65625"/>
       <use xlink:href="#DejaVuSans-32" x="286.279297"/>
      </g>
     </g>
    </g>
    <g id="ytick_4">
     <g id="line2d_21">
      <path d="M 57.6 206.247181 
L 414.72 206.247181 
" clip-path="url(#pa407b418a4)" style="fill: none; stroke: #b0b0b0; stroke-width: 0.8; stroke-linecap: square"/>
     </g>
     <g id="line2d_22">
      <g>
       <use xlink:href="#m32abacee13" x="57.6" y="206.247181" style="stroke: #000000; stroke-width: 0.8"/>
      </g>
     </g>
     <g id="text_12">
      <!-- 0.0003 -->
      <g transform="translate(15.609375 210.0464) scale(0.1 -0.1)">
       <defs>
        <path id="DejaVuSans-33" d="M 2597 2516 
Q 3050 2419 3304 2112 
Q 3559 1806 3559 1356 
Q 3559 666 3084 287 
Q 2609 -91 1734 -91 
Q 1441 -91 1130 -33 
Q 819 25 488 141 
L 488 750 
Q 750 597 1062 519 
Q 1375 441 1716 441 
Q 2309 441 2620 675 
Q 2931 909 2931 1356 
Q 2931 1769 2642 2001 
Q 2353 2234 1838 2234 
L 1294 2234 
L 1294 2753 
L 1863 2753 
Q 2328 2753 2575 2939 
Q 2822 3125 2822 3475 
Q 2822 3834 2567 4026 
Q 2313 4219 1838 4219 
Q 1578 4219 1281 4162 
Q 984 4106 628 3988 
L 628 4550 
Q 988 4650 1302 4700 
Q 1616 4750 1894 4750 
Q 2613 4750 3031 4423 
Q 3450 4097 3450 3541 
Q 3450 3153 3228 2886 
Q 3006 2619 2597 2516 
z
" transform="scale(0.015625)"/>
       </defs>
       <use xlink:href="#DejaVuSans-30"/>
       <use xlink:href="#DejaVuSans-2e" x="63.623047"/>
       <use xlink:href="#DejaVuSans-30" x="95.410156"/>
       <use xlink:href="#DejaVuSans-30" x="159.033203"/>
       <use xlink:href="#DejaVuSans-30" x="222.65625"/>
       <use xlink:href="#DejaVuSans-33" x="286.279297"/>
      </g>
     </g>
    </g>
    <g id="ytick_5">
     <g id="line2d_23">
      <path d="M 57.6 172.478501 
L 414.72 172.478501 
" clip-path="url(#pa407b418a4)" style="fill: none; stroke: #b0b0b0; stroke-width: 0.8; stroke-linecap: square"/>
     </g>
     <g id="line2d_24">
      <g>
       <use xlink:href="#m32abacee13" x="57.6" y="172.478501" style="stroke: #000000; stroke-width: 0.8"/>
      </g>
     </g>
     <g id="text_13">
      <!-- 0.0004 -->
      <g transform="translate(15.609375 176.27772) scale(0.1 -0.1)">
       <use xlink:href="#DejaVuSans-30"/>
       <use xlink:href="#DejaVuSans-2e" x="63.623047"/>
       <use xlink:href="#DejaVuSans-30" x="95.410156"/>
       <use xlink:href="#DejaVuSans-30" x="159.033203"/>
       <use xlink:href="#DejaVuSans-30" x="222.65625"/>
       <use xlink:href="#DejaVuSans-34" x="286.279297"/>
      </g>
     </g>
    </g>
    <g id="ytick_6">
     <g id="line2d_25">
      <path d="M 57.6 138.709821 
L 414.72 138.709821 
" clip-path="url(#pa407b418a4)" style="fill: none; stroke: #b0b0b0; stroke-width: 0.8; stroke-linecap: square"/>
     </g>
     <g id="line2d_26">
      <g>
       <use xlink:href="#m32abacee13" x="57.6" y="138.709821" style="stroke: #000000; stroke-width: 0.8"/>
      </g>
     </g>
     <g id="text_14">
      <!-- 0.0005 -->
      <g transform="translate(15.609375 142.50904) scale(0.1 -0.1)">
       <defs>
        <path id="DejaVuSans-35" d="M 691 4666 
L 3169 4666 
L 3169 4134 
L 1269 4134 
L 1269 2991 
Q 1406 3038 1543 3061 
Q 1681 3084 1819 3084 
Q 2600 3084 3056 2656 
Q 3513 2228 3513 1497 
Q 3513 744 3044 326 
Q 2575 -91 1722 -91 
Q 1428 -91 1123 -41 
Q 819 9 494 109 
L 494 744 
Q 775 591 1075 516 
Q 1375 441 1709 441 
Q 2250 441 2565 725 
Q 2881 1009 2881 1497 
Q 2881 1984 2565 2268 
Q 2250 2553 1709 2553 
Q 1456 2553 1204 2497 
Q 953 2441 691 2322 
L 691 4666 
z
" transform="scale(0.015625)"/>
       </defs>
       <use xlink:href="#DejaVuSans-30"/>
       <use xlink:href="#DejaVuSans-2e" x="63.623047"/>
       <use xlink:href="#DejaVuSans-30" x="95.410156"/>
       <use xlink:href="#DejaVuSans-30" x="159.033203"/>
       <use xlink:href="#DejaVuSans-30" x="222.65625"/>
       <use xlink:href="#DejaVuSans-35" x="286.279297"/>
      </g>
     </g>
    </g>
    <g id="ytick_7">
     <g id="line2d_27">
      <path d="M 57.6 104.941141 
L 414.72 104.941141 
" clip-path="url(#pa407b418a4)" style="fill: none; stroke: #b0b0b0; stroke-width: 0.8; stroke-linecap: square"/>
     </g>
     <g id="line2d_28">
      <g>
       <use xlink:href="#m32abacee13" x="57.6" y="104.941141" style="stroke: #000000; stroke-width: 0.8"/>
      </g>
     </g>
     <g id="text_15">
      <!-- 0.0006 -->
      <g transform="translate(15.609375 108.74036) scale(0.1 -0.1)">
       <use xlink:href="#DejaVuSans-30"/>
       <use xlink:href="#DejaVuSans-2e" x="63.623047"/>
       <use xlink:href="#DejaVuSans-30" x="95.410156"/>
       <use xlink:href="#DejaVuSans-30" x="159.033203"/>
       <use xlink:href="#DejaVuSans-30" x="222.65625"/>
       <use xlink:href="#DejaVuSans-36" x="286.279297"/>
      </g>
     </g>
    </g>
    <g id="ytick_8">
     <g id="line2d_29">
      <path d="M 57.6 71.172461 
L 414.72 71.172461 
" clip-path="url(#pa407b418a4)" style="fill: none; stroke: #b0b0b0; stroke-width: 0.8; stroke-linecap: square"/>
     </g>
     <g id="line2d_30">
      <g>
       <use xlink:href="#m32abacee13" x="57.6" y="71.172461" style="stroke: #000000; stroke-width: 0.8"/>
      </g>
     </g>
     <g id="text_16">
      <!-- 0.0007 -->
      <g transform="translate(15.609375 74.97168) scale(0.1 -0.1)">
       <defs>
        <path id="DejaVuSans-37" d="M 525 4666 
L 3525 4666 
L 3525 4397 
L 1831 0 
L 1172 0 
L 2766 4134 
L 525 4134 
L 525 4666 
z
" transform="scale(0.015625)"/>
       </defs>
       <use xlink:href="#DejaVuSans-30"/>
       <use xlink:href="#DejaVuSans-2e" x="63.623047"/>
       <use xlink:href="#DejaVuSans-30" x="95.410156"/>
       <use xlink:href="#DejaVuSans-30" x="159.033203"/>
       <use xlink:href="#DejaVuSans-30" x="222.65625"/>
       <use xlink:href="#DejaVuSans-37" x="286.279297"/>
      </g>
     </g>
    </g>
    <g id="text_17">
     <!-- Area moment of inertia [m$^4$] -->
     <g transform="translate(9.529687 245.628) rotate(-90) scale(0.1 -0.1)">
      <defs>
       <path id="DejaVuSans-41" d="M 2188 4044 
L 1331 1722 
L 3047 1722 
L 2188 4044 
z
M 1831 4666 
L 2547 4666 
L 4325 0 
L 3669 0 
L 3244 1197 
L 1141 1197 
L 716 0 
L 50 0 
L 1831 4666 
z
" transform="scale(0.015625)"/>
       <path id="DejaVuSans-72" d="M 2631 2963 
Q 2534 3019 2420 3045 
Q 2306 3072 2169 3072 
Q 1681 3072 1420 2755 
Q 1159 2438 1159 1844 
L 1159 0 
L 581 0 
L 581 3500 
L 1159 3500 
L 1159 2956 
Q 1341 3275 1631 3429 
Q 1922 3584 2338 3584 
Q 2397 3584 2469 3576 
Q 2541 3569 2628 3553 
L 2631 2963 
z
" transform="scale(0.015625)"/>
       <path id="DejaVuSans-66" d="M 2375 4863 
L 2375 4384 
L 1825 4384 
Q 1516 4384 1395 4259 
Q 1275 4134 1275 3809 
L 1275 3500 
L 2222 3500 
L 2222 3053 
L 1275 3053 
L 1275 0 
L 697 0 
L 697 3053 
L 147 3053 
L 147 3500 
L 697 3500 
L 697 3744 
Q 697 4328 969 4595 
Q 1241 4863 1831 4863 
L 2375 4863 
z
" transform="scale(0.015625)"/>
      </defs>
      <use xlink:href="#DejaVuSans-41" transform="translate(0 0.684375)"/>
      <use xlink:href="#DejaVuSans-72" transform="translate(68.408203 0.684375)"/>
      <use xlink:href="#DejaVuSans-65" transform="translate(109.521484 0.684375)"/>
      <use xlink:href="#DejaVuSans-61" transform="translate(171.044922 0.684375)"/>
      <use xlink:href="#DejaVuSans-20" transform="translate(232.324219 0.684375)"/>
      <use xlink:href="#DejaVuSans-6d" transform="translate(264.111328 0.684375)"/>
      <use xlink:href="#DejaVuSans-6f" transform="translate(361.523438 0.684375)"/>
      <use xlink:href="#DejaVuSans-6d" transform="translate(422.705078 0.684375)"/>
      <use xlink:href="#DejaVuSans-65" transform="translate(520.117188 0.684375)"/>
      <use xlink:href="#DejaVuSans-6e" transform="translate(581.640625 0.684375)"/>
      <use xlink:href="#DejaVuSans-74" transform="translate(645.019531 0.684375)"/>
      <use xlink:href="#DejaVuSans-20" transform="translate(684.228516 0.684375)"/>
      <use xlink:href="#DejaVuSans-6f" transform="translate(716.015625 0.684375)"/>
      <use xlink:href="#DejaVuSans-66" transform="translate(777.197266 0.684375)"/>
      <use xlink:href="#DejaVuSans-20" transform="translate(812.402344 0.684375)"/>
      <use xlink:href="#DejaVuSans-69" transform="translate(844.189453 0.684375)"/>
      <use xlink:href="#DejaVuSans-6e" transform="translate(871.972656 0.684375)"/>
      <use xlink:href="#DejaVuSans-65" transform="translate(935.351562 0.684375)"/>
      <use xlink:href="#DejaVuSans-72" transform="translate(996.875 0.684375)"/>
      <use xlink:href="#DejaVuSans-74" transform="translate(1037.988281 0.684375)"/>
      <use xlink:href="#DejaVuSans-69" transform="translate(1077.197266 0.684375)"/>
      <use xlink:href="#DejaVuSans-61" transform="translate(1104.980469 0.684375)"/>
      <use xlink:href="#DejaVuSans-20" transform="translate(1166.259766 0.684375)"/>
      <use xlink:href="#DejaVuSans-5b" transform="translate(1198.046875 0.684375)"/>
      <use xlink:href="#DejaVuSans-6d" transform="translate(1237.060547 0.684375)"/>
      <use xlink:href="#DejaVuSans-34" transform="translate(1335.429688 38.965625) scale(0.7)"/>
      <use xlink:href="#DejaVuSans-5d" transform="translate(1382.700195 0.684375)"/>
     </g>
    </g>
   </g>
   <g id="line2d_31">
    <path d="M 73.832727 68.514049 
L 77.112066 73.022778 
L 80.391405 77.474687 
L 83.670744 81.870134 
L 86.950083 86.209478 
L 90.229421 90.493078 
L 93.50876 94.721291 
L 96.788099 98.894477 
L 100.067438 103.012995 
L 103.346777 107.077202 
L 106.626116 111.087458 
L 109.905455 115.044121 
L 113.184793 118.94755 
L 116.464132 122.798102 
L 119.743471 126.596138 
L 123.02281 130.342015 
L 126.302149 134.036092 
L 129.581488 137.678728 
L 132.860826 141.27028 
L 136.140165 144.811109 
L 139.419504 148.301572 
L 142.698843 151.742028 
L 145.978182 155.132836 
L 149.257521 158.474354 
L 152.53686 161.76694 
L 155.816198 165.010954 
L 159.095537 168.206754 
L 162.374876 171.354698 
L 165.654215 174.455146 
L 168.933554 177.508455 
L 172.212893 180.514985 
L 175.492231 183.475093 
L 178.77157 186.389139 
L 182.050909 189.257481 
L 185.330248 192.080478 
L 188.609587 194.858488 
L 191.888926 197.59187 
L 195.168264 200.280982 
L 198.447603 202.926184 
L 201.726942 205.527833 
L 205.006281 208.086289 
L 208.28562 210.601909 
L 211.564959 213.075053 
L 214.844298 215.506078 
L 218.123636 217.895345 
L 221.402975 220.24321 
L 224.682314 222.550034 
L 227.961653 224.816174 
L 231.240992 227.041988 
L 234.520331 229.227837 
L 237.799669 231.374077 
L 241.079008 233.481069 
L 244.358347 235.54917 
L 247.637686 237.578738 
L 250.917025 239.570134 
L 254.196364 241.523714 
L 257.475702 243.439838 
L 260.755041 245.318865 
L 264.03438 247.161152 
L 267.313719 248.967059 
L 270.593058 250.736944 
L 273.872397 252.471166 
L 277.151736 254.170083 
L 280.431074 255.834054 
L 283.710413 257.463438 
L 286.989752 259.058592 
L 290.269091 260.619877 
L 293.54843 262.147649 
L 296.827769 263.642269 
L 300.107107 265.104094 
L 303.386446 266.533482 
L 306.665785 267.930794 
L 309.945124 269.296387 
L 313.224463 270.630619 
L 316.503802 271.933851 
L 319.78314 273.206439 
L 323.062479 274.448742 
L 326.341818 275.66112 
L 329.621157 276.843931 
L 332.900496 277.997533 
L 336.179835 279.122285 
L 339.459174 280.218546 
L 342.738512 281.286673 
L 346.017851 282.327027 
L 349.29719 283.339965 
L 352.576529 284.325846 
L 355.855868 285.285028 
L 359.135207 286.217871 
L 362.414545 287.124732 
L 365.693884 288.005971 
L 368.973223 288.861945 
L 372.252562 289.693014 
L 375.531901 290.499536 
L 378.81124 291.28187 
L 382.090579 292.040374 
L 385.369917 292.775407 
L 388.649256 293.487328 
L 391.928595 294.176494 
L 395.207934 294.843266 
L 398.487273 295.488 
" clip-path="url(#pa407b418a4)" style="fill: none; stroke: #1f77b4; stroke-width: 1.5; stroke-linecap: square"/>
   </g>
   <g id="line2d_32">
    <path d="M 73.832727 53.568 
L 77.112066 58.346844 
L 80.391405 63.065633 
L 83.670744 67.724746 
L 86.950083 72.32456 
L 90.229421 76.865453 
L 93.50876 81.347803 
L 96.788099 85.771988 
L 100.067438 90.138385 
L 103.346777 94.447372 
L 106.626116 98.699327 
L 109.905455 102.894627 
L 113.184793 107.033651 
L 116.464132 111.116776 
L 119.743471 115.14438 
L 123.02281 119.116841 
L 126.302149 123.034536 
L 129.581488 126.897843 
L 132.860826 130.70714 
L 136.140165 134.462805 
L 139.419504 138.165215 
L 142.698843 141.814749 
L 145.978182 145.411783 
L 149.257521 148.956697 
L 152.53686 152.449867 
L 155.816198 155.891671 
L 159.095537 159.282487 
L 162.374876 162.622693 
L 165.654215 165.912667 
L 168.933554 169.152785 
L 172.212893 172.343427 
L 175.492231 175.48497 
L 178.77157 178.577792 
L 182.050909 181.62227 
L 185.330248 184.618782 
L 188.609587 187.567706 
L 191.888926 190.469419 
L 195.168264 193.3243 
L 198.447603 196.132727 
L 201.726942 198.895076 
L 205.006281 201.611726 
L 208.28562 204.283054 
L 211.564959 206.909439 
L 214.844298 209.491258 
L 218.123636 212.028888 
L 221.402975 214.522708 
L 224.682314 216.973095 
L 227.961653 219.380428 
L 231.240992 221.745083 
L 234.520331 224.067439 
L 237.799669 226.347873 
L 241.079008 228.586763 
L 244.358347 230.784487 
L 247.637686 232.941423 
L 250.917025 235.057948 
L 254.196364 237.13444 
L 257.475702 239.171277 
L 260.755041 241.168837 
L 264.03438 243.127497 
L 267.313719 245.047636 
L 270.593058 246.92963 
L 273.872397 248.773858 
L 277.151736 250.580698 
L 280.431074 252.350527 
L 283.710413 254.083723 
L 286.989752 255.780664 
L 290.269091 257.441727 
L 293.54843 259.06729 
L 296.827769 260.657732 
L 300.107107 262.213429 
L 303.386446 263.734761 
L 306.665785 265.222103 
L 309.945124 266.675834 
L 313.224463 268.096333 
L 316.503802 269.483976 
L 319.78314 270.839141 
L 323.062479 272.162207 
L 326.341818 273.45355 
L 329.621157 274.71355 
L 332.900496 275.942582 
L 336.179835 277.141026 
L 339.459174 278.309259 
L 342.738512 279.447659 
L 346.017851 280.556603 
L 349.29719 281.636469 
L 352.576529 282.687635 
L 355.855868 283.71048 
L 359.135207 284.705379 
L 362.414545 285.672712 
L 365.693884 286.612856 
L 368.973223 287.526189 
L 372.252562 288.413089 
L 375.531901 289.273933 
L 378.81124 290.109099 
L 382.090579 290.918965 
L 385.369917 291.703908 
L 388.649256 292.464307 
L 391.928595 293.200539 
L 395.207934 293.912982 
L 398.487273 294.602014 
" clip-path="url(#pa407b418a4)" style="fill: none; stroke: #ff7f0e; stroke-width: 1.5; stroke-linecap: square"/>
   </g>
   <g id="line2d_33">
    <path d="M 73.832727 58.052253 
L 77.112066 62.736151 
L 80.391405 67.36134 
L 83.670744 71.928189 
L 86.950083 76.437067 
L 90.229421 80.88834 
L 93.50876 85.282378 
L 96.788099 89.619549 
L 100.067438 93.900221 
L 103.346777 98.124761 
L 106.626116 102.293539 
L 109.905455 106.406922 
L 113.184793 110.465279 
L 116.464132 114.468977 
L 119.743471 118.418385 
L 123.02281 122.313871 
L 126.302149 126.155804 
L 129.581488 129.944551 
L 132.860826 133.68048 
L 136.140165 137.363961 
L 139.419504 140.99536 
L 142.698843 144.575046 
L 145.978182 148.103388 
L 149.257521 151.580753 
L 152.53686 155.00751 
L 155.816198 158.384027 
L 159.095537 161.710672 
L 162.374876 164.987812 
L 165.654215 168.215818 
L 168.933554 171.395056 
L 172.212893 174.525894 
L 175.492231 177.608702 
L 178.77157 180.643846 
L 182.050909 183.631696 
L 185.330248 186.572619 
L 188.609587 189.466984 
L 191.888926 192.315159 
L 195.168264 195.117512 
L 198.447603 197.87441 
L 201.726942 200.586224 
L 205.006281 203.253319 
L 208.28562 205.876066 
L 211.564959 208.454831 
L 214.844298 210.989983 
L 218.123636 213.481891 
L 221.402975 215.930921 
L 224.682314 218.337444 
L 227.961653 220.701826 
L 231.240992 223.024436 
L 234.520331 225.305642 
L 237.799669 227.545813 
L 241.079008 229.745316 
L 244.358347 231.90452 
L 247.637686 234.023792 
L 250.917025 236.103501 
L 254.196364 238.144016 
L 257.475702 240.145704 
L 260.755041 242.108933 
L 264.03438 244.034073 
L 267.313719 245.92149 
L 270.593058 247.771553 
L 273.872397 249.58463 
L 277.151736 251.36109 
L 280.431074 253.101301 
L 283.710413 254.80563 
L 286.989752 256.474446 
L 290.269091 258.108117 
L 293.54843 259.707012 
L 296.827769 261.271498 
L 300.107107 262.801943 
L 303.386446 264.298717 
L 306.665785 265.762187 
L 309.945124 267.19272 
L 313.224463 268.590686 
L 316.503802 269.956453 
L 319.78314 271.290389 
L 323.062479 272.592861 
L 326.341818 273.864238 
L 329.621157 275.104889 
L 332.900496 276.315181 
L 336.179835 277.495483 
L 339.459174 278.646162 
L 342.738512 279.767588 
L 346.017851 280.860127 
L 349.29719 281.924149 
L 352.576529 282.960022 
L 355.855868 283.968113 
L 359.135207 284.948791 
L 362.414545 285.902424 
L 365.693884 286.829381 
L 368.973223 287.730028 
L 372.252562 288.604735 
L 375.531901 289.45387 
L 378.81124 290.277801 
L 382.090579 291.076896 
L 385.369917 291.851524 
L 388.649256 292.602052 
L 391.928595 293.328848 
L 395.207934 294.032281 
L 398.487273 294.712719 
" clip-path="url(#pa407b418a4)" style="fill: none; stroke: #2ca02c; stroke-width: 1.5; stroke-linecap: square"/>
   </g>
   <g id="patch_3">
    <path d="M 57.6 307.584 
L 57.6 41.472 
" style="fill: none; stroke: #000000; stroke-width: 0.8; stroke-linejoin: miter; stroke-linecap: square"/>
   </g>
   <g id="patch_4">
    <path d="M 414.72 307.584 
L 414.72 41.472 
" style="fill: none; stroke: #000000; stroke-width: 0.8; stroke-linejoin: miter; stroke-linecap: square"/>
   </g>
   <g id="patch_5">
    <path d="M 57.6 307.584 
L 414.72 307.584 
" style="fill: none; stroke: #000000; stroke-width: 0.8; stroke-linejoin: miter; stroke-linecap: square"/>
   </g>
   <g id="patch_6">
    <path d="M 57.6 41.472 
L 414.72 41.472 
" style="fill: none; stroke: #000000; stroke-width: 0.8; stroke-linejoin: miter; stroke-linecap: square"/>
   </g>
   <g id="legend_1">
    <g id="patch_7">
     <path d="M 272.177813 93.506375 
L 407.72 93.506375 
Q 409.72 93.506375 409.72 91.506375 
L 409.72 48.472 
Q 409.72 46.472 407.72 46.472 
L 272.177813 46.472 
Q 270.177813 46.472 270.177813 48.472 
L 270.177813 91.506375 
Q 270.177813 93.506375 272.177813 93.506375 
z
" style="fill: #ffffff; opacity: 0.8; stroke: #cccccc; stroke-linejoin: miter"/>
    </g>
    <g id="line2d_34">
     <path d="M 274.177813 54.570438 
L 284.177813 54.570438 
L 294.177813 54.570438 
" style="fill: none; stroke: #1f77b4; stroke-width: 1.5; stroke-linecap: square"/>
    </g>
    <g id="text_18">
     <!-- Design 1: I stringers -->
     <g transform="translate(302.177813 58.070438) scale(0.1 -0.1)">
      <defs>
       <path id="DejaVuSans-44" d="M 1259 4147 
L 1259 519 
L 2022 519 
Q 2988 519 3436 956 
Q 3884 1394 3884 2338 
Q 3884 3275 3436 3711 
Q 2988 4147 2022 4147 
L 1259 4147 
z
M 628 4666 
L 1925 4666 
Q 3281 4666 3915 4102 
Q 4550 3538 4550 2338 
Q 4550 1131 3912 565 
Q 3275 0 1925 0 
L 628 0 
L 628 4666 
z
" transform="scale(0.015625)"/>
       <path id="DejaVuSans-67" d="M 2906 1791 
Q 2906 2416 2648 2759 
Q 2391 3103 1925 3103 
Q 1463 3103 1205 2759 
Q 947 2416 947 1791 
Q 947 1169 1205 825 
Q 1463 481 1925 481 
Q 2391 481 2648 825 
Q 2906 1169 2906 1791 
z
M 3481 434 
Q 3481 -459 3084 -895 
Q 2688 -1331 1869 -1331 
Q 1566 -1331 1297 -1286 
Q 1028 -1241 775 -1147 
L 775 -588 
Q 1028 -725 1275 -790 
Q 1522 -856 1778 -856 
Q 2344 -856 2625 -561 
Q 2906 -266 2906 331 
L 2906 616 
Q 2728 306 2450 153 
Q 2172 0 1784 0 
Q 1141 0 747 490 
Q 353 981 353 1791 
Q 353 2603 747 3093 
Q 1141 3584 1784 3584 
Q 2172 3584 2450 3431 
Q 2728 3278 2906 2969 
L 2906 3500 
L 3481 3500 
L 3481 434 
z
" transform="scale(0.015625)"/>
       <path id="DejaVuSans-3a" d="M 750 794 
L 1409 794 
L 1409 0 
L 750 0 
L 750 794 
z
M 750 3309 
L 1409 3309 
L 1409 2516 
L 750 2516 
L 750 3309 
z
" transform="scale(0.015625)"/>
       <path id="DejaVuSans-49" d="M 628 4666 
L 1259 4666 
L 1259 0 
L 628 0 
L 628 4666 
z
" transform="scale(0.015625)"/>
      </defs>
      <use xlink:href="#DejaVuSans-44"/>
      <use xlink:href="#DejaVuSans-65" x="77.001953"/>
      <use xlink:href="#DejaVuSans-73" x="138.525391"/>
      <use xlink:href="#DejaVuSans-69" x="190.625"/>
      <use xlink:href="#DejaVuSans-67" x="218.408203"/>
      <use xlink:href="#DejaVuSans-6e" x="281.884766"/>
      <use xlink:href="#DejaVuSans-20" x="345.263672"/>
      <use xlink:href="#DejaVuSans-31" x="377.050781"/>
      <use xlink:href="#DejaVuSans-3a" x="440.673828"/>
      <use xlink:href="#DejaVuSans-20" x="474.365234"/>
      <use xlink:href="#DejaVuSans-49" x="506.152344"/>
      <use xlink:href="#DejaVuSans-20" x="535.644531"/>
      <use xlink:href="#DejaVuSans-73" x="567.431641"/>
      <use xlink:href="#DejaVuSans-74" x="619.53125"/>
      <use xlink:href="#DejaVuSans-72" x="658.740234"/>
      <use xlink:href="#DejaVuSans-69" x="699.853516"/>
      <use xlink:href="#DejaVuSans-6e" x="727.636719"/>
      <use xlink:href="#DejaVuSans-67" x="791.015625"/>
      <use xlink:href="#DejaVuSans-65" x="854.492188"/>
      <use xlink:href="#DejaVuSans-72" x="916.015625"/>
      <use xlink:href="#DejaVuSans-73" x="957.128906"/>
     </g>
    </g>
    <g id="line2d_35">
     <path d="M 274.177813 69.248563 
L 284.177813 69.248563 
L 294.177813 69.248563 
" style="fill: none; stroke: #ff7f0e; stroke-width: 1.5; stroke-linecap: square"/>
    </g>
    <g id="text_19">
     <!-- Design 2: I stringers -->
     <g transform="translate(302.177813 72.748563) scale(0.1 -0.1)">
      <use xlink:href="#DejaVuSans-44"/>
      <use xlink:href="#DejaVuSans-65" x="77.001953"/>
      <use xlink:href="#DejaVuSans-73" x="138.525391"/>
      <use xlink:href="#DejaVuSans-69" x="190.625"/>
      <use xlink:href="#DejaVuSans-67" x="218.408203"/>
      <use xlink:href="#DejaVuSans-6e" x="281.884766"/>
      <use xlink:href="#DejaVuSans-20" x="345.263672"/>
      <use xlink:href="#DejaVuSans-32" x="377.050781"/>
      <use xlink:href="#DejaVuSans-3a" x="440.673828"/>
      <use xlink:href="#DejaVuSans-20" x="474.365234"/>
      <use xlink:href="#DejaVuSans-49" x="506.152344"/>
      <use xlink:href="#DejaVuSans-20" x="535.644531"/>
      <use xlink:href="#DejaVuSans-73" x="567.431641"/>
      <use xlink:href="#DejaVuSans-74" x="619.53125"/>
      <use xlink:href="#DejaVuSans-72" x="658.740234"/>
      <use xlink:href="#DejaVuSans-69" x="699.853516"/>
      <use xlink:href="#DejaVuSans-6e" x="727.636719"/>
      <use xlink:href="#DejaVuSans-67" x="791.015625"/>
      <use xlink:href="#DejaVuSans-65" x="854.492188"/>
      <use xlink:href="#DejaVuSans-72" x="916.015625"/>
      <use xlink:href="#DejaVuSans-73" x="957.128906"/>
     </g>
    </g>
    <g id="line2d_36">
     <path d="M 274.177813 83.926688 
L 284.177813 83.926688 
L 294.177813 83.926688 
" style="fill: none; stroke: #2ca02c; stroke-width: 1.5; stroke-linecap: square"/>
    </g>
    <g id="text_20">
     <!-- Design 3: L stringers -->
     <g transform="translate(302.177813 87.426688) scale(0.1 -0.1)">
      <defs>
       <path id="DejaVuSans-4c" d="M 628 4666 
L 1259 4666 
L 1259 531 
L 3531 531 
L 3531 0 
L 628 0 
L 628 4666 
z
" transform="scale(0.015625)"/>
      </defs>
      <use xlink:href="#DejaVuSans-44"/>
      <use xlink:href="#DejaVuSans-65" x="77.001953"/>
      <use xlink:href="#DejaVuSans-73" x="138.525391"/>
      <use xlink:href="#DejaVuSans-69" x="190.625"/>
      <use xlink:href="#DejaVuSans-67" x="218.408203"/>
      <use xlink:href="#DejaVuSans-6e" x="281.884766"/>
      <use xlink:href="#DejaVuSans-20" x="345.263672"/>
      <use xlink:href="#DejaVuSans-33" x="377.050781"/>
      <use xlink:href="#DejaVuSans-3a" x="440.673828"/>
      <use xlink:href="#DejaVuSans-20" x="474.365234"/>
      <use xlink:href="#DejaVuSans-4c" x="506.152344"/>
      <use xlink:href="#DejaVuSans-20" x="561.865234"/>
      <use xlink:href="#DejaVuSans-73" x="593.652344"/>
      <use xlink:href="#DejaVuSans-74" x="645.751953"/>
      <use xlink:href="#DejaVuSans-72" x="684.960938"/>
      <use xlink:href="#DejaVuSans-69" x="726.074219"/>
      <use xlink:href="#DejaVuSans-6e" x="753.857422"/>
      <use xlink:href="#DejaVuSans-67" x="817.236328"/>
      <use xlink:href="#DejaVuSans-65" x="880.712891"/>
      <use xlink:href="#DejaVuSans-72" x="942.236328"/>
      <use xlink:href="#DejaVuSans-73" x="983.349609"/>
     </g>
    </g>
   </g>
  </g>
 </g>
 <defs>
  <clipPath id="pa407b418a4">
   <rect x="57.6" y="41.472" width="357.12" height="266.112"/>
  </clipPath>
 </defs>
</svg>
